<svg xmlns="http://www.w3.org/2000/svg" xmlns:xlink="http://www.w3.org/1999/xlink" viewBox="0 0 844.063 963.683">
  <defs>
    <style>
      .cls-1 {
        fill: #3480e3;
      }

      .cls-1, .cls-4 {
        opacity: 0.1;
      }

      .cls-2 {
        fill: url(#linear-gradient);
      }

      .cls-3 {
        fill: #f78181;
      }

      .cls-5 {
        fill: #ffb9b9;
      }

      .cls-6 {
        opacity: 0.05;
      }

      .cls-7 {
        fill: #8189a6;
      }

      .cls-8 {
        fill: #4c4c78;
      }

      .cls-9 {
        fill: #f9d048;
      }

      .cls-10 {
        fill: #cdd0db;
      }

      .cls-11 {
        fill: #9da7c0;
      }

      .cls-12, .cls-17 {
        fill: #fff;
      }

      .cls-12 {
        opacity: 0.3;
      }

      .cls-13 {
        fill: none;
        stroke: #535461;
        stroke-miterlimit: 10;
        stroke-width: 2px;
      }

      .cls-14 {
        fill: #e53167;
      }

      .cls-15, .cls-16 {
        fill: #d8dfe8;
      }

      .cls-16, .cls-17 {
        opacity: 0.2;
      }
    </style>
    <linearGradient id="linear-gradient" x1="0.5" y1="1" x2="0.5" gradientUnits="objectBoundingBox">
      <stop offset="0" stop-color="gray" stop-opacity="0.251"/>
      <stop offset="0.54" stop-color="gray" stop-opacity="0.122"/>
      <stop offset="1" stop-color="gray" stop-opacity="0.102"/>
    </linearGradient>
  </defs>
  <g id="Group_55" data-name="Group 55" transform="translate(-902.7 -3682)">
    <ellipse id="Ellipse_75" data-name="Ellipse 75" class="cls-1" cx="311.429" cy="60.079" rx="311.429" ry="60.079" transform="translate(1120.946 4525.525)"/>
    <path id="Path_609" data-name="Path 609" class="cls-2" d="M874.632,258.808q-1.091-1.226-2.256-2.452c5.922-6.719,12.065-13.622,12-22.266-.062-10.5-9.38-18.563-12.862-28.482-4.733-13.487,1.839-27.98,4.537-42.031a78.814,78.814,0,0,0-17.092-64.836c-2.734-3.237-5.91-6.363-9.993-7.651-6.2-1.949-12.788.76-19.25,1.557-21.322,2.636-40.706-15.731-62.126-14.088a11.55,11.55,0,0,0-4.12.92c-2.771,1.324-4.279,4.255-5.983,6.768-6.658,9.809-17.828,14.713-28.936,19.679a15.131,15.131,0,0,0-3.948,1.815c-3.335,1.557-6.621,3.176-9.723,5.015-20.991,12.42-17.938,29.806-5.566,40.535-2.452,12.053-14.713,22.658-12.616,35.054,1.667,9.711,11.783,16.319,13.732,25.981,1.128,5.616-.65,10.961-3.127,16.27-23.48,5.432-50.013,15.449-52.085,33.1-3.6,30.726-14.443,115.6-14.443,115.6s-12.58,67.975,35.128,35.778l-.613,1.815a395.544,395.544,0,0,0-17.521,80.15c-.478,4.059-1.459,7.246-3.225,8.289-.638.38.625.981,3.384,1.729-.306,1.14-.65,2.281-.944,3.433a325.723,325.723,0,0,0-10,60.7,426.992,426.992,0,0,1-7.5,54.059c-11.3,56.866,0,129.819,0,129.819l24.669,116.136,4.218,19.851a29.5,29.5,0,0,0,9.993,7.209,154.793,154.793,0,0,1,3.433,21.616c.061.809.122,1.631.172,2.452a10.312,10.312,0,0,0-7.357,4.573c-8.791,12.359,1.226,22.254-32.651,46.984-8.767,6.388-12.984,12.2-14.063,17.166h0c-1.153,5.309,1.349,9.613,5.824,12.518h0a21.244,21.244,0,0,0,2.379,1.324h0q.625.294,1.226.564h0q.65.27,1.336.5h.074l1.312.417h.1l1.41.368h.123l1.324.282h.172l1.459.245h.159l1.324.159h.258l1.484.11h3.519l1.324-.074h.356l1.5-.147h.172l1.336-.2.368-.061,1.484-.282h.147l1.349-.331.38-.1c.491-.135.969-.27,1.459-.429h.086l1.361-.478.368-.135c.478-.184.944-.368,1.41-.576,22.609-9.894,69.078-35.851,69.078-35.851v-4.9h0c-.135-10.655-1.239-35.52-6.143-34.552-1.68.331-2.82,2.685-3.985,5.395l-.576-1.1c-4.782-9.233-11.709-25.074-12.383-40.559a72.592,72.592,0,0,0,10.679-9.466s-2.526-10.63-4.671-21.849c-1.864-9.723-3.445-19.875-2.869-23.9,1.226-8.656-15.069-75.417-15.069-75.417s1.68-14.713,5.064-35.1c6.572-39.676,19.507-100.981,38.806-118.318.454-.392.9-.785,1.349-1.128,0,0,13.818,2.452,25.123,80.359l3.273,34.686a201.354,201.354,0,0,0,4.9,28.507c2.231,9.233,4.622,24.681,3.151,45.6-1.434,20.451-2.048,44.52-2.305,61.415-.2,12.739-.2,21.408-.2,21.408a47.406,47.406,0,0,0,7.54,5.211v11.341a9.441,9.441,0,0,1-2.648,6.449h0a17.51,17.51,0,0,0-3.789,6.976c-2.195,3.948-4.046,10.361-4.819,20.672-2.452,33.387-3.764,29.672-3.764,29.672a44.025,44.025,0,0,0-2.844,11.256h0c-.073.723-.11,1.447-.135,2.182v1.827a6.493,6.493,0,0,0,.061.736,2.63,2.63,0,0,0,.086.662,1.007,1.007,0,0,0,.074.466,8.927,8.927,0,0,1,.184.883l.1.38c.086.306.172.6.27.895l.1.27a8.358,8.358,0,0,0,.331.785l.11.233a8.712,8.712,0,0,0,.491.871l.147.233a9.292,9.292,0,0,0,.6.809l.159.184a8.928,8.928,0,0,0,.76.772l.086.074a9.258,9.258,0,0,0,.87.674l.135.1a10.063,10.063,0,0,0,1.03.589l.209.11a11.381,11.381,0,0,0,1.226.478l.208.061a13.621,13.621,0,0,0,1.4.38h0a14.59,14.59,0,0,0,1.545.233h.221c.539,0,1.1.086,1.692.086h2.5a15.217,15.217,0,0,0,2.158-.233c26.373-3.678,38.941-6.131,37.678-21.015-.76-8.938-2.881-21.923-4.451-30.836a46.364,46.364,0,0,0-4.341-13q.1-1.042.184-2.146c.454-6.13.429-13.487-1.435-18.306l.576-10.826a34.515,34.515,0,0,0,16.969-10.164s.184-8.019.735-18.661c.834-16.43,2.452-39.1,5.542-48.1,5.027-14.836,0-66.761,0-66.761S816.6,657.45,834.219,619.122c15.51-33.8,15.375-67.632.454-100.54a5.082,5.082,0,0,0,.8-.785s-3.764-2.452-2.452-30.91c.956-21.7-5.395-44.14-8.46-53.507a130.9,130.9,0,0,0,14.713,5.3c28.826,8.595,31.339-23.6,31.339-23.6l6.278-48.223,7.455-71.813h0C886.378,289.4,889.112,275.3,874.632,258.808ZM746.946,211.174a21.877,21.877,0,0,1-.172,2.379,31.987,31.987,0,0,1-1.606,7.5,49.87,49.87,0,0,0,1.557-10.029ZM822.878,386.69c.441.822.87,1.606,1.226,2.452l-3.176-1.618a71.026,71.026,0,0,1,5.665-16.847,119.3,119.3,0,0,0,7.675-19.409,193.747,193.747,0,0,0,1.116,23.112c2.563,19.728-12.506,12.31-12.506,12.31Z" transform="translate(691.486 3603.545)"/>
    <path id="Path_610" data-name="Path 610" class="cls-3" d="M703.411,112.2c-4.009,2.734-8.215,5.9-9.637,10.544-2.305,7.491,3.482,15.007,4.046,22.83,1.042,14.21-15.032,25.957-12.666,40.02,1.619,9.637,11.5,16.184,13.4,25.748,2.771,13.978-12.371,26.3-11.182,40.461.638,7.565,5.9,13.99,11.856,18.673A57.737,57.737,0,0,0,728.2,282.373c-.7-12.151-9.723-23.222-8.166-35.3,1.067-8.276,6.891-15.056,10.262-22.7,5.922-13.414,4.022-28.936.478-43.159s-8.681-28.286-8.938-42.913c-.159-8.828,3.985-21.788.944-30.162C719.092,97.955,710.289,107.507,703.411,112.2Z" transform="translate(704.443 3609.235)"/>
    <path id="Path_611" data-name="Path 611" class="cls-4" d="M703.411,112.2c-4.009,2.734-8.215,5.9-9.637,10.544-2.305,7.491,3.482,15.007,4.046,22.83,1.042,14.21-15.032,25.957-12.666,40.02,1.619,9.637,11.5,16.184,13.4,25.748,2.771,13.978-12.371,26.3-11.182,40.461.638,7.565,5.9,13.99,11.856,18.673A57.737,57.737,0,0,0,728.2,282.373c-.7-12.151-9.723-23.222-8.166-35.3,1.067-8.276,6.891-15.056,10.262-22.7,5.922-13.414,4.022-28.936.478-43.159s-8.681-28.286-8.938-42.913c-.159-8.828,3.985-21.788.944-30.162C719.092,97.955,710.289,107.507,703.411,112.2Z" transform="translate(704.443 3609.235)"/>
    <path id="Path_612" data-name="Path 612" class="cls-5" d="M719.086,791.687l-11.035,11.035s-39.235,20.844-34.331-7.357a101.469,101.469,0,0,0,.846-25.356,157.59,157.59,0,0,0-6.977-34.723l36.783-7.357c-6.131,19.225,3.96,43.428,10.25,55.751C717.137,788.646,719.086,791.687,719.086,791.687Z" transform="translate(700.525 3750.391)"/>
    <path id="Path_613" data-name="Path 613" class="cls-5" d="M784.165,770.967a112.2,112.2,0,0,1-1.4,11.268s-30.652,20.844-33.1-2.452c-1.594-15.179,2.011-22.07,4.733-24.963h0a9.44,9.44,0,0,0,2.575-6.388v-27.5l26.974,8.583-1.226,23.3C784.582,757.652,784.606,764.886,784.165,770.967Z" transform="translate(718.993 3748.808)"/>
    <path id="Path_614" data-name="Path 614" class="cls-6" d="M718.034,783.948,707,794.983s-39.235,20.844-34.331-7.356a101.479,101.479,0,0,0,.846-25.356c8.583-1.226,18.771,8.19,18.771,8.19,14.37,20.28,18.245,12.6,21.285,5.481C716.084,780.907,718.034,783.948,718.034,783.948Z" transform="translate(701.578 3758.13)"/>
    <path id="Path_615" data-name="Path 615" class="cls-7" d="M701.8,772.463s-17.165-15.939-25.748-3.678,1.226,22.07-31.879,46.592,0,40.461,22.07,30.652,67.435-35.557,67.435-35.557,0-40.461-6.131-39.235S722.643,801.889,701.8,772.463Z" transform="translate(692.064 3758.58)"/>
    <path id="Path_616" data-name="Path 616" class="cls-6" d="M784.165,764.99a112.2,112.2,0,0,1-1.4,11.268s-30.652,20.844-33.1-2.452c-1.594-15.179,2.011-22.07,4.733-24.963a7.356,7.356,0,0,1,7.528-.785c4.9-2.183,10.3,1.459,14.713,6.13A43.339,43.339,0,0,1,784.165,764.99Z" transform="translate(718.993 3754.786)"/>
    <path id="Path_617" data-name="Path 617" class="cls-7" d="M763.746,750.058s-13.487-7.357-15.939,25.748-3.678,29.426-3.678,29.426-12.261,29.426,13.487,25.748,38.009-6.13,36.783-20.844c-.736-8.865-2.82-21.751-4.353-30.579a44.959,44.959,0,0,0-11.537-23.3C774.057,751.505,768.65,747.876,763.746,750.058Z" transform="translate(717.171 3755.237)"/>
    <path id="Path_618" data-name="Path 618" class="cls-8" d="M831.759,669.754s4.9,51.5,0,66.209c-2.979,8.926-4.6,31.413-5.407,47.707-.54,10.545-.723,18.5-.723,18.5-23.3,24.522-50.27,0-50.27,0s0-8.583.2-21.236c.258-16.761.858-40.633,2.256-60.913,1.435-20.745-.9-36.06-3.077-45.218a202.553,202.553,0,0,1-4.757-28.262l-3.2-34.4c-11.035-77.244-24.522-79.7-24.522-79.7-.441.343-.871.723-1.312,1.116C722.1,550.725,709.468,611.552,703.056,650.9c-3.3,20.243-4.9,34.809-4.9,34.809s15.939,66.209,14.713,74.792c-.564,3.985.981,14.063,2.8,23.7,2.1,11.121,4.561,21.665,4.561,21.665-30.653,33.1-51.5,7.357-51.5,7.357l-4.12-19.691-24.081-115.18s-11.035-72.34,0-128.74a429.789,429.789,0,0,0,7.357-53.617,327.742,327.742,0,0,1,9.809-60.2q2.244-8.754,4.978-17.374s46.04-8.006,89.395-8.006c32.516,0,63.512,4.5,72.45,20.267q3.09,5.444,5.615,10.912c15.523,33.362,15.939,67.632.515,101.889C813.368,581.475,831.759,669.754,831.759,669.754Z" transform="translate(693.297 3678.6)"/>
    <path id="Path_619" data-name="Path 619" class="cls-5" d="M717.907,283.183s-64.983-66.209-15.939-61.3c11.121,1.116,18.649-.871,23.639-4.6,5.689-4.242,8.08-10.741,8.742-17.521,1.349-13.487-4.181-28.2-4.181-28.2s66.209-52.722,52.722,13.487a112.868,112.868,0,0,0-2.575,20.464c-.221,14.051,4.4,19.434,10.888,21.641,10.937,3.74,27.195-1.5,34.6,10.618C839.29,259.887,717.907,283.183,717.907,283.183Z" transform="translate(704.157 3620.097)"/>
    <path id="Path_620" data-name="Path 620" class="cls-6" d="M774.312,185.09a112.863,112.863,0,0,0-2.575,20.464,50.044,50.044,0,0,1-5.383,1.533,52.82,52.82,0,0,1-40.584-7.357c1.349-13.487-4.181-28.2-4.181-28.2S787.8,118.881,774.312,185.09Z" transform="translate(712.735 3620.102)"/>
    <path id="Path_621" data-name="Path 621" class="cls-5" d="M811.035,162.638a52.722,52.722,0,0,1-105.445,0c0-.981,0-1.962.086-2.93a52.722,52.722,0,0,1,105.359,2.93Z" transform="translate(709.117 3610.675)"/>
    <path id="Path_622" data-name="Path 622" class="cls-6" d="M717.907,271.083s-64.983-66.209-15.939-61.3c11.121,1.116,18.649-.871,23.639-4.6-9.49,15.743-20.169,44.054,27.857,41.381,43.956-2.452,43.208-19.961,37.739-31.462,10.937,3.74,27.195-1.5,34.6,10.618C839.29,247.787,717.907,271.083,717.907,271.083Z" transform="translate(704.157 3632.198)"/>
    <path id="Path_623" data-name="Path 623" class="cls-4" d="M827.71,446.607c-11.157,14.5-153.385-4.512-174.18-10.826q2.244-8.754,4.978-17.374s46.04-8.006,89.395-8.006c32.516,0,63.512,4.5,72.45,20.267q3.09,5.444,5.616,10.912C826.753,445.969,827.71,446.607,827.71,446.607Z" transform="translate(697.346 3678.597)"/>
    <path id="Path_624" data-name="Path 624" class="cls-9" d="M741.4,199.93s-82.762,6.744-86.44,38.622c-3.519,30.481-14.1,114.64-14.1,114.64S628.6,420.628,675.19,388.749l-.6,1.79a397.652,397.652,0,0,0-17.1,79.488c-.478,4.022-1.422,7.185-3.151,8.227-6.13,3.678,164.3,28.2,176.558,12.261,0,0-3.678-2.452-2.452-30.652s-9.809-57.627-9.809-57.627-9.809-29.426,3.678-57.627,8.583-36.783,8.583-36.783l46.592-35.557s10.066-17.251-8.338-38.536a63.757,63.757,0,0,0-43.8-21.579l-32.124-2.33s35.214,37.886-31,41.565S741.4,199.93,741.4,199.93Z" transform="translate(694.152 3631.01)"/>
    <path id="Path_625" data-name="Path 625" class="cls-6" d="M678.808,254.93s2.452,19.618-2.452,25.748-6.13,34.331,0,51.5" transform="translate(701.568 3643.446)"/>
    <path id="Path_626" data-name="Path 626" class="cls-4" d="M728.762,516.02c-18.845,17.165-31.474,77.992-37.886,117.338-8.926-54.77,28.2-145.428,28.2-145.428Z" transform="translate(705.477 3696.127)"/>
    <path id="Path_627" data-name="Path 627" class="cls-4" d="M714.846,736.925c-30.652,33.1-51.5,7.357-51.5,7.357l-4.12-19.691c11.587,6.02,31.167,10.692,51.055-9.331C712.382,726.381,714.846,736.925,714.846,736.925Z" transform="translate(698.635 3747.526)"/>
    <path id="Path_628" data-name="Path 628" class="cls-4" d="M800.584,715.344c-.54,10.545-.723,18.5-.723,18.5-23.3,24.522-50.27,0-50.27,0s0-8.583.2-21.236C759.9,719.035,778.085,726.109,800.584,715.344Z" transform="translate(719.065 3746.927)"/>
    <rect id="Rectangle_87" data-name="Rectangle 87" class="cls-10" width="83.375" height="34.331" rx="3.75" transform="translate(1386.507 3940.063)"/>
    <rect id="Rectangle_88" data-name="Rectangle 88" class="cls-6" width="83.375" height="34.331" rx="3.75" transform="translate(1386.507 3940.063)"/>
    <rect id="Rectangle_89" data-name="Rectangle 89" class="cls-10" width="83.375" height="34.331" rx="3.75" transform="translate(1386.507 3941.289)"/>
    <circle id="Ellipse_76" data-name="Ellipse 76" class="cls-11" cx="3.678" cy="3.678" r="3.678" transform="translate(1448.425 3954.163)"/>
    <path id="Path_629" data-name="Path 629" class="cls-6" d="M653.828,341.022a23.848,23.848,0,0,1,13.855-14.591c4.193-1.741,9.306-4.9,11.893-10.679,4.831-10.7,13.413-21.739,35.483-14.382s-6.13,12.261-6.13,12.261,50.27-7.357,30.653,7.357-44.14,23.3-44.14,23.3l-12.077,12.788c-7.357,7.81-20.133,7.773-26.974-.539C653.325,352.78,651.707,347.729,653.828,341.022Z" transform="translate(697.196 3653.406)"/>
    <path id="Path_630" data-name="Path 630" class="cls-5" d="M652.828,339.022a23.847,23.847,0,0,1,13.855-14.591c4.193-1.741,9.306-4.9,11.893-10.679,4.831-10.7,13.413-21.739,35.483-14.382s-6.13,12.261-6.13,12.261,50.27-7.357,30.652,7.357-44.14,23.3-44.14,23.3l-12.077,12.788c-7.357,7.81-20.133,7.773-26.974-.54C652.325,350.78,650.707,345.729,652.828,339.022Z" transform="translate(696.97 3652.954)"/>
    <path id="Path_631" data-name="Path 631" class="cls-6" d="M809.116,363.053,800.533,383.9l-11.035-8.08-30.653-22.573L738,339.757c-29.427-22.07,0-25.748,0-25.748-11.035-4.9,0-9.809,0-9.809,39.235-8.583,31.878,23.3,31.878,23.3l24.853,12.886,8.252,4.279Z" transform="translate(713.488 3654.254)"/>
    <path id="Path_632" data-name="Path 632" class="cls-5" d="M811.116,361.053,802.533,381.9l-11.035-8.08-30.653-22.573L740,337.757c-29.427-22.07,0-25.748,0-25.748-11.035-4.9,0-9.809,0-9.809,39.235-8.583,31.878,23.3,31.878,23.3l24.853,12.886,8.252,4.279Z" transform="translate(713.94 3653.802)"/>
    <path id="Path_633" data-name="Path 633" class="cls-6" d="M799.208,354.111l-8.583,20.844-11.035-8.08c9.944.356,21.69-4.451,5.186-35.434l8.252,4.279Z" transform="translate(725.848 3660.745)"/>
    <path id="Path_634" data-name="Path 634" class="cls-9" d="M845.93,248.93l2.366,9.649-7.271,71.273L834.9,377.67s-2.452,31.879-30.652,23.3S773.59,383.8,773.59,383.8s40.461,13.487,14.713-34.331c0,0,14.713,7.357,12.261-12.261s0-53.948,0-53.948Z" transform="translate(724.492 3642.089)"/>
    <path id="Path_635" data-name="Path 635" class="cls-6" d="M811.03,162.638a52.723,52.723,0,0,1-41.068,51.424c-1.76-5.1-3.01-10.178-1.723-15.34C770.692,188.705,782.29,181.4,781,171.16a6.792,6.792,0,0,0-1.226-3.212c-2.587-3.409-7.859-1.717-12.053-.871-10.839,2.158-22.707-5.162-25.65-15.817a35.839,35.839,0,0,1-36.464,8.448,52.722,52.722,0,0,1,105.359,2.93Z" transform="translate(709.122 3610.675)"/>
    <path id="Path_636" data-name="Path 636" class="cls-3" d="M747.484,155.231c2.93,10.655,14.811,17.975,25.638,15.8,4.193-.834,9.466-2.526,12.053.883a6.622,6.622,0,0,1,1.165,3.2c1.3,10.25-10.262,17.545-12.751,27.575-2.563,10.324,4.9,20.292,6.559,30.8.871,5.75,0,11.611,0,17.423s1.373,12.065,5.689,15.939S798.1,270.8,801,265.751c13.794,7.3,8.289,29.892,18.759,41.454,5.775,6.376,15.277,7.908,23.848,7.1a10.055,10.055,0,0,0,5.6-1.815,9.81,9.81,0,0,0,2.746-5.15,41.823,41.823,0,0,0-1.067-24.8c-1.373-3.813-3.347-7.663-2.832-11.672.392-3.139,2.268-5.873,4.255-8.337,6.584-8.166,15.571-16.062,15.51-26.557s-9.159-18.391-12.555-28.2c-4.622-13.4,1.79-27.759,4.426-41.687a79.071,79.071,0,0,0-16.675-64.37c-2.673-3.212-5.775-6.314-9.809-7.59-6.045-1.937-12.482.76-18.8,1.545-20.844,2.612-39.738-15.608-60.655-13.978a11.133,11.133,0,0,0-4.022.92c-2.71,1.312-4.169,4.218-5.848,6.719-9.233,13.794-27.379,17.729-41.6,26.288C660.811,140.591,715.716,185.809,747.484,155.231Z" transform="translate(704.999 3604.253)"/>
    <path id="Path_637" data-name="Path 637" class="cls-12" d="M666.24,833.487c-14.333,6.363-33.3,1.876-35.79-8.754-3,14.051,19.422,20.942,35.79,13.659,22.07-9.809,67.435-35.557,67.435-35.557s0-1.9-.061-4.9C732.29,798.715,687.979,823.764,666.24,833.487Z" transform="translate(692.066 3766.218)"/>
    <path id="Path_638" data-name="Path 638" class="cls-12" d="M794.336,798.35C792.926,809.385,780.69,811.7,757.615,815c-11.734,1.68-15.559-3.531-16.27-9.686-.772,7.884,1.471,16.7,16.27,14.591,25.748-3.678,38.009-6.13,36.783-20.844C794.373,798.828,794.349,798.583,794.336,798.35Z" transform="translate(717.171 3766.313)"/>
    <path id="Path_639" data-name="Path 639" class="cls-13" d="M909.055,867.877s-17.754-89.983,18.8-151.595a138.917,138.917,0,0,0,19.164-85.753,233.639,233.639,0,0,0-8.583-41.859" transform="translate(754.146 3718.904)"/>
    <path id="Path_640" data-name="Path 640" class="cls-14" d="M958.028,560.8c-.981,10.728-23.3,40.069-23.3,40.069s-16.577-32.909-15.584-43.649a19.518,19.518,0,1,1,38.872,3.568Z" transform="translate(757.393 3707.783)"/>
    <path id="Path_641" data-name="Path 641" class="cls-14" d="M980.22,613.715c-6.658,8.472-41.32,20.991-41.32,20.991s3.973-36.636,10.63-45.108a19.519,19.519,0,1,1,30.652,24.117Z" transform="translate(761.868 3717.278)"/>
    <path id="Path_642" data-name="Path 642" class="cls-14" d="M972.371,697.479c-10.03,3.948-46.261-2.747-46.261-2.747s21.923-29.623,31.952-33.571a19.518,19.518,0,1,1,14.31,36.319Z" transform="translate(758.976 3734.986)"/>
    <path id="Path_643" data-name="Path 643" class="cls-14" d="M951.6,758.327c-9.22,5.591-46.065,5.113-46.065,5.113s16.614-32.884,25.822-38.487a19.518,19.518,0,1,1,20.244,33.377Z" transform="translate(754.326 3749.077)"/>
    <path id="Path_644" data-name="Path 644" class="cls-14" d="M906.326,629.461c7.013,8.19,42.165,19.225,42.165,19.225s-5.518-36.44-12.518-44.618a19.518,19.518,0,1,0-29.648,25.394Z" transform="translate(753.441 3720.843)"/>
    <path id="Path_645" data-name="Path 645" class="cls-14" d="M883.811,701.972c9.135,5.714,45.991,5.726,45.991,5.726s-16.16-33.093-25.294-38.831a19.519,19.519,0,1,0-20.685,33.106Z" transform="translate(747.34 3736.365)"/>
    <path id="Path_646" data-name="Path 646" class="cls-14" d="M870.3,774.575c8.043,7.173,44.36,13.426,44.36,13.426s-10.336-35.373-18.392-42.546a19.519,19.519,0,1,0-25.969,29.12Z" transform="translate(744.769 3753.133)"/>
    <path id="Path_647" data-name="Path 647" class="cls-15" d="M693.8,173.6a17.815,17.815,0,0,0-17.742-17.165H355.245a18.1,18.1,0,0,0-18.122,15.608,17.828,17.828,0,0,0,17.644,19.949H677.121A14.26,14.26,0,0,1,691,199.65a22.6,22.6,0,0,1,2.072,6.131l.723.356V173.645Z" transform="translate(625.778 3621.175)"/>
    <path id="Path_648" data-name="Path 648" class="cls-15" d="M660.107,267.6a17.815,17.815,0,0,0-17.742-17.165H504.245a18.1,18.1,0,0,0-18.122,15.608,17.828,17.828,0,0,0,17.644,19.949H643.432a14.259,14.259,0,0,1,13.879,7.663,22.6,22.6,0,0,1,2.072,6.131l.724.356V267.645Z" transform="translate(659.467 3642.428)"/>
    <path id="Path_649" data-name="Path 649" class="cls-16" d="M288,126.6c.209-9.49,5.334-17.165,11.587-17.165H509.348c6.388,0,11.611,7.994,11.611,17.778s-5.223,17.778-11.611,17.778H299.55a9.515,9.515,0,0,0-9.2,6.131,33.109,33.109,0,0,0-1.888,7.651l-.466.356V126.632Z" transform="translate(614.7 3610.549)"/>
    <path id="Path_650" data-name="Path 650" class="cls-16" d="M288,220.6c.257-9.49,6.486-17.165,14.088-17.165H557.116c7.761,0,14.112,7.994,14.112,17.778s-6.351,17.778-14.112,17.778H302.088c-4.9,0-9.466,2.256-11.182,6.131a28.4,28.4,0,0,0-2.293,7.651l-.576.356V220.632Z" transform="translate(614.7 3631.802)"/>
    <circle id="Ellipse_77" data-name="Ellipse 77" class="cls-17" cx="6.13" cy="6.13" r="6.13" transform="translate(1165.086 3903.893)"/>
    <circle id="Ellipse_78" data-name="Ellipse 78" class="cls-17" cx="6.13" cy="6.13" r="6.13" transform="translate(1185.929 3903.893)"/>
    <circle id="Ellipse_79" data-name="Ellipse 79" class="cls-17" cx="6.13" cy="6.13" r="6.13" transform="translate(1206.773 3903.893)"/>
  </g>
</svg>
