<svg xmlns="http://www.w3.org/2000/svg" xmlns:xlink="http://www.w3.org/1999/xlink" viewBox="0 0 612 561.478">
  <defs>
    <style>
      .cls-1, .cls-5 {
        fill: #3480e3;
      }

      .cls-1, .cls-10, .cls-11, .cls-17 {
        opacity: 0.1;
      }

      .cls-2 {
        fill: url(#linear-gradient);
      }

      .cls-3 {
        fill: #ffc5d3;
      }

      .cls-4 {
        fill: #3a3768;
      }

      .cls-6 {
        fill: #e6e8ec;
      }

      .cls-7 {
        fill: #5f5570;
      }

      .cls-8 {
        opacity: 0.15;
      }

      .cls-9 {
        fill: #bc8487;
      }

      .cls-11 {
        stroke: #000;
        stroke-miterlimit: 10;
      }

      .cls-12 {
        fill: #433a59;
      }

      .cls-13 {
        fill: #7b728f;
      }

      .cls-14 {
        fill: #e5e8ef;
      }

      .cls-15 {
        fill: #8f7080;
      }

      .cls-16 {
        fill: #c3bbc8;
      }

      .cls-18 {
        fill: #ffd037;
      }

      .cls-19 {
        fill: #a8a8a8;
      }

      .cls-20 {
        opacity: 0.2;
      }
    </style>
    <linearGradient id="linear-gradient" x1="0.5" y1="1" x2="0.5" gradientUnits="objectBoundingBox">
      <stop offset="0" stop-color="gray" stop-opacity="0.251"/>
      <stop offset="0.54" stop-color="gray" stop-opacity="0.122"/>
      <stop offset="1" stop-color="gray" stop-opacity="0.102"/>
    </linearGradient>
  </defs>
  <g id="undraw_businessman_97x4_1_" data-name="undraw_businessman_97x4 (1)" transform="translate(-1046 -253.947)">
    <path id="Path_7" data-name="Path 7" class="cls-1" d="M522.677,149.959c-33.545-1.163-65.493-11.987-95.983-23.821s-60.742-24.963-93.482-31.268c-21.06-4.035-45.14-4.61-62.109,6.677-16.324,10.866-21.607,29.622-24.437,47.025-2.1,13.094-3.391,26.875,2.459,39.129,4.057,8.512,11.266,15.666,16.247,23.821,17.347,28.361,5.086,63.335-13.711,91.03-8.814,12.989-19.042,25.383-25.845,39.234s-9.956,29.671-4,43.781c5.9,14.012,19.96,24.479,35.191,31.871,30.939,15,67.391,19.295,102.94,21.719,78.692,5.381,157.8,3.055,236.7.7,29.194-.869,58.522-1.745,87.247-6.256,15.953-2.508,32.424-6.488,44.005-16.114,14.713-12.2,18.342-32.844,8.491-48.139-16.527-25.649-62.207-32.025-73.76-59.551-6.355-15.154.175-32.032,9.409-46.079,19.82-30.126,53.036-56.595,54.787-91.079,1.205-23.659-14.769-47.361-39.458-58.564-25.88-11.735-61.772-10.257-80.864,9.171C586.845,143.3,552.291,150.988,522.677,149.959Z" transform="translate(866.165 191.794)"/>
    <ellipse id="Ellipse_10" data-name="Ellipse 10" class="cls-1" cx="212.963" cy="28.809" rx="212.963" ry="28.809" transform="translate(1109.251 757.807)"/>
    <path id="Path_8" data-name="Path 8" class="cls-2" d="M546.925,196.134s-6.593-13.01-5.7-16.878-4.638-12.127-4.638-12.127l.357-13.7s-.764,1.4-4.743,2.627c-.336-.441-.7-.876-1.079-1.289a28.251,28.251,0,0,0-4.778-3.986l-7.006-15.119-6.775-10.376s-10.684-21.719-21.719-26.511l-1.737-3.4a.266.266,0,0,0,.105-.343l-1.766-3.454a.273.273,0,0,0-.343-.126l-1.688-3.307a26.56,26.56,0,0,0-4.9-11.833c-.175-.245-.364-.469-.546-.7l2.746-.1c2.41-.091,5.1-.3,6.719-2.1a6.144,6.144,0,0,0,1.254-2.312,9.809,9.809,0,0,0,.406-2.053c0-.105,0-.21,0-.308V67.026a5.633,5.633,0,0,0-.119-.7.482.482,0,0,0-.056-.273,8.158,8.158,0,0,0-.217-.813,1.087,1.087,0,0,1-.049-.161c-.1-.28-.2-.56-.322-.834a.781.781,0,0,1-.049-.112c-.126-.273-.266-.539-.413-.8l-.042-.084h0a2.806,2.806,0,0,0-.175-.315c-1.9-2.985-5.233-4.729-8.407-6.305a97.157,97.157,0,0,0-9.108-4.2,49.042,49.042,0,0,0-35.731.5,14.146,14.146,0,0,0-3.181,1.7,16.437,16.437,0,0,0-3.468,4.078l-5.43,8.022a11.336,11.336,0,0,0-1.758,3.237c-1.016,3.811,2.172,7.63,1.815,11.56-.182,1.955-1.233,3.748-1.436,5.7-.259,2.522.911,4.953,2.053,7.23l7.77,15.413c-.413,2.025-.869,4.1-1.366,6.1h0c-3.58,3.7-4.785,5.717-5.114,6.81l-.105.056h0a6.305,6.305,0,0,0-1.794,1.752L417,131.762s-12.835,3.335-15.5,7.56c0,0-20.142-.883-19.967,27.247,0,0-.89,10.551-1.4,11.959s0,15.645,0,15.645l-.238,28.837s-.771,15.294,0,20.745,1.66,26.2,1.66,26.2,4.813,20.219,3.034,27.429c-1.709,6.9,0,21.992,2.8,22.055.533,1.1,1.142,1.639,1.808,1.331a7.721,7.721,0,0,1,.89-.322V337.67s-3.468,24.136.42,28.725a93.926,93.926,0,0,0-6.376,11.581l-27.254-1.464-3.468.974h0l-3.181.89L348.3,422.7l.771.056-.056,1.352,1.822.133L348.3,468.886l37.728,3.1c-1.66,3.72-3.587,7.707-4.337,8.092-1.4.7-4.456-1.4-5.17-.533a5.8,5.8,0,0,1-5.346,1.4c-2.494-.532-4.1,2.284-4.1,2.284s.364.322.911.918c-4.049-.49-9.171,1.681-11.952,3.083-1.247.631-2.025,1.1-2.025,1.1H346.65l4.042,25.789,2.851,1.948.7,20.318s11.406,35.163,16.632,34.932a2.361,2.361,0,0,0,1.759-.883c2.8-3.237.862-14.355.862-14.355v-18.51s4.274-1.878,3.8-3.286,6.894-16.815,7.553-18.216a.119.119,0,0,0,.056-.112c0-1.583,3.209-3.342,3.027-4.043s7.847-5.1,8.407-8.968,5.878-1.759,5.878-1.759l6.768-7.777c.2,9.479.589,16.114,1.254,17.8,3.209,8.092,4.456,20.752,4.456,20.752s-1.962,9.668,0,12.835c1.205,1.934,4.007,4.007,5.955,5.724-2.025,6.137-1.738,19.183-1.738,19.183v7.5l14.972,4.2s.469-3.748,1.184-3.748,10.222,7.265,10.222,7.265,36.6.469,45.862,0c3.5-.175,4.456-1.681,3.916-3.5-.89-3.034-5.885-6.964-10.327-7.265-7.132-.469-16.163-7.966-16.163-7.966s.7-1.646-3.09-3.986c-2.62-1.611-9.872-8.134-14.355-11.952.21-.287.427-.575.631-.883,0,0-6.06-8.407-4.806-12.135s-.539-9.108-.539-9.108-3.384-10.376-3.384-15.652c0-3.342-.5-22.349-.869-35.829l3.125.259.063-1.345,1.4.126L460,476.9l-.406-14.159c6.383-2.8,11.693-5.4,13.893-7.062,7.482-5.6,13.9-5.976,13.9-5.976s15.147-8.085,17.466-11.427,2.1-27.6,2.1-27.6l-1.247-52v-.042s-1.065-25.138-3.209-30.588c-.785-2.018-2.725-8.744-4.848-16.422a12.686,12.686,0,0,1,3.657.154c.077,1.878.126,3.167.126,3.608,0,2.985,4.274,5.521,4.274,5.521l-3.027-67.258V207.89c9.332,2.971,31.9,3.9,31.9,3.9C550.841,210.93,546.925,196.134,546.925,196.134ZM458.9,138.348h-.049a46.669,46.669,0,0,1,1.3-5.22ZM397.654,369.036c5.528.911,11.91.645,12.394-.427.049-.105.112-.294.2-.539.175.308.343.624.518.946l-.539,10.145v.231l-18.216-.981C393.282,372.981,395.692,370.332,397.654,369.036Zm60.721,51.186-.469-16.429c.813-3.027,1.541-5.773,2.165-8.127.28,1.955.518,3.755.7,5.416C462.5,416.67,459.952,419.711,458.376,420.222ZM510.22,173.9c-1.044.4-5.016-2.1-8.786-4.694,0-.476.035-.946.056-1.4.533-10.726-16.934-17.4-22.279-18.636a19.2,19.2,0,0,1-3.755-1.4,87.58,87.58,0,0,1-8.3-4.687l.07-.2s-6.894-4.365-7.041-9.808a93.13,93.13,0,0,1,5.927-14.383c.133-.273.28-.56.42-.834a27.5,27.5,0,0,0,8.968-4.75c1.072,14.012,21.347,26.07,21.347,26.07l2.165,3.5.511.827c-1.093.645-1.618,1.163-1.247,1.464,1.541,1.233,5.269,8.211,6.81,11.161.42.8.7,1.3.7,1.3s3.314,9.017,5.213,16.562a1.4,1.4,0,0,0-.8-.084Z" transform="translate(827.848 204.645)"/>
    <path id="Path_9" data-name="Path 9" class="cls-3" d="M572.883,159.17l-.238.315-.813,1.086-15.588,11.014-3.307-5.437-2.1-3.5s-31.072-18.636-17.711-36.6,33.1,22.77,33.1,22.77Z" transform="translate(773.018 183.038)"/>
    <rect id="Rectangle_19" data-name="Rectangle 19" class="cls-4" width="0.532" height="4.386" rx="0.266" transform="matrix(0.893, -0.45, 0.45, 0.893, 1313.956, 298.324)"/>
    <rect id="Rectangle_20" data-name="Rectangle 20" class="cls-4" width="0.301" height="1.443" rx="0.151" transform="matrix(0.893, -0.45, 0.45, 0.893, 1296.625, 303.204)"/>
    <rect id="Rectangle_21" data-name="Rectangle 21" class="cls-4" width="0.336" height="2.515" rx="0.168" transform="matrix(0.893, -0.45, 0.45, 0.893, 1297.801, 305.565)"/>
    <rect id="Rectangle_22" data-name="Rectangle 22" class="cls-4" width="0.322" height="2.536" rx="0.161" transform="matrix(0.893, -0.45, 0.45, 0.893, 1299.328, 308.594)"/>
    <rect id="Rectangle_23" data-name="Rectangle 23" class="cls-4" width="17.795" height="36.165" rx="2.24" transform="matrix(0.893, -0.45, 0.45, 0.893, 1294.622, 298.863)"/>
    <path id="Path_10" data-name="Path 10" class="cls-5" d="M531.7,105.3a.63.63,0,0,0-.28.855l.056.119a.638.638,0,0,1-.28.862l-6.74,3.391a.631.631,0,0,1-.855-.28l-.063-.119a.638.638,0,0,0-.855-.287l-1.31.666a1.205,1.205,0,0,0-.539,1.632l14.32,28.424a1.226,1.226,0,0,0,1.639.539l11.756-5.92a1.226,1.226,0,0,0,.539-1.639L534.761,105.1a1.219,1.219,0,0,0-1.639-.539Z" transform="translate(775.739 188.139)"/>
    <rect id="Rectangle_24" data-name="Rectangle 24" class="cls-6" width="2.487" height="0.504" rx="0.252" transform="matrix(0.893, -0.45, 0.45, 0.893, 1301.527, 296.595)"/>
    <circle id="Ellipse_11" data-name="Ellipse 11" class="cls-6" cx="0.287" cy="0.287" r="0.287" transform="translate(1304.152 295.099)"/>
    <path id="Path_11" data-name="Path 11" class="cls-7" d="M548.929,261.28,544.55,378.786s14.713-4.9,16.99-1.226-2.452-58.851-2.452-58.851Z" transform="translate(768.598 141.18)"/>
    <path id="Path_12" data-name="Path 12" class="cls-8" d="M548.929,261.28,544.55,378.786s14.713-4.9,16.99-1.226-2.452-58.851-2.452-58.851Z" transform="translate(768.598 141.18)"/>
    <path id="Path_13" data-name="Path 13" class="cls-9" d="M521.456,797.968c-9.108.469-45.07,0-45.07,0s-9.346-7.237-10.047-7.237-1.163,3.734-1.163,3.734l-14.713-4.2v-7.468s-.469-21.263,3.965-22.188,24.059,0,24.059,0c.7-.231,14.012,12.38,17.746,14.713s3.034,3.972,3.034,3.972,8.877,7.468,15.883,7.938c4.365.294,9.276,4.2,10.152,7.237C525.835,796.293,524.889,797.792,521.456,797.968Z" transform="translate(796.771 -8.192)"/>
    <path id="Path_14" data-name="Path 14" class="cls-10" d="M521.462,807.688c-9.108.469-45.07,0-45.07,0s-9.346-7.237-10.047-7.237-1.163,3.734-1.163,3.734l-14.713-4.2V792.66l13.774,4.988,10.978,6.537h50.086C525.841,806.013,524.9,807.513,521.462,807.688Z" transform="translate(796.765 -17.912)"/>
    <path id="Path_15" data-name="Path 15" class="cls-11" d="M493.43,794.926s11.21-10.74,18.706-7.707" transform="translate(783.903 -16.122)"/>
    <path id="Path_16" data-name="Path 16" class="cls-9" d="M379.256,720.729c.469,1.4-3.734,3.272-3.734,3.272v18.447s1.906,11.077-.848,14.306a2.305,2.305,0,0,1-1.723.876c-5.135.231-16.345-34.8-16.345-34.8l-.7-20.24-2.8-1.941-3.972-25.691h7.244s.764-.469,1.99-1.1c3.5-1.787,10.838-4.9,14.825-1.934l13.543,30.511S378.794,719.327,379.256,720.729Z" transform="translate(827.106 18.603)"/>
    <path id="Path_17" data-name="Path 17" class="cls-10" d="M374.674,758.106a2.305,2.305,0,0,1-1.723.876c-5.135.231-16.345-34.8-16.345-34.8l-.7-20.241L353.1,702,349.13,676.31h7.244s.764-.469,1.99-1.1l1.745,26.322.932,22.651S369.84,748.844,374.674,758.106Z" transform="translate(827.106 17.251)"/>
    <path id="Path_18" data-name="Path 18" class="cls-12" d="M513.192,564.8c-2.277,3.328-17.165,11.385-17.165,11.385s-6.305.35-13.662,5.955c-3.8,2.9-17.025,8.652-28.9,13.536-11.091,4.561-21.018,8.358-21.018,8.358l-11.434,13.311L412.3,627.487s-5.254-2.1-5.78,1.752-8.407,8.232-8.232,8.933-2.978,2.452-2.978,4.029-11.735-11.385-11.56-19.267-5.955-13.311-5.955-13.311,1.576-2.8,4.029-2.277a5.637,5.637,0,0,0,5.254-1.4c.7-.876,3.678,1.226,5.079.525s7.006-14.538,7.006-14.538l21.838-14.65,43.438-29.117,2-1.345s5.78,2.648,3.433-19.049c-.455-4.2-1.219-9.311-2.382-15.532-7.181-38.358,18.566-42.737,18.566-42.737l22.595,7.531,5.43,8.407v.042l1.226,51.8S515.469,561.476,513.192,564.8Z" transform="translate(818.522 78.84)"/>
    <path id="Path_19" data-name="Path 19" class="cls-10" d="M471.7,622.944s.07,2.487.175,6.355c-11.091,4.561-21.018,8.358-21.018,8.358l-11.434,13.312c-.189-11.034-.147-25.369,0-40.061l43.438-29.117C477.49,601.708,471.7,622.944,471.7,622.944Z" transform="translate(800.109 45.221)"/>
    <path id="Path_20" data-name="Path 20" class="cls-10" d="M551.85,485.469v.042l-33.979.659s-5.955,23.3-6.831,28.2c-.217,1.205-1.534,6.354-3.4,13.431-.455-4.2-1.219-9.311-2.382-15.532-7.181-38.358,18.566-42.737,18.566-42.737l22.594,7.531Z" transform="translate(780.74 78.831)"/>
    <path id="Path_21" data-name="Path 21" class="cls-12" d="M442.08,396.356,437.7,480.429s-3.153,123.482,0,131.539,4.379,20.668,4.379,20.668-1.927,9.633,0,12.786,8.057,6.656,7.882,8.407,18.741,11.21,28.55-3.853c0,0-5.955-8.407-4.729-12.085s-.525-9.108-.525-9.108-3.328-10.334-3.328-15.609S468.7,563.78,468.7,563.78s19.091-70.061,19.967-74.965,6.831-28.2,6.831-28.2l36.081-.7s-1.051-25.047-3.153-30.476-12.436-45.189-12.436-45.189Z" transform="translate(801.007 104.363)"/>
    <path id="Path_22" data-name="Path 22" class="cls-13" d="M193.968,469.89l-3.132.9-.126,3.1,93.9,1.212v-1.219Z" transform="translate(988.902 113.249)"/>
    <path id="Path_23" data-name="Path 23" class="cls-3" d="M499.66,141.06c-13.662,27.709-5.178,33.5-3.825,34.218-2.894-1.345-40.5-19.014-35.556-23.5,3.216-2.922,5.969-15.631,7.588-24.738.96-5.437,1.52-9.591,1.52-9.591l39.465,7.237A186.047,186.047,0,0,0,499.66,141.06Z" transform="translate(793.962 184.242)"/>
    <path id="Path_24" data-name="Path 24" class="cls-10" d="M582.566,175.284l-.813,1.086-15.617,11.014-3.307-5.437c4.813-2.8,19.246-7.707,19.246-7.707Z" transform="translate(763.125 167.239)"/>
    <path id="Path_25" data-name="Path 25" class="cls-14" d="M596.608,200.864c-1.4,4.9-25.047,0-25.047,0l-2.452-3.853s-.245-.49-.659-1.289c-1.513-2.936-5.178-9.886-6.691-11.119-1.927-1.576,20.668-9.283,20.668-9.283l6.922,15.063a27.9,27.9,0,0,1,4.694,3.972C595.8,196.254,597.246,198.629,596.608,200.864Z" transform="translate(763.48 166.916)"/>
    <path id="Path_26" data-name="Path 26" class="cls-7" d="M555.55,215s14.012,11.056,16.114,10.257S607.745,247.4,607.745,247.4s3.853,14.713-12.085,15.588c0,0-33.8-1.4-35.205-6.305S555.55,215,555.55,215Z" transform="translate(765.305 155.036)"/>
    <path id="Path_27" data-name="Path 27" class="cls-10" d="M494.538,183.271,479.3,199.035l21.368,135.917,8.407-4.9s21.719,9.633,23.47.7,1.268-44.138,1.268-44.138l-2.844-63.6s-9.984-22.244-9.984-22.945-14.4-11.56-14.4-11.56l-6.8-5.255Z" transform="translate(788.133 164.541)"/>
    <path id="Path_28" data-name="Path 28" class="cls-14" d="M494.538,180.271,479.3,196.035l21.368,135.917,8.407-4.9s21.719,9.633,23.47.7,1.268-44.138,1.268-44.138l-2.844-63.6s-9.984-22.244-9.984-22.945-14.4-11.56-14.4-11.56l-6.8-5.255Z" transform="translate(788.133 165.44)"/>
    <path id="Path_29" data-name="Path 29" class="cls-10" d="M500.5,182.249l-4.2,8.582,4.2,4.435s15.063,30.42,12.085,48.461l3.153,59.376,10.159,9.984,8.057-9.3L530.1,249.836s-10.334-44.488-21.193-58.325l-3.153-12.261Z" transform="translate(783.044 165.739)"/>
    <path id="Path_30" data-name="Path 30" class="cls-9" d="M500.5,180.249l-4.2,8.582,4.2,4.435s15.063,30.42,12.085,48.461l3.153,59.376,10.159,9.984,8.057-9.3L530.1,247.836s-10.334-44.488-21.193-58.325l-3.153-12.261Z" transform="translate(783.044 166.338)"/>
    <path id="Path_31" data-name="Path 31" class="cls-10" d="M512.285,124.672c-3.825,6.165-6.838,11.6-9.192,16.373a26.938,26.938,0,0,1-7.637,1.1c-8.659,0-13.648-5.99-18.552-12.352-1.121-1.443-4.806-1.107-5.6-2.8.96-5.437,1.52-9.591,1.52-9.591Z" transform="translate(790.529 184.257)"/>
    <path id="Path_32" data-name="Path 32" class="cls-3" d="M521.157,101.9a26.854,26.854,0,1,1-5.107-15.757A26.854,26.854,0,0,1,521.157,101.9Z" transform="translate(791.683 196.938)"/>
    <path id="Path_33" data-name="Path 33" class="cls-10" d="M484,183.972,461.93,157.349s-2.039-.82,4.848-8.029c0,0,25.292,19.715,26.861,23.064S484,183.972,484,183.972Z" transform="translate(793.418 174.7)"/>
    <path id="Path_34" data-name="Path 34" class="cls-14" d="M483,181.972,460.93,155.349s-2.039-.82,4.848-8.029c0,0,25.292,19.715,26.861,23.064S483,181.972,483,181.972Z" transform="translate(793.718 175.299)"/>
    <path id="Path_35" data-name="Path 35" class="cls-7" d="M553.585,361.293s-4.2-2.522-4.2-5.5-2.1-45.014-2.1-45.014-3.083-25.089-6.305-45.028h0c-1.892-11.749-3.832-21.719-5.205-23.695l-.056-.084c-3.678-4.729-2.978-27.849-25.922-61.653a126.709,126.709,0,0,0,14.012,8.547,19.212,19.212,0,0,0,3.692,1.4c5.255,1.226,22.419,7.882,21.894,18.566s1.226,35.205,1.226,35.205v50.254Z" transform="translate(779.005 165.419)"/>
    <path id="Path_36" data-name="Path 36" class="cls-10" d="M599.5,209c-1.4,4.9-25.047,0-25.047,0L572,205.145s-.245-.49-.659-1.289a.467.467,0,0,1-.035-.084c13.739.96,21.4-.042,25.628-1.282C598.69,204.389,600.14,206.764,599.5,209Z" transform="translate(760.586 158.781)"/>
    <path id="Path_37" data-name="Path 37" class="cls-7" d="M572.3,204.564s7.356,20.318,6.306,25.4,16.99,25.047,16.99,25.047L612.76,243.1s-6.48-12.961-5.6-16.815S602.6,214.2,602.6,214.2l.35-13.648S599.8,206.47,572.3,204.564Z" transform="translate(760.29 159.362)"/>
    <path id="Path_38" data-name="Path 38" class="cls-10" d="M516.163,86.285l-13.312.5a14.825,14.825,0,0,0-3.853.483c-4.757,1.464-6.95,6.523-7.125,11.07s-2.8,9.64-7.9,10.04a1.969,1.969,0,0,1-1.45-.322,2.4,2.4,0,0,1-.617-1.24,27.113,27.113,0,0,0-3.349-7.482c-2.1.378-3.657,2.375-4.2,4.463a25.108,25.108,0,0,0-.392,6.453,41.761,41.761,0,0,1-.792,8.19,26.853,26.853,0,1,1,43.012-32.159Z" transform="translate(791.569 196.799)"/>
    <path id="Path_39" data-name="Path 39" class="cls-15" d="M494.562,79.672a14.824,14.824,0,0,1,3.853-.483l16.163-.6c2.368-.091,5.009-.3,6.6-2.06a6.173,6.173,0,0,0,1.233-2.3,9.949,9.949,0,0,0-1.044-8.148c-1.871-2.978-5.149-4.708-8.274-6.305a96.144,96.144,0,0,0-8.947-4.2,47.641,47.641,0,0,0-35.1.5,14.166,14.166,0,0,0-3.125,1.674,16.149,16.149,0,0,0-3.4,4.064L457.2,69.821a11.036,11.036,0,0,0-1.674,3.237c-1,3.8,2.1,7.609,1.78,11.525-.182,1.948-1.212,3.734-1.4,5.682-.252,2.515.9,4.9,2.025,7.2l9.346,18.853a41.77,41.77,0,0,0,2.263-13.662,24.2,24.2,0,0,1,.392-6.453c.574-2.088,2.1-4.085,4.2-4.463a27.021,27.021,0,0,1,3.356,7.482,2.368,2.368,0,0,0,.617,1.24,1.962,1.962,0,0,0,1.45.322c5.121-.4,7.707-5.444,7.9-10.04S489.805,81.136,494.562,79.672Z" transform="translate(795.312 203.699)"/>
    <path id="Path_40" data-name="Path 40" class="cls-13" d="M190.89,470.371l6.544-1.871,98.666,5.374-10.859,1.4Z" transform="translate(988.849 113.665)"/>
    <path id="Path_41" data-name="Path 41" class="cls-10" d="M190.89,470.371l6.544-1.871,98.666,5.374-10.859,1.4Z" transform="translate(988.849 113.665)"/>
    <path id="Path_42" data-name="Path 42" class="cls-13" d="M337.375,570.752l-13.017-1.212-4.568-.42v-72.4L321,479.911l.266-3.741h13.431Z" transform="translate(950.257 111.369)"/>
    <path id="Path_43" data-name="Path 43" class="cls-10" d="M333.816,569.177l-10.383-1.149-3.643-.4V498.984l.96-15.932.21-3.552h10.712Z" transform="translate(950.257 110.372)"/>
    <path id="Path_44" data-name="Path 44" class="cls-13" d="M401.42,514.1s6.481-14.215,9.2-14.657a41.807,41.807,0,0,1,7.707,0l-.441,4.12s-6.656.525-8.758,11.644Z" transform="translate(811.45 69.933)"/>
    <path id="Path_45" data-name="Path 45" class="cls-10" d="M401.42,514.1s6.481-14.215,9.2-14.657a41.807,41.807,0,0,1,7.707,0l-.441,4.12s-6.656.525-8.758,11.644Z" transform="translate(811.45 69.933)"/>
    <path id="Path_46" data-name="Path 46" class="cls-13" d="M435.766,497.41s17.424,8.666,15.147,18.825l-9.458-.525s-4.554-15.147-8.141-15.939S435.766,497.41,435.766,497.41Z" transform="translate(802.242 70.484)"/>
    <path id="Path_47" data-name="Path 47" class="cls-7" d="M490.354,258.16v.511L490,317.011s-8.933,49.042-11.385,50.969-56.224-3.328-56.224-3.328L398.049,200.535c-.175-28.024,19.617-27.148,19.617-27.148,2.627-4.2,15.238-7.531,15.238-7.531l7.006-6.831.224-.315a6.228,6.228,0,0,1,1.766-1.745h0c1.443-.834,2.361.266,2.886,1.352a8.145,8.145,0,0,1,.546,1.59C473.715,180.722,490.354,258.16,490.354,258.16Z" transform="translate(812.46 172.499)"/>
    <path id="Path_48" data-name="Path 48" class="cls-10" d="M504.25,259.285v.511c-8.807-16.114-42.737-77.165-52.02-80.205l3.573-2.452s2.382-1.4-2-2.8c0,0-6.831.876-7.006-7.356l7.23-7.146,1.766-1.745h0l2.886,1.352a8.149,8.149,0,0,1,.546,1.59C487.61,181.848,504.25,259.285,504.25,259.285Z" transform="translate(797.864 172.074)"/>
    <path id="Path_49" data-name="Path 49" class="cls-12" d="M505.25,258.285v.511c-8.807-16.114-42.737-77.165-52.02-80.205l3.573-2.452s2.382-1.4-2-2.8c0,0-6.831.876-7.006-7.356l7.23-7.146,1.766-1.745h0l2.887,1.352a8.149,8.149,0,0,1,.546,1.59C488.61,180.848,505.25,258.285,505.25,258.285Z" transform="translate(797.564 172.374)"/>
    <path id="Path_50" data-name="Path 50" class="cls-10" d="M536.778,243.017l-.056-.084c-3.678-4.729-2.978-27.849-25.922-61.653a126.711,126.711,0,0,0,14.012,8.547l-1.618,5.339,3.5,1.871Z" transform="translate(778.703 165.131)"/>
    <path id="Path_51" data-name="Path 51" class="cls-12" d="M535.779,242.017l-.056-.084c-3.678-4.729-2.978-27.849-25.922-61.653a126.7,126.7,0,0,0,14.012,8.547l-1.618,5.339,3.5,1.871Z" transform="translate(779.002 165.431)"/>
    <path id="Path_52" data-name="Path 52" class="cls-10" d="M507.746,172.58l-1.436,6.067s1.051,6.074,7.349,6.6l1.016-2.893S507.879,178,507.746,172.58Z" transform="translate(780.047 167.736)"/>
    <path id="Path_53" data-name="Path 53" class="cls-14" d="M507.746,171.58l-1.436,6.067s1.051,6.074,7.349,6.6l1.016-2.894S507.879,177,507.746,171.58Z" transform="translate(780.047 168.035)"/>
    <path id="Path_54" data-name="Path 54" class="cls-10" d="M328.477,477.57l-4.12,92.389-4.568-.42v-72.4L321,480.33Z" transform="translate(950.257 110.95)"/>
    <path id="Path_55" data-name="Path 55" class="cls-13" d="M191.032,513.252l-2.8,49.974,95.282,7.945,4.176-93.6Z" transform="translate(989.645 110.95)"/>
    <path id="Path_56" data-name="Path 56" class="cls-10" d="M189.23,517.308l1.864-44.138,97.594,4.484-4.645,46.66Z" transform="translate(989.346 112.267)"/>
    <path id="Path_57" data-name="Path 57" class="cls-13" d="M188.23,515.308l1.864-44.138,97.594,4.484-4.645,46.66Z" transform="translate(989.645 112.866)"/>
    <rect id="Rectangle_25" data-name="Rectangle 25" class="cls-16" width="11.735" height="13.662" transform="translate(1218.917 628.23)"/>
    <path id="Path_58" data-name="Path 58" class="cls-3" d="M411.2,455.78l-1.751,4.729s-3.678,25.922.876,29.075,18.041,3.328,18.741,1.752,5.6-19.442,5.6-19.442,4.379,13.136,6.656,12.085-5.255-26.02-5.255-26.02Z" transform="translate(809.466 82.948)"/>
    <path id="Path_59" data-name="Path 59" class="cls-10" d="M410.05,423.749V448.8s18.566,3.5,26.623-2.55c0,0-7.531-24.248-4.729-30.378S410.05,423.749,410.05,423.749Z" transform="translate(808.866 95.362)"/>
    <path id="Path_60" data-name="Path 60" class="cls-14" d="M410.05,422.749V447.8s18.566,3.5,26.623-2.55c0,0-7.531-24.248-4.729-30.378S410.05,422.749,410.05,422.749Z" transform="translate(808.866 95.661)"/>
    <path id="Path_61" data-name="Path 61" class="cls-10" d="M404.11,213.044l-4.9,2.627s-.876,10.509-1.4,11.91,0,15.588,0,15.588l-.238,28.725s-.757,15.238,0,20.668,1.6,26.1,1.6,26.1,4.736,20.142,2.985,27.324.175,23.3,3.153,21.894,30.476-6.831,31.878-7.882.7-10.859,0-12.085-4.9-17.865-4.554-21.719-1.226-37.658-1.226-37.658,2.627-36.081,3.678-44.488-2.1-33.1-4.9-33.454S419.173,191.15,404.11,213.044Z" transform="translate(812.705 158.764)"/>
    <path id="Path_62" data-name="Path 62" class="cls-7" d="M402.11,211.044l-4.9,2.627s-.876,10.509-1.4,11.91,0,15.588,0,15.588l-.238,28.725s-.757,15.238,0,20.668,1.6,26.1,1.6,26.1,4.736,20.142,2.985,27.324.175,23.3,3.153,21.894,30.476-6.831,31.878-7.882.7-10.859,0-12.085-4.9-17.865-4.554-21.719-1.226-37.658-1.226-37.658,2.627-36.081,3.678-44.488-2.1-33.1-4.9-33.454S417.173,189.15,402.11,211.044Z" transform="translate(813.304 159.363)"/>
    <g id="Group_18" data-name="Group 18" class="cls-17" transform="translate(1251.628 270.073)">
      <path id="Path_63" data-name="Path 63" d="M473.5,104.77c-2.1.378-3.657,2.375-4.2,4.463a25.107,25.107,0,0,0-.392,6.453,41.764,41.764,0,0,1-2.256,13.662l-9.353-18.853c-.182-.371-.371-.757-.553-1.142a25.476,25.476,0,0,0,1.6,3.769l9.353,18.853a41.764,41.764,0,0,0,2.256-13.662,24.5,24.5,0,0,1,.392-6.453c.568-2.088,2.1-4.085,4.2-4.463a28.121,28.121,0,0,1,1.815,3.314A27.322,27.322,0,0,0,473.5,104.77Z" transform="translate(-456.74 -82.035)"/>
      <path id="Path_64" data-name="Path 64" d="M530.815,72.32a9.92,9.92,0,0,1-.168,5.22,6.186,6.186,0,0,1-1.24,2.305c-1.59,1.759-4.2,1.969-6.6,2.06l-16.156.6a14.874,14.874,0,0,0-3.86.483c-4.75,1.464-6.95,6.523-7.125,11.07s-2.8,9.64-7.9,10.04a1.969,1.969,0,0,1-1.45-.322h0c.161.455.315.918.448,1.4a2.312,2.312,0,0,0,.61,1.24,1.969,1.969,0,0,0,1.45.322c5.128-.4,7.707-5.444,7.9-10.04s2.375-9.605,7.125-11.07a14.875,14.875,0,0,1,3.86-.483l16.156-.6c2.368-.091,5.009-.3,6.6-2.06a6.186,6.186,0,0,0,1.24-2.305,9.949,9.949,0,0,0-.89-7.861Z" transform="translate(-465.596 -72.32)"/>
    </g>
    <path id="Path_65" data-name="Path 65" class="cls-10" d="M512.28,481.195s6.067-3.153,8.407-2.978,23.351,26.9,23.351,26.9Z" transform="translate(778.259 76.232)"/>
    <path id="Path_66" data-name="Path 66" class="cls-10" d="M418.834,224.35s-11.091,4.736-10.8,8.008S418.834,224.35,418.834,224.35Z" transform="translate(809.471 152.236)"/>
    <path id="Path_67" data-name="Path 67" class="cls-10" d="M411.707,246.45s-11.637,14.881-9.066,15.378S411.707,246.45,411.707,246.45Z" transform="translate(811.196 145.62)"/>
    <path id="Path_68" data-name="Path 68" class="cls-10" d="M468.108,278.28s1.065,33.279-7.468,37.482Z" transform="translate(793.72 136.09)"/>
    <path id="Path_69" data-name="Path 69" class="cls-10" d="M408,403.462s8.211-4.666,10.1-3.734S408,403.462,408,403.462Z" transform="translate(809.48 99.766)"/>
    <path id="Path_70" data-name="Path 70" class="cls-10" d="M410.05,413.873s5.184.371,7.644-.7S410.05,413.873,410.05,413.873Z" transform="translate(808.866 95.807)"/>
    <path id="Path_71" data-name="Path 71" class="cls-10" d="M586.7,239.41s6.432,18.475,10.138,18.475" transform="translate(755.978 147.727)"/>
    <path id="Path_72" data-name="Path 72" class="cls-10" d="M456.16,743.829s12.064-3.272,13.844,0S456.16,743.829,456.16,743.829Z" transform="translate(795.061 -2.857)"/>
    <path id="Path_73" data-name="Path 73" class="cls-10" d="M400.954,675.21s-3.006,4.6.967,6S400.954,675.21,400.954,675.21Z" transform="translate(811.916 17.251)"/>
    <path id="Path_74" data-name="Path 74" class="cls-10" d="M515.8,583.53s9.108,8.113,13.41,8.351S515.8,583.53,515.8,583.53Z" transform="translate(777.206 44.7)"/>
    <path id="Path_75" data-name="Path 75" class="cls-5" d="M1005.361,109.077s-58.984-3.58-52.034,37.756c0,0-1.4,7.307,5.241,10.628,0,0,.105-3.069,6.053-2.025a27.61,27.61,0,0,0,6.4.308,13.367,13.367,0,0,0,7.826-3.216h0s16.583-6.845,23.029-33.951c0,0,4.771-5.913,4.582-7.433l-9.956,4.253s3.4,7.181.7,13.15c0,0-.322-12.891-2.235-12.611-.392.063-5.177,2.487-5.177,2.487s5.857,12.513,1.436,21.6c0,0,1.682-15.413-3.258-20.7l-7.006,4.092s6.845,12.919,2.207,23.463c0,0,1.191-16.17-3.678-22.468l-6.347,4.953s6.424,12.737,2.508,21.481c0,0-.511-18.825-3.888-20.247,0,0-5.549,4.9-6.4,6.908,0,0,4.4,9.248,1.667,14.124,0,0-1.674-12.541-3.048-12.611,0,0-5.535,8.309-6.109,14.012,0,0,.238-8.477,4.771-14.8,0,0-5.353.918-8.477,4.393,0,0,.862-5.878,9.808-6.39,0,0,4.568-6.305,5.794-6.691,0,0-8.933-.743-14.348,1.653,0,0,4.771-5.542,15.988-3.02l6.305-5.114s-11.763-1.611-16.744.168c0,0,5.738-4.9,18.433-1.331l6.824-4.085s-10.026-2.158-15.995-1.4c0,0,6.305-3.4,17.992.287l4.9-2.193s-7.342-1.443-9.493-1.667-2.27-.827-2.27-.827a25.5,25.5,0,0,1,13.8,1.534S1005.543,109.7,1005.361,109.077Z" transform="translate(646.383 186.772)"/>
    <path id="Path_76" data-name="Path 76" class="cls-5" d="M850.574,97.785s-26.623-1.6-23.512,17.074a4.556,4.556,0,0,0,2.368,4.8s.049-1.4,2.732-.918a11.945,11.945,0,0,0,2.9.14,6.039,6.039,0,0,0,3.5-1.457h0s7.489-3.1,10.4-15.343c0,0,2.158-2.669,2.1-3.356l-4.512,1.92s1.534,3.244.329,5.941c0,0-.147-5.822-1.016-5.689-.175,0-2.333,1.128-2.333,1.128s2.641,5.654.645,9.759c0,0,.764-6.964-1.471-9.353l-3.16,1.85s3.09,5.836.995,10.6c0,0,.539-7.307-1.66-10.152l-2.866,2.242s2.9,5.752,1.128,9.7c0,0-.231-8.505-1.752-9.15a17.57,17.57,0,0,0-2.893,3.125s1.99,4.2.757,6.383c0,0-.757-5.668-1.4-5.7,0,0-2.5,3.755-2.76,6.305a13.591,13.591,0,0,1,2.158-6.684,7.51,7.51,0,0,0-3.832,1.983s.392-2.655,4.449-2.887c0,0,2.067-2.851,2.62-3.02,0,0-4.036-.343-6.488.743,0,0,2.158-2.5,7.223-1.4l2.8-2.312s-5.318-.7-7.567.077c0,0,2.592-2.214,8.323-.6l3.09-1.843a28.075,28.075,0,0,0-7.23-.624s2.844-1.534,8.134.126l2.2-.988s-3.314-.652-4.288-.757-1.023-.371-1.023-.371a11.567,11.567,0,0,1,6.235.7S850.658,98.08,850.574,97.785Z" transform="translate(684.091 190.139)"/>
    <ellipse id="Ellipse_12" data-name="Ellipse 12" class="cls-1" cx="18.867" cy="3.188" rx="18.867" ry="3.188" transform="translate(1620.265 757.197)"/>
    <ellipse id="Ellipse_13" data-name="Ellipse 13" class="cls-1" cx="18.867" cy="3.188" rx="18.867" ry="3.188" transform="translate(1046 709.745)"/>
    <ellipse id="Ellipse_14" data-name="Ellipse 14" class="cls-1" cx="18.867" cy="3.188" rx="18.867" ry="3.188" transform="translate(1607.136 695.453)"/>
    <ellipse id="Ellipse_15" data-name="Ellipse 15" class="cls-1" cx="18.867" cy="3.188" rx="18.867" ry="3.188" transform="translate(1118.975 726.847)"/>
    <ellipse id="Ellipse_16" data-name="Ellipse 16" class="cls-1" cx="18.867" cy="3.188" rx="18.867" ry="3.188" transform="translate(1523.035 729.586)"/>
    <ellipse id="Ellipse_17" data-name="Ellipse 17" class="cls-5" cx="28.171" cy="4.764" rx="28.171" ry="4.764" transform="translate(1569.668 789.783)"/>
    <path id="Path_77" data-name="Path 77" class="cls-5" d="M956.387,804.252a8.183,8.183,0,0,0,2.683-4.05,3.614,3.614,0,0,0-1.878-4.127c-1.724-.659-3.566.532-4.96,1.737s-3,2.585-4.827,2.333a7.356,7.356,0,0,0,2.277-6.88,2.894,2.894,0,0,0-.638-1.4c-.953-1.023-2.69-.581-3.832.224-3.643,2.564-4.659,7.51-4.68,11.966a22.949,22.949,0,0,1-.07-4.9c-.014-1.618-.455-3.5-1.85-4.358a5.6,5.6,0,0,0-2.8-.666c-1.639-.056-3.461.105-4.575,1.3-1.4,1.485-1.03,3.986.175,5.6s3.048,2.662,4.743,3.8a10.431,10.431,0,0,1,3.384,3.23,2.685,2.685,0,0,1,.252.574h10.271a28.655,28.655,0,0,0,6.327-4.386Z" transform="translate(653.096 -17.496)"/>
    <path id="Path_78" data-name="Path 78" class="cls-5" d="M291.192,617s3.853,5.03-1.773,12.611-10.264,14.012-8.407,18.748c0,0,8.491-14.11,15.413-14.306S298.794,625.505,291.192,617Z" transform="translate(847.624 34.679)"/>
    <path id="Path_79" data-name="Path 79" class="cls-10" d="M291.289,617a6.048,6.048,0,0,1,.785,1.576c6.74,7.917,10.334,15.308,3.853,15.5-6.032.168-13.269,10.957-15.007,13.683a6.471,6.471,0,0,0,.2.624s8.491-14.11,15.413-14.306S298.891,625.505,291.289,617Z" transform="translate(847.527 34.679)"/>
    <path id="Path_80" data-name="Path 80" class="cls-18" d="M305.553,625.69c0,1.773-.2,3.209-.441,3.209s-.441-1.4-.441-3.209.245-.939.49-.939S305.553,623.917,305.553,625.69Z" transform="translate(840.417 32.421)"/>
    <path id="Path_81" data-name="Path 81" class="cls-18" d="M308.143,628.682c-1.555.848-2.915,1.359-3.027,1.149s1.044-1.079,2.6-1.927.946-.231,1.058,0S309.7,627.842,308.143,628.682Z" transform="translate(840.285 31.544)"/>
    <path id="Path_82" data-name="Path 82" class="cls-5" d="M263.014,617s-3.853,5.03,1.773,12.611,10.264,14.012,8.407,18.748c0,0-8.484-14.11-15.413-14.306S255.412,625.505,263.014,617Z" transform="translate(855.478 34.679)"/>
    <path id="Path_83" data-name="Path 83" class="cls-10" d="M263.007,617a6.178,6.178,0,0,0-.792,1.576c-6.74,7.917-10.327,15.308-3.853,15.5,6.039.168,13.276,10.957,15.014,13.683a5.019,5.019,0,0,1-.21.624s-8.484-14.11-15.413-14.306S255.406,625.505,263.007,617Z" transform="translate(855.484 34.679)"/>
    <path id="Path_84" data-name="Path 84" class="cls-18" d="M256.49,625.69c0,1.773.2,3.209.448,3.209s.441-1.4.441-3.209-.245-.939-.49-.939S256.49,623.917,256.49,625.69Z" transform="translate(854.841 32.421)"/>
    <path id="Path_85" data-name="Path 85" class="cls-18" d="M252.594,628.682c1.555.848,2.908,1.359,3.027,1.149s-1.051-1.079-2.606-1.927-.939-.231-1.058,0S251.031,627.842,252.594,628.682Z" transform="translate(856.293 31.544)"/>
    <path id="Path_86" data-name="Path 86" class="cls-19" d="M258.24,658.4s10.761-.329,14.012-2.641,16.555-5.065,17.354-1.359,16.177,18.419,4.028,18.517-28.234-1.892-31.471-3.867S258.24,658.4,258.24,658.4Z" transform="translate(854.318 24.026)"/>
    <path id="Path_87" data-name="Path 87" class="cls-20" d="M293.845,674.1c-12.148.1-28.234-1.892-31.471-3.867-2.459-1.5-3.447-6.887-3.776-9.374h-.357s.7,8.68,3.916,10.649,19.323,3.965,31.471,3.867c3.5,0,4.715-1.275,4.652-3.125C297.789,673.38,296.451,674.08,293.845,674.1Z" transform="translate(854.318 21.548)"/>
  </g>
</svg>
