<svg xmlns="http://www.w3.org/2000/svg" xmlns:xlink="http://www.w3.org/1999/xlink" viewBox="0 0 432.769 298.715">
  <defs>
    <style>
      .cls-1, .cls-3 {
        fill: #3480e3;
      }

      .cls-1, .cls-16, .cls-7 {
        opacity: 0.1;
      }

      .cls-2 {
        fill: #30374e;
      }

      .cls-4 {
        fill: #444053;
      }

      .cls-5 {
        fill: #afc0e0;
      }

      .cls-6 {
        fill: #fff;
        opacity: 0.2;
      }

      .cls-8 {
        fill: #e3e8f4;
      }

      .cls-9 {
        fill: none;
        stroke: #535461;
        stroke-miterlimit: 10;
        stroke-width: 2px;
      }

      .cls-10 {
        opacity: 0.25;
      }

      .cls-11 {
        fill: url(#linear-gradient);
      }

      .cls-12 {
        fill: #434175;
      }

      .cls-13 {
        opacity: 0.05;
      }

      .cls-14 {
        fill: #565387;
      }

      .cls-15 {
        fill: #ee8e9e;
      }
    </style>
    <linearGradient id="linear-gradient" x1="0.5" y1="1" x2="0.5" gradientUnits="objectBoundingBox">
      <stop offset="0" stop-color="gray" stop-opacity="0.251"/>
      <stop offset="0.54" stop-color="gray" stop-opacity="0.122"/>
      <stop offset="1" stop-color="gray" stop-opacity="0.102"/>
    </linearGradient>
  </defs>
  <g id="undraw_maker_launch_crhe" transform="translate(-414 -1266)">
    <path id="Path_463" data-name="Path 463" class="cls-1" d="M33.043,273.893c7.649-12.495,24.948-10.317,37.215-3.794s24.507,16.259,38.008,14.388c11.383-1.578,20.717-11.5,25.76-22.956s6.522-24.363,7.941-37.01q2.675-23.832,5.346-47.695c.653-5.817,1.423-11.956,4.694-16.558,4.322-6.071,12.244-7.938,19.021-6.113s12.555,6.72,17.5,12.18c15.837,17.484,24.811,41.119,38.656,60.576,2.819,3.961,6,7.877,10.214,9.789,6.071,2.751,13.041.8,18.972-2.258,19.351-9.975,32.35-30.332,45.126-49.326,6.215-9.232,13.792-19.1,24.132-20.11,10.878-1.081,20.322,8.188,26.716,18,20.52,31.584,24.917,74.7,49.706,102.249a40.3,40.3,0,0,0,10.385,8.693,26.805,26.805,0,0,0,4.022,1.764c21.628,7.486,28.837,37.537,12.84,55.355-.345.379-.7.759-1.055,1.138-2.375,2.508-5.065,4.879-8.275,5.627-2.986.691-6.071-.106-9.03-.968-18.918-5.521-37.609-13.959-57.169-13.549-19.032.379-37.086,9.171-55.905,12.335-12.654,2.129-25.528,1.7-38.323,1.245q-63.919-2.3-127.812-5.35c-21.142-.971-42.291-1.9-63.43-2.979-16.285-.846-26.659-2.709-28.548-21.609C38.093,310.413,23.235,289.92,33.043,273.893Z" transform="translate(384.281 1149.366)"/>
    <ellipse id="Ellipse_70" data-name="Ellipse 70" class="cls-2" cx="102.443" cy="14.316" rx="102.443" ry="14.316" transform="translate(611.271 1536.083)"/>
    <path id="Path_464" data-name="Path 464" class="cls-3" d="M178.46,642.827s5.008-1.138,8.291,2.227c0,0-2.11,1.9-7.073-.2Z" transform="translate(291.977 845.812)"/>
    <path id="Path_465" data-name="Path 465" class="cls-3" d="M174.2,643s-2.967,4.2-1.085,8.518c0,0,2.565-1.233,2.493-6.621Z" transform="translate(295.68 845.59)"/>
    <path id="Path_466" data-name="Path 466" class="cls-3" d="M168.2,623.853s1.78-3.851,10.245.8c0,0-.911,2.573-4.508,2.61S169.262,625.746,168.2,623.853Z" transform="translate(298.344 858.4)"/>
    <path id="Path_467" data-name="Path 467" class="cls-3" d="M160.223,625.68s-4.238-.2-4,9.455c0,0,2.705.379,4.394-2.8S161.411,627.512,160.223,625.68Z" transform="translate(305.782 856.339)"/>
    <path id="Path_468" data-name="Path 468" class="cls-3" d="M159,599.442s1.9-6.708,10.8-2.61c0,0-1.556,6.143-9.789,4.8Z" transform="translate(304.053 875.063)"/>
    <path id="Path_469" data-name="Path 469" class="cls-3" d="M150.29,574.812s4.014-6.921,12.328-1.305c0,0-2.349,6.4-11.493,3.624Z" transform="translate(309.458 890.079)"/>
    <path id="Path_470" data-name="Path 470" class="cls-3" d="M146.15,551.01s4.792-6.431,13.037-.876c0,0-4.576,5.669-12.935,2.428Z" transform="translate(312.028 904.623)"/>
    <path id="Path_471" data-name="Path 471" class="cls-3" d="M142.41,526.914s4.842-6.7,12.745-1.2c0,0-5.57,6.006-12.646,2.683Z" transform="translate(314.349 919.718)"/>
    <path id="Path_472" data-name="Path 472" class="cls-3" d="M142.23,502.842s4.99-8.549,12.388-3.479c0,0-5.471,7.425-12.282,5.031Z" transform="translate(314.46 935.723)"/>
    <path id="Path_473" data-name="Path 473" class="cls-3" d="M144,478.435s5.312-8.5,12.555-2.724c0,0-6.488,7.494-12.472,4.231Z" transform="translate(313.362 950.652)"/>
    <path id="Path_474" data-name="Path 474" class="cls-3" d="M147.351,453.94s6.45-8.086,12.73-5.452c0,0-6.708,8.575-12.9,7.5Z" transform="translate(311.388 966.625)"/>
    <path id="Path_475" data-name="Path 475" class="cls-3" d="M151.879,429.947s7.414-9.865,12.282-7.065c0,0-5.43,7.623-12.741,8.86Z" transform="translate(308.757 982.499)"/>
    <path id="Path_476" data-name="Path 476" class="cls-3" d="M158.947,406.359s6.515-8.09,11.762-6.541c0,0-5.483,8.306-12.559,8.985Z" transform="translate(304.581 996.623)"/>
    <path id="Path_477" data-name="Path 477" class="cls-3" d="M166.721,382.851s7.277-7.816,10.742-6.761c0,0-5.065,8.484-10.973,8.4Z" transform="translate(299.405 1011.286)"/>
    <path id="Path_478" data-name="Path 478" class="cls-3" d="M173.87,358.212s6.105-9.163,9.8-8.727c0,0-3.533,8.04-9.736,9.611Z" transform="translate(294.825 1027.745)"/>
    <path id="Path_479" data-name="Path 479" class="cls-3" d="M180.7,331.7s5.46-7.08,8.655-7.277c0,0-4.064,9.235-8.753,9.486Z" transform="translate(290.649 1043.29)"/>
    <path id="Path_480" data-name="Path 480" class="cls-3" d="M183.979,301l4.773-14.3s1.138,12.559-5.312,16.93Z" transform="translate(288.887 1066.698)"/>
    <path id="Path_481" data-name="Path 481" class="cls-3" d="M187.425,262.946s.167-11.683-.5-12.586c0,0,4.732,9.387.812,17.723Z" transform="translate(286.727 1089.25)"/>
    <path id="Path_482" data-name="Path 482" class="cls-3" d="M142.989,604.591s-6.17-3.271-9.4,5.968c0,0,5.5,3.142,10.245-3.722Z" transform="translate(319.822 869.774)"/>
    <path id="Path_483" data-name="Path 483" class="cls-3" d="M132.747,578.956s-7.482-2.827-10.377,6.784c0,0,5.87,3.472,11.2-4.462Z" transform="translate(326.785 885.574)"/>
    <path id="Path_484" data-name="Path 484" class="cls-3" d="M124.037,553.9s-5.612-5.733-13.037.884c0,0,5.289,5,13.14.679Z" transform="translate(333.841 902.313)"/>
    <path id="Path_485" data-name="Path 485" class="cls-3" d="M121.021,528.339s-5.691-6-12.791.516c0,0,6.321,5.21,12.9.968Z" transform="translate(335.56 918.308)"/>
    <path id="Path_486" data-name="Path 486" class="cls-3" d="M122.517,502.459s-4.31-8.905-12.077-4.428c0,0,4.879,7.828,11.853,5.972Z" transform="translate(334.188 936.334)"/>
    <path id="Path_487" data-name="Path 487" class="cls-3" d="M125.275,476.781s-4.3-9.068-12.165-4.2c0,0,5.562,8.2,11.891,5.665Z" transform="translate(332.531 952.238)"/>
    <path id="Path_488" data-name="Path 488" class="cls-3" d="M135.086,446.4s-2.14-10.112-8.936-10.575c0,0,2.155,10.673,8.162,12.476Z" transform="translate(324.439 974.153)"/>
    <path id="Path_489" data-name="Path 489" class="cls-3" d="M141.634,422.2s-1.393-12.259-7-12.316c0,0,.816,9.323,6.492,14.1Z" transform="translate(319.177 990.257)"/>
    <path id="Path_490" data-name="Path 490" class="cls-3" d="M149.017,398.354s-2.356-10.116-7.767-11c0,0,1.328,9.865,7.41,13.553Z" transform="translate(315.068 1004.238)"/>
    <path id="Path_491" data-name="Path 491" class="cls-3" d="M161.708,374.528s-.759-10.651-4.136-12c0,0-1.37,9.782,3.282,13.424Z" transform="translate(305.056 1019.641)"/>
    <path id="Path_492" data-name="Path 492" class="cls-3" d="M166.836,352.1s-1.2-10.947-4.671-12.263c0,0-.569,8.761,4.212,13.014Z" transform="translate(302.102 1033.721)"/>
    <path id="Path_493" data-name="Path 493" class="cls-3" d="M176.424,328.066s-.622-8.92-3.168-10.856c0,0-1.738,9.937,2.03,12.734Z" transform="translate(295.455 1047.765)"/>
    <path id="Path_494" data-name="Path 494" class="cls-3" d="M177.787,299.239l-3.339-14.7s-2.364,12.385,3.631,17.37Z" transform="translate(294.752 1068.039)"/>
    <path id="Path_495" data-name="Path 495" class="cls-3" d="M171.776,266.768s-6.689-9.592-6.636-10.708c0,0,1.343,10.427,9.262,15.136Z" transform="translate(300.243 1085.712)"/>
    <path id="Path_496" data-name="Path 496" class="cls-3" d="M168.84,252.188s-6.625-13.808-9.27-14.8a18.029,18.029,0,0,1,9.717,14.342Z" transform="translate(303.7 1097.298)"/>
    <path id="Path_497" data-name="Path 497" class="cls-4" d="M179.919,302.676l-.379-.095c3.737-15.936,4.265-25.983,1.48-28.29l.258-.311C184.215,276.424,183.752,286.349,179.919,302.676Z" transform="translate(291.307 1074.592)"/>
    <path id="Path_498" data-name="Path 498" class="cls-4" d="M151.3,385.109l-.588-.163c.414-1.465.861-2.956,1.339-4.424,4.174-12.794,7.642-24.663,9.77-33.747l.482-.285c-2.132,9.106-5.506,21.411-9.672,34.217C152.156,382.172,151.708,383.652,151.3,385.109Z" transform="translate(309.198 1029.594)"/>
    <path id="Path_499" data-name="Path 499" class="cls-4" d="M162.88,531.236c-.083-.08-8.431-8.3-14.843-22.857a88.168,88.168,0,0,1-7.061-26.852c-1.138-11.584.417-24.712,3.794-36.767l.486.5c-7.589,27.057-2.349,49.455,3.5,62.758,6.348,14.418,14.6,22.557,14.684,22.637Z" transform="translate(315.468 968.611)"/>
    <path id="Path_500" data-name="Path 500" class="cls-3" d="M223.53,558.274a5.747,5.747,0,0,1,5.016,1.347s-1.279,1.138-4.276-.125Z" transform="translate(264.008 898.239)"/>
    <path id="Path_501" data-name="Path 501" class="cls-3" d="M220.973,558.39a5.741,5.741,0,0,0-.653,5.149s1.548-.759,1.518-4Z" transform="translate(266.235 898.096)"/>
    <path id="Path_502" data-name="Path 502" class="cls-3" d="M217.34,546.8s1.074-2.326,6.185.489a2.754,2.754,0,0,1-2.724,1.575A3.324,3.324,0,0,1,217.34,546.8Z" transform="translate(267.849 905.846)"/>
    <path id="Path_503" data-name="Path 503" class="cls-3" d="M212.511,547.91s-2.565-.118-2.421,5.714a2.754,2.754,0,0,0,2.656-1.692A3.328,3.328,0,0,0,212.511,547.91Z" transform="translate(272.352 904.6)"/>
    <path id="Path_504" data-name="Path 504" class="cls-3" d="M211.75,532.042s1.165-4.056,6.538-1.586c0,0-.937,3.715-5.915,2.9Z" transform="translate(271.318 915.926)"/>
    <path id="Path_505" data-name="Path 505" class="cls-3" d="M206.51,517.164s2.425-4.174,7.452-.789c0,0-1.423,3.87-6.947,2.189Z" transform="translate(274.57 924.991)"/>
    <path id="Path_506" data-name="Path 506" class="cls-3" d="M204,502.767s2.9-3.889,7.881-.531c0,0-2.762,3.415-7.816,1.468Z" transform="translate(276.128 933.791)"/>
    <path id="Path_507" data-name="Path 507" class="cls-3" d="M201.74,488.2s2.929-4.052,7.706-.721c0,0-3.366,3.631-7.646,1.62Z" transform="translate(277.53 942.916)"/>
    <path id="Path_508" data-name="Path 508" class="cls-3" d="M201.64,473.645s3.035-5.164,7.486-2.1c0,0-3.309,4.489-7.425,3.035Z" transform="translate(277.592 952.593)"/>
    <path id="Path_509" data-name="Path 509" class="cls-3" d="M202.68,458.886s3.221-5.141,7.589-1.662c0,0-3.923,4.53-7.543,2.557Z" transform="translate(276.947 961.626)"/>
    <path id="Path_510" data-name="Path 510" class="cls-3" d="M204.745,444.091s3.9-4.887,7.695-3.293c0,0-4.056,5.183-7.79,4.53Z" transform="translate(275.724 971.268)"/>
    <path id="Path_511" data-name="Path 511" class="cls-3" d="M207.467,429.58s4.481-5.961,7.425-4.272c0,0-3.282,4.61-7.7,5.358Z" transform="translate(274.148 980.87)"/>
    <path id="Path_512" data-name="Path 512" class="cls-3" d="M211.76,415.339s3.939-4.891,7.118-3.954c0,0-3.312,5.02-7.589,5.43Z" transform="translate(271.604 989.397)"/>
    <path id="Path_513" data-name="Path 513" class="cls-3" d="M216.44,401.11s4.4-4.724,6.492-4.086c0,0-3.058,5.126-6.632,5.081Z" transform="translate(268.495 998.272)"/>
    <path id="Path_514" data-name="Path 514" class="cls-3" d="M220.76,386.207s3.692-5.54,5.923-5.282c0,0-2.132,4.861-5.885,5.813Z" transform="translate(265.727 1008.23)"/>
    <path id="Path_515" data-name="Path 515" class="cls-3" d="M224.9,370.181s3.3-4.28,5.232-4.4c0,0-2.459,5.585-5.293,5.726Z" transform="translate(263.195 1017.624)"/>
    <path id="Path_516" data-name="Path 516" class="cls-3" d="M226.851,351.636l2.88-8.636s.683,7.589-3.221,10.245Z" transform="translate(262.159 1031.76)"/>
    <path id="Path_517" data-name="Path 517" class="cls-3" d="M228.957,328.618s.1-7.061-.307-7.608c0,0,2.861,5.673.489,10.715Z" transform="translate(260.831 1045.406)"/>
    <path id="Path_518" data-name="Path 518" class="cls-3" d="M202.071,535.162s-3.726-1.981-5.691,3.6c0,0,3.328,1.9,6.2-2.246Z" transform="translate(280.856 912.722)"/>
    <path id="Path_519" data-name="Path 519" class="cls-3" d="M195.906,519.617s-4.527-1.707-6.276,4.1c0,0,3.548,2.1,6.769-2.694Z" transform="translate(285.045 922.302)"/>
    <path id="Path_520" data-name="Path 520" class="cls-3" d="M190.631,504.511s-3.388-3.464-7.881.531c0,0,3.2,3.035,7.945.41Z" transform="translate(289.315 932.396)"/>
    <path id="Path_521" data-name="Path 521" class="cls-3" d="M188.813,489.062s-3.441-3.624-7.733.315c0,0,3.821,3.146,7.794.584Z" transform="translate(290.351 942.063)"/>
    <path id="Path_522" data-name="Path 522" class="cls-3" d="M189.714,473.375s-2.607-5.384-7.3-2.679c0,0,2.952,4.732,7.167,3.612Z" transform="translate(289.526 952.988)"/>
    <path id="Path_523" data-name="Path 523" class="cls-3" d="M191.365,457.877s-2.6-5.483-7.365-2.538c0,0,3.362,4.959,7.19,3.415Z" transform="translate(288.539 962.586)"/>
    <path id="Path_524" data-name="Path 524" class="cls-3" d="M197.313,439.543s-1.294-6.116-5.4-6.393c0,0,1.3,6.45,4.933,7.539Z" transform="translate(283.63 975.816)"/>
    <path id="Path_525" data-name="Path 525" class="cls-3" d="M201.25,424.888s-.835-7.41-4.25-7.448c0,0,.493,5.638,3.923,8.526Z" transform="translate(280.472 985.565)"/>
    <path id="Path_526" data-name="Path 526" class="cls-3" d="M205.734,410.475s-1.423-6.116-4.694-6.655c0,0,.8,5.961,4.481,8.192Z" transform="translate(277.965 994.017)"/>
    <path id="Path_527" data-name="Path 527" class="cls-3" d="M213.409,396.075s-.467-6.45-2.5-7.255c0,0-.831,5.915,1.981,8.116Z" transform="translate(271.909 1003.326)"/>
    <path id="Path_528" data-name="Path 528" class="cls-3" d="M216.512,382.514s-.721-6.617-2.823-7.414c0,0-.345,5.312,2.546,7.869Z" transform="translate(270.123 1011.84)"/>
    <path id="Path_529" data-name="Path 529" class="cls-3" d="M222.331,367.984s-.379-5.392-1.9-6.564c0,0-1.051,6.01,1.226,7.7Z" transform="translate(266.08 1020.329)"/>
    <path id="Path_530" data-name="Path 530" class="cls-3" d="M223.153,350.556l-2.019-8.886s-1.43,7.49,2.193,10.5Z" transform="translate(265.667 1032.586)"/>
    <path id="Path_531" data-name="Path 531" class="cls-3" d="M219.5,330.933s-4.041-5.794-4.011-6.473c0,0,.808,6.3,5.6,9.148Z" transform="translate(268.998 1043.266)"/>
    <path id="Path_532" data-name="Path 532" class="cls-3" d="M217.694,322.126s-4.007-8.348-5.6-8.936a10.893,10.893,0,0,1,5.874,8.674Z" transform="translate(271.107 1050.259)"/>
    <path id="Path_533" data-name="Path 533" class="cls-4" d="M224.4,352.628l-.239-.057c2.277-9.634,2.58-15.708.9-17.1l.156-.19C227,336.76,226.717,342.762,224.4,352.628Z" transform="translate(263.617 1036.551)"/>
    <path id="Path_534" data-name="Path 534" class="cls-4" d="M207.117,402.5l-.357-.1c.25-.884.524-1.783.812-2.656,2.516-7.737,4.618-14.912,5.9-20.4l.292-.175c-1.29,5.5-3.328,12.946-5.847,20.69C207.633,400.727,207.363,401.611,207.117,402.5Z" transform="translate(274.415 1009.32)"/>
    <path id="Path_535" data-name="Path 535" class="cls-4" d="M214.113,490.812a47.861,47.861,0,0,1-8.974-13.819,53.393,53.393,0,0,1-4.269-16.232,62.249,62.249,0,0,1,2.3-22.231l.292.3c-4.587,16.357-1.419,29.9,2.117,37.943a47.165,47.165,0,0,0,8.879,13.682Z" transform="translate(278.209 972.477)"/>
    <path id="Path_536" data-name="Path 536" class="cls-5" d="M200.27,536.406a14.51,14.51,0,0,0-2.846.812c-20.467,8.173-20.125,61.673-20.125,61.673h-6.025s-1.9-22.959-10.165-55.716c-7.448-29.47,23.1-55.883,29.3-60.891.7-.558,1.085-.854,1.085-.854C222.266,492.737,200.27,536.406,200.27,536.406Z" transform="translate(303.466 945.855)"/>
    <path id="Path_537" data-name="Path 537" class="cls-6" d="M193.768,482.372c-.71-.326-1.442-.637-2.22-.922,0,0-.379.3-1.085.854-6.2,5.009-36.752,31.421-29.3,60.891,8.268,32.756,10.146,55.708,10.146,55.708h3.388s-1.878-22.959-10.165-55.716C157.111,513.853,187.363,487.54,193.768,482.372Z" transform="translate(303.435 945.843)"/>
    <path id="Path_538" data-name="Path 538" class="cls-5" d="M457.247,543.182c-8.287,32.756-10.154,55.708-10.154,55.708h-6.037s.379-55.913-21.525-62.155a11.96,11.96,0,0,0-1.446-.338s-22.007-43.669,8.772-54.968c0,0,.311.231.873.683C433.434,486.678,464.778,513.371,457.247,543.182Z" transform="translate(148.002 945.855)"/>
    <path id="Path_539" data-name="Path 539" class="cls-7" d="M250.1,536.418a14.51,14.51,0,0,0-2.846.812A371.544,371.544,0,0,1,240.24,482.3c.7-.558,1.085-.854,1.085-.854C272.093,492.749,250.1,536.418,250.1,536.418Z" transform="translate(253.638 945.843)"/>
    <path id="Path_540" data-name="Path 540" class="cls-7" d="M427.761,482.157a341.865,341.865,0,0,1-8.2,54.638,11.983,11.983,0,0,0-1.446-.338s-22.007-43.669,8.772-54.968C426.877,481.474,427.188,481.705,427.761,482.157Z" transform="translate(147.984 945.819)"/>
    <path id="Path_541" data-name="Path 541" class="cls-8" d="M311.954,280.9q-3.187,12.574-7.471,25.8s-13.553,14.119-46.291,0a248.313,248.313,0,0,1-6.868-24.895c-7.919-34.464-17.416-100.14,2.819-167.6a251.087,251.087,0,0,1,25.49-57.848s17.287,19.848,29.975,57.837S330.372,208.322,311.954,280.9Z" transform="translate(252.525 1209.64)"/>
    <circle id="Ellipse_71" data-name="Ellipse 71" class="cls-5" cx="27.179" cy="27.179" r="27.179" transform="translate(507.731 1350.222)"/>
    <path id="Path_542" data-name="Path 542" class="cls-3" d="M336.136,318.481a19.275,19.275,0,0,1-31.493,14.908,19.476,19.476,0,0,1-3.612-3.919,18.971,18.971,0,0,1-1.245-2.045,19.237,19.237,0,0,1-2.2-8.943v-.459a19.3,19.3,0,0,1,14.039-18.106,19.931,19.931,0,0,1,4.644-.706h.577A19.275,19.275,0,0,1,336.136,318.481Z" transform="translate(218.049 1058.935)"/>
    <path id="Path_543" data-name="Path 543" class="cls-5" d="M329.38,114.2c-30.836,14.764-55.48,0-55.48,0A251.088,251.088,0,0,1,299.409,56.36S316.7,76.208,329.38,114.2Z" transform="translate(232.75 1209.64)"/>
    <path id="Path_544" data-name="Path 544" class="cls-5" d="M327.125,648.14q-2.163,8.514-4.819,17.321-1.26,4.2-2.656,8.469s-13.553,14.119-46.291,0c0,0-1.062-2.994-2.656-8.469-1.191-4.136-2.675-9.679-4.223-16.426a82.134,82.134,0,0,0,29.486,5.2,81.239,81.239,0,0,0,31.159-6.1Z" transform="translate(237.355 842.4)"/>
    <path id="Path_545" data-name="Path 545" class="cls-8" d="M329.213,693.79q-1.26,4.2-2.656,8.469s-13.553,14.119-46.291,0c0,0-1.062-2.994-2.656-8.469C277.606,693.79,310.973,703.39,329.213,693.79Z" transform="translate(230.448 814.071)"/>
    <path id="Path_546" data-name="Path 546" class="cls-6" d="M311.653,299.846l-.042.03-14,18.076v.459a19.237,19.237,0,0,0,2.2,8.943l16.5-28.215Z" transform="translate(218.036 1058.978)"/>
    <path id="Path_547" data-name="Path 547" class="cls-6" d="M321.739,341.691l-11.466,17.169a19.476,19.476,0,0,1-3.612-3.919l13.66-14.661Z" transform="translate(212.42 1033.448)"/>
    <path id="Path_548" data-name="Path 548" class="cls-6" d="M265.485,306.7a248.7,248.7,0,0,1-6.868-24.895c-7.919-34.468-17.416-100.143,2.819-167.6a252.012,252.012,0,0,1,22.33-52.4c-2.569-3.6-4.174-5.437-4.174-5.437a251.063,251.063,0,0,0-25.5,57.833c-20.235,67.459-10.738,133.135-2.819,167.6a248.7,248.7,0,0,0,6.868,24.895c12.935,5.574,22.872,6.743,30.165,6.12C282.077,312.346,274.511,310.589,265.485,306.7Z" transform="translate(252.556 1209.634)"/>
    <path id="Path_549" data-name="Path 549" class="cls-9" d="M966.7,653.438s17.735-22.068,16.558-44.17a42.9,42.9,0,0,1,7.035-26.2,72.164,72.164,0,0,1,8.347-10.245" transform="translate(-197.18 889.141)"/>
    <path id="Path_550" data-name="Path 550" class="cls-3" d="M1048.4,530.034c-1.267,3.077.63,14.3.63,14.3s9.247-6.633,10.514-9.71a6.026,6.026,0,1,0-11.144-4.587Z" transform="translate(-247.607 918.01)"/>
    <path id="Path_551" data-name="Path 551" class="cls-3" d="M1006.161,559.415c.611,3.271,8.3,11.656,8.3,11.656s4.174-10.59,3.548-13.864a6.027,6.027,0,1,0-11.85,2.208Z" transform="translate(-221.604 901.886)"/>
    <path id="Path_552" data-name="Path 552" class="cls-3" d="M973.394,631.995c2.178,2.516,13.052,5.874,13.052,5.874s-1.761-11.243-3.938-13.762A6.025,6.025,0,1,0,973.4,632Z" transform="translate(-200.425 858.606)"/>
    <path id="Path_553" data-name="Path 553" class="cls-3" d="M964.418,696.973c1.719,2.85,11.869,7.995,11.869,7.995s.167-11.383-1.552-14.229a6.027,6.027,0,0,0-10.317,6.234Z" transform="translate(-195.224 817.771)"/>
    <path id="Path_554" data-name="Path 554" class="cls-3" d="M1035.029,597.057c-3.089,1.233-14.289-.778-14.289-.778s6.724-9.178,9.816-10.415a6.027,6.027,0,0,1,4.474,11.193Z" transform="translate(-230.715 881.315)"/>
    <path id="Path_555" data-name="Path 555" class="cls-3" d="M1023.9,670.651c-3.316.254-13.4-5.016-13.4-5.016s9.159-6.75,12.479-7a6.029,6.029,0,1,1,.922,12.022Z" transform="translate(-224.361 835.901)"/>
    <path id="Path_556" data-name="Path 556" class="cls-3" d="M1000.7,741.426c-3.229.812-14.058-2.679-14.058-2.679s7.888-8.2,11.117-9.008a6.025,6.025,0,0,1,2.941,11.687Z" transform="translate(-209.554 791.876)"/>
    <path id="Path_557" data-name="Path 557" class="cls-10" d="M1048.4,530.034c-1.267,3.077.63,14.3.63,14.3s9.247-6.633,10.514-9.71a6.026,6.026,0,1,0-11.144-4.587Z" transform="translate(-247.607 918.01)"/>
    <path id="Path_558" data-name="Path 558" class="cls-10" d="M1006.161,559.415c.611,3.271,8.3,11.656,8.3,11.656s4.174-10.59,3.548-13.864a6.027,6.027,0,1,0-11.85,2.208Z" transform="translate(-221.604 901.886)"/>
    <path id="Path_559" data-name="Path 559" class="cls-10" d="M973.394,631.995c2.178,2.516,13.052,5.874,13.052,5.874s-1.761-11.243-3.938-13.762A6.025,6.025,0,1,0,973.4,632Z" transform="translate(-200.425 858.606)"/>
    <path id="Path_560" data-name="Path 560" class="cls-10" d="M964.418,696.973c1.719,2.85,11.869,7.995,11.869,7.995s.167-11.383-1.552-14.229a6.027,6.027,0,0,0-10.317,6.234Z" transform="translate(-195.224 817.771)"/>
    <path id="Path_561" data-name="Path 561" class="cls-10" d="M1035.029,597.057c-3.089,1.233-14.289-.778-14.289-.778s6.724-9.178,9.816-10.415a6.027,6.027,0,0,1,4.474,11.193Z" transform="translate(-230.715 881.315)"/>
    <path id="Path_562" data-name="Path 562" class="cls-10" d="M1023.9,670.651c-3.316.254-13.4-5.016-13.4-5.016s9.159-6.75,12.479-7a6.029,6.029,0,1,1,.922,12.022Z" transform="translate(-224.361 835.901)"/>
    <path id="Path_563" data-name="Path 563" class="cls-10" d="M1000.7,741.426c-3.229.812-14.058-2.679-14.058-2.679s7.888-8.2,11.117-9.008a6.025,6.025,0,0,1,2.941,11.687Z" transform="translate(-209.554 791.876)"/>
    <path id="Path_564" data-name="Path 564" class="cls-9" d="M967.12,683.488s25.156-12.992,33.037-33.671a42.875,42.875,0,0,1,17.052-21.108,72.053,72.053,0,0,1,11.762-5.98" transform="translate(-197.44 858.169)"/>
    <path id="Path_565" data-name="Path 565" class="cls-3" d="M1134.887,585.707c-2.406,2.3-5.217,13.329-5.217,13.329s11.14-2.318,13.546-4.618a6.032,6.032,0,1,0-8.328-8.727Z" transform="translate(-298.314 882.189)"/>
    <path id="Path_566" data-name="Path 566" class="cls-3" d="M1089.989,595.491c-.759,3.24,2.865,14.039,2.865,14.039s8.078-7.995,8.86-11.254a6.025,6.025,0,1,0-11.724-2.785Z" transform="translate(-273.624 877.948)"/>
    <path id="Path_567" data-name="Path 567" class="cls-3" d="M1030.509,648.557c.971,3.183,9.554,10.658,9.554,10.658s2.948-11,1.977-14.172a6.027,6.027,0,0,0-11.531,3.513Z" transform="translate(-236.614 846.973)"/>
    <path id="Path_568" data-name="Path 568" class="cls-3" d="M995.98,704.332c.417,3.3,7.611,12.119,7.611,12.119s4.766-10.332,4.344-13.637a6.026,6.026,0,0,0-11.956,1.518Z" transform="translate(-215.32 811.74)"/>
    <path id="Path_569" data-name="Path 569" class="cls-3" d="M1098.679,645.6c-3.328-.121-12.749-6.5-12.749-6.5s9.865-5.665,13.193-5.543a6.026,6.026,0,1,1-.444,12.043Z" transform="translate(-271.17 851.451)"/>
    <path id="Path_570" data-name="Path 570" class="cls-3" d="M1061.212,709.048c-3.138-1.112-10.222-10.017-10.222-10.017s11.114-2.455,14.248-1.343a6.026,6.026,0,0,1-4.026,11.36Z" transform="translate(-249.488 811.832)"/>
    <path id="Path_571" data-name="Path 571" class="cls-3" d="M1009.882,764.082c-3.278-.565-11.762-8.146-11.762-8.146s10.537-4.3,13.815-3.73a6.026,6.026,0,1,1-2.049,11.876Z" transform="translate(-216.678 777.852)"/>
    <path id="Path_572" data-name="Path 572" class="cls-11" d="M801.991,494.812l-19.5-28.279s-.379-7-1.639-8.636-.273-5.274-.273-5.274,1.366-2,.182-2.182-.182-4.64-.182-4.64l-.091-7.092s1.093-6.83.182-8.454a2.683,2.683,0,0,1,.091-2.91s1.093-3.912,0-4.91-.82-7.1-.546-11.914-1.916-7.547-1.916-8.275-7.209-7.82-7.209-8.454-4.553-3.275-7.289-4-4.1-1.271-4.011-1.635-4.284-1.817-4.284-1.817-3.828-.273-5.289-2.186-5.915-2.459-6.044-2.478c-.027-.125-.057-.254-.083-.379s-.057-.273-.083-.41c.345-.581.664-1.172.952-1.783.087-.186.171-.379.25-.554a7.783,7.783,0,0,0,4.489-1.393,6.113,6.113,0,0,0,2.182-4.36,9.559,9.559,0,0,0-1.066-4.845c-.8-1.639-1.969-3.335-1.567-5.111.178-.759.637-1.442.873-2.193a5.776,5.776,0,0,0-.656-4.307c-.691-1.32-1.651-2.482-2.417-3.76a14.683,14.683,0,0,1-1.924-5.312,8.305,8.305,0,0,0-.713-2.9,5.391,5.391,0,0,0-1.6-1.613,15.963,15.963,0,0,0-9.8-2.971c-2.482.087-4.955.759-7.418.452a26.692,26.692,0,0,1-4.333-1.138c-3.058-.9-6.583-1.275-9.247.474s-3.722,5.191-5.525,7.881c-1.594,2.383-3.931,4.379-5.145,6.9a.541.541,0,0,1,.038-.144,8.252,8.252,0,0,0-.679,1.836,13.085,13.085,0,0,0,.406,6.029,4.183,4.183,0,0,0,1.472,2.694c.884.565,2.136.44,3.183.626-.038.171-.083.345-.121.52A20.831,20.831,0,0,0,720.1,390.2v.554a13.8,13.8,0,0,1-.095,1.563h0s-9.163-1.9-11.626-.607-7.293,2.277-8.021,3-2.55.182-4.174,4.458-1.821,8.636-3.92,10.624-3.187,3.366-3.278,4.823.273,1.817-.55,2.277-2,2.364-1.639,3.092a2.585,2.585,0,0,1-1,2.724,3.046,3.046,0,0,0-1.279,2.728s-.546,2-1.821,2.455-2.1,3.457-2.1,3.457l-4.147,4.762-8.192-9.068a3.453,3.453,0,0,0-4.876-.25l-4.022,3.627a7.945,7.945,0,0,0-4.026,2.4,10.375,10.375,0,0,0-2.083,3.1l-2.2,1.981a5.6,5.6,0,0,0-.565,6.177l5.248,5.8.034.049a9.268,9.268,0,0,0-5.077,2.068c-7.835,6.909-7.93,13.28-6.742,16.183s11.117,14.1,11.117,14.1,5.771,7.5,14.1,11.493h0l-.065.064c-.163.175-.326.379-.486.569l-.137.175-.125.175-.148.22c-.042.057-.08.118-.118.178s-.106.171-.156.262l-.1.175c-.061.114-.125.231-.186.353l-.061.118c-.076.159-.152.322-.224.493-.027.061-.049.125-.076.186-.046.118-.095.239-.14.379s-.057.156-.083.235-.08.235-.118.357-.053.171-.076.254-.076.266-.11.4-.042.159-.065.247c-.049.209-.1.425-.14.653a1.6,1.6,0,0,1-.046.258q-.046.228-.08.467c-.019.11-.03.22-.046.33s-.038.3-.057.452l-.034.349c0,.167-.03.342-.042.516a1.8,1.8,0,0,1-.019.319c0,.288-.03.577-.034.88-.182,10.624.44,12.184.44,12.184a5.9,5.9,0,0,0,4.838,3.631,6.185,6.185,0,0,0,1.559-.083c4.739-.82,15.856-2.728,19.776-2,2.356.436,6.72-.209,9.827-.8l.816-.156.569,1.806,1.8-.493,1.518.884.968.554c1.8,6.1,9.106,4.022,9.106,4.022l1.715.994,17.59.455a36.038,36.038,0,0,0,6.226,2.99,5.774,5.774,0,0,0,.884.193,39.937,39.937,0,0,0,4.9.091c1.347-.034,2.39-.091,2.39-.091s-.178-4.777-.436-10.123a144.132,144.132,0,0,0,16.293-1.336c9.395-1.651,13.314-10.191,14.756-14.756a42.94,42.94,0,0,1,.922,5.665,40.521,40.521,0,0,0,1.461,4.91,16.592,16.592,0,0,0,2,3.635c6.928-2.364,2.736-5.908,1.275-7.456s1.005-2.819,1.005-2.819,1.9-1.271,1.73-2.455-.273-2.455,5.923-2.364S801.991,494.812,801.991,494.812Zm-96.247-58.053c.08.52.945,6.124,1.726,7.589a10.019,10.019,0,0,1,.2,2.994c-3.673-.292-7.5-.448-7.5-.448a.88.88,0,0,1,.2.467l-.577-.129-.839-.2,6.765-10.29Zm-13.4,21.324,6.356,1.009.535.083a20.927,20.927,0,0,0-.33,3c0,.095.144.209.349.341a8.182,8.182,0,0,0-.125,1.518c.1.5,3.073,1.59,6.481,2.493-.046.182-.091.357-.137.52h0c-3.009-1.582-7.752-2.322-8.3-3.5s-16.695-6.83-16.695-6.83-.588-.311-1.6-.8l4.25.8,1.169-.118a63.707,63.707,0,0,0,8.052,1.472Z" transform="translate(3.457 1034.65)"/>
    <path id="Path_573" data-name="Path 573" class="cls-12" d="M818.9,705.288s-2.527,15.265-15.356,17.522-55.647,1.806-55.647,1.806-24.481-3.521-33.333-24.208-14.544-28.909-6.955-29.269,48.51,13.823,50.844,14S821.162,653.7,818.9,705.288Z" transform="translate(-34.203 828.132)"/>
    <path id="Path_574" data-name="Path 574" class="cls-13" d="M818.9,705.288s-2.527,15.265-15.356,17.522-55.647,1.806-55.647,1.806-24.481-3.521-33.333-24.208-14.544-28.909-6.955-29.269,48.51,13.823,50.844,14S821.162,653.7,818.9,705.288Z" transform="translate(-34.203 828.132)"/>
    <path id="Path_575" data-name="Path 575" class="cls-14" d="M703.3,768.07a5.858,5.858,0,0,0,4.8,3.608,6.232,6.232,0,0,0,1.544-.083c4.7-.812,15.72-2.709,19.6-1.988,2.337.436,6.659-.209,9.736-.789,2.049-.379,3.544-.759,3.544-.759s-3.612-12.013-4.068-12.373-16.259-9.846-16.259-9.846l-12.521-.9h-.038a6.582,6.582,0,0,0-4.242,2.493c-1.324,1.6-2.459,4.223-2.535,8.526C702.684,766.533,703.3,768.07,703.3,768.07Z" transform="translate(-33.429 782.329)"/>
    <path id="Path_576" data-name="Path 576" class="cls-13" d="M703.3,768.089a5.858,5.858,0,0,0,4.8,3.608,51.43,51.43,0,0,1-3.415-4.963l.064-8.761a15.4,15.4,0,0,1,4.933-13h-.038s-6.595.448-6.777,11S703.3,768.089,703.3,768.089Z" transform="translate(-33.431 782.31)"/>
    <path id="Path_577" data-name="Path 577" class="cls-7" d="M835.273,710.619l11.652-9.106,18.338-18.069s-1.981-.095-4.967-.224c-.759.474-2.827,1.965-2.9,3.794-.091,2.208-4.959.152-7.486,1.415s-14.9,17.1-17.074,17-3.882-1.1-4.788.436c0,.034-.042.064-.065.1Z" transform="translate(-111.095 820.63)"/>
    <path id="Path_578" data-name="Path 578" class="cls-7" d="M709.6,747.441c.414.2.831.379,1.26.577,8.856,3.794,19.784,11.762,20.6,13.189.493.88,6.83,4.728,11.721,7.611,2.049-.379,3.544-.759,3.544-.759s-3.612-12.013-4.067-12.373-16.259-9.846-16.259-9.846l-12.521-.9h-.038A6.61,6.61,0,0,0,709.6,747.441Z" transform="translate(-37.632 782.329)"/>
    <path id="Path_579" data-name="Path 579" class="cls-12" d="M643.931,653.482c1.172,2.891,11,14,11,14s6.23,8.127,15.086,11.922,19.784,11.762,20.6,13.189c.524.93,7.589,5.179,12.552,8.1l1.112.649,2.466,1.43,1.305.759s3.035-2.428,6.037-4.872,5.931-4.838,5.98-4.974c.087-.269,1.26-3.343.99-3.521-.14-.095-.759-1.347-1.9-2.8a12.832,12.832,0,0,0-4.6-3.794,12.965,12.965,0,0,1-5.961-6.215s-.379-.288-1-.668a12.084,12.084,0,0,0-4.06-1.81c-1.992-.25-5.691-4.314-5.691-4.314a11.157,11.157,0,0,1-3.525-3.7c-.949-1.981-14.957-11.6-16.255-12.491l33.963,21.81,8.127,5.225,11.652-9.106,18.342-18.069s-2.466-.121-6.071-.273c-8.913-.379-24.743-.99-26.742-.539a15.242,15.242,0,0,1-4.971.323s-4.508.2-7.49-1.37-7.683-2.311-8.226-3.476-16.532-6.773-16.532-6.773-21.768-11.561-29.539-4.694S642.755,650.595,643.931,653.482Z" transform="translate(3.465 850.395)"/>
    <path id="Path_580" data-name="Path 580" class="cls-15" d="M829.82,464.717l2.8,9.3,3.612,20.956,13.28.9,3.844-6.374,3.851-6.363s2.39-8.469,4.109-16.661c1.518-7.247,2.512-14.282.857-15.044-1.465-.679-2.428-3.119-3.035-5.745-.08-.323-.152-.653-.22-.983a51.083,51.083,0,0,1-.88-6.735S830.215,436.533,834.1,448a18.282,18.282,0,0,1,1.047,6.1,14.522,14.522,0,0,1-.095,1.552A13.015,13.015,0,0,1,829.82,464.717Z" transform="translate(-112.236 972.858)"/>
    <path id="Path_581" data-name="Path 581" class="cls-8" d="M814.58,492.151l.994,15.807,2.258,13.458,2.531,6.234,2.258,34.1s21.783,2.519,27.08-.046a2.33,2.33,0,0,0,.96-.759c6.4-9.649,4.3-37.636,4.3-37.636l2.44-18.072-1.628-9.38-3.927-.417-3.035-.323s-.683.842-1.669,2.144c-2.679,3.536-7.589,10.491-7.274,13.394.448,3.976-.543,8.04-2.079,8.674s-2.8,1.715-3.07.634a4.912,4.912,0,0,1-.273-2.891c.269-1.537-1.176-6.234-1.176-6.234s-2.436-5.509-2.277-7.858-.269-5.062-.994-5.691-1.715-1.267-.9-4.174-3.563-8.518-3.563-8.518Z" transform="translate(-102.779 943.888)"/>
    <path id="Path_582" data-name="Path 582" class="cls-7" d="M890.347,515.074l.9,27.012,5.217,2.891a2.334,2.334,0,0,0,.96-.759c6.4-9.664,4.3-37.647,4.3-37.647l2.44-18.069-1.628-9.376-3.931-.417c1.518-7.247,2.512-14.282.861-15.044-1.468-.679-2.432-3.119-3.058-5.745h0l-2.808,19.123s.235,1.723.319,3.5a10.033,10.033,0,0,1-.228,3.366,11.236,11.236,0,0,0-.182,4.519c-1.628,2.868-2.44,8.184-2.838,13.318C890.142,508.57,890.347,515.074,890.347,515.074Z" transform="translate(-149.774 960.445)"/>
    <path id="Path_583" data-name="Path 583" class="cls-14" d="M897.312,456.82s4.553.565,5.995,2.463,5.24,2.159,5.24,2.159,4.337,1.446,4.246,1.806,1.263.907,3.976,1.628,7.209,3.343,7.209,3.976,7.137,7.676,7.137,8.4,2.17,3.415,1.9,8.218-.543,10.84.543,11.834,0,4.879,0,4.879a2.656,2.656,0,0,0-.057,2.891c.9,1.628-.178,8.4-.178,8.4l.087,7.046s-.994,4.424.182,4.606-.182,2.167-.182,2.167-.994,3.616.273,5.24,1.624,8.583,1.624,8.583L954.656,569.2s.273,5.149-5.87,5.058-6.071,1.176-5.874,2.349-1.715,2.44-1.715,2.44-2.44,1.263-.994,2.8,5.6,5.058-1.263,7.406a16.376,16.376,0,0,1-1.988-3.612,40.874,40.874,0,0,1-1.446-4.876s-.634-6.868-1.9-7.771-1.085-5.24-1.085-5.24,1.806-3.521-.721-4.967-39.245-21.753-39.245-21.753l-.9-27.012s-.634-19.962,3.161-26.647A11.216,11.216,0,0,1,895,482.86c.634-1.624-.091-6.868-.091-6.868Z" transform="translate(-150.585 961.127)"/>
    <path id="Path_584" data-name="Path 584" class="cls-7" d="M790.23,483.67s-9.08-1.871-11.52-.607-7.209,2.277-7.968,2.982-2.531.182-4.155,4.428-1.81,8.579-3.885,10.567-3.161,3.343-3.252,4.788.269,1.806-.543,2.277-1.988,2.349-1.628,3.073,18.824,16.6,18.824,16.6.907,6.071,1.719,7.589-.9,22.675-2.709,24.12,12.195,1.313,12.195,1.313.63-13.868,1.172-14.593-.379-15.557-.379-15.557-.091-12.646,1.085-15.989,1.043-14.441,1.043-14.441,1.04-6.667,2.3-8.222S790.23,483.67,790.23,483.67Z" transform="translate(-67.179 945.113)"/>
    <path id="Path_585" data-name="Path 585" class="cls-14" d="M789.521,482.96s-9.084-1.871-11.523-.607-7.209,2.258-7.949,2.982-2.527.178-4.174,4.424-1.806,8.583-3.885,10.571-3.161,3.343-3.252,4.788.273,1.806-.539,2.258-1.988,2.349-1.628,3.07,18.789,16.623,18.789,16.623.9,6.071,1.715,7.589-.9,22.671-2.709,24.117,12.195,1.313,12.195,1.313.634-13.868,1.176-14.589-.379-15.557-.379-15.557-.087-12.646,1.085-15.989,1.043-14.456,1.043-14.456,1.04-6.667,2.3-8.219S789.521,482.96,789.521,482.96Z" transform="translate(-66.739 945.554)"/>
    <path id="Path_586" data-name="Path 586" class="cls-7" d="M840.392,448a18.279,18.279,0,0,1,1.047,6.1,20.728,20.728,0,0,0,23.771-9.395,51.063,51.063,0,0,1-.88-6.735S836.511,436.533,840.392,448Z" transform="translate(-118.567 972.858)"/>
    <path id="Path_587" data-name="Path 587" class="cls-15" d="M804.82,393.012a20.687,20.687,0,1,0,.448-4.3,20.687,20.687,0,0,0-.448,4.3Z" transform="translate(-96.722 1013.574)"/>
    <path id="Path_588" data-name="Path 588" class="cls-14" d="M740.126,553.06l-4.967,1.537a2.575,2.575,0,0,1-.994,2.709,3.023,3.023,0,0,0-1.264,2.713s-.543,1.984-1.806,2.436-2.079,3.415-2.079,3.415l-4.155,4.788s-1.537,1.263-1.263,1.9-1.628.812-1.628.812l.994,16.1,8.583,1.628,5.312-.543,4.337-1.628,3.794-2.277,1.73-4.39,7.589-11.561Z" transform="translate(-45.308 901.404)"/>
    <path id="Path_589" data-name="Path 589" class="cls-15" d="M689.069,593.872s-11-15.9-19.241-7.319,3.343,22.493,6.052,22.041,15.629-1.172,15.629-1.172Z" transform="translate(-11.144 882.197)"/>
    <rect id="Rectangle_84" data-name="Rectangle 84" class="cls-2" width="23.305" height="26.484" rx="11.652" transform="translate(651.583 1477.39) rotate(-42.05)"/>
    <rect id="Rectangle_85" data-name="Rectangle 85" class="cls-7" width="23.305" height="26.484" rx="11.652" transform="translate(651.583 1477.39) rotate(-42.05)"/>
    <rect id="Rectangle_86" data-name="Rectangle 86" class="cls-2" width="23.305" height="26.484" rx="11.652" transform="translate(651.894 1476.081) rotate(-42.05)"/>
    <circle id="Ellipse_72" data-name="Ellipse 72" class="cls-3" cx="5.149" cy="5.149" r="5.149" transform="translate(663.977 1473.614)"/>
    <circle id="Ellipse_73" data-name="Ellipse 73" class="cls-7" cx="5.149" cy="5.149" r="5.149" transform="translate(663.977 1473.614)"/>
    <circle id="Ellipse_74" data-name="Ellipse 74" class="cls-3" cx="5.149" cy="5.149" r="5.149" transform="translate(664.266 1472.961)"/>
    <path id="Path_590" data-name="Path 590" class="cls-15" d="M706.5,609.619c-.091,11.926,24.572,14.453,24.572,14.453l6.3,1,2.823.448,1.176-11.641s-1.294-.193-2.91-.569c-2.387-.558-5.479-1.518-6.128-2.865C731.25,608.189,706.587,597.7,706.5,609.619Z" transform="translate(-35.708 869.777)"/>
    <path id="Path_591" data-name="Path 591" class="cls-7" d="M806,388.853a2.455,2.455,0,0,1,1.518.675c.7.74.736,2.053,1.643,2.508a1.867,1.867,0,0,0,1.078.125c2.4-.341,3.794-3.035,6.1-3.794a6.147,6.147,0,0,1,4.041.345,3.009,3.009,0,0,1,1.339.861c.759,1,.231,2.466.588,3.677.5,1.677,2.5,2.345,4.234,2.565s3.688.341,4.845,1.651a4.4,4.4,0,0,1,.861,3.495,2.766,2.766,0,0,0,0,1.294c.478,1.355,2.823,1.138,3.434.083.448-.778.311-1.423,1.366-1.639a4.5,4.5,0,0,1,2.212.379,16.2,16.2,0,0,0,5.722.88A20.69,20.69,0,1,0,806,388.853Z" transform="translate(-97.454 1013.435)"/>
    <path id="Path_592" data-name="Path 592" class="cls-12" d="M823.922,383.582a2.766,2.766,0,0,1,0-1.294,4.4,4.4,0,0,0-.861-3.495c-1.138-1.309-3.111-1.434-4.845-1.651s-3.737-.884-4.234-2.561c-.357-1.21.182-2.683-.588-3.68a2.959,2.959,0,0,0-1.336-.858,6.235,6.235,0,0,0-4.045-.349c-2.3.759-3.7,3.46-6.1,3.794a1.867,1.867,0,0,1-1.078-.125c-.907-.455-.945-1.768-1.643-2.5-1.1-1.161-3.18-.414-4.523-1.275a4.157,4.157,0,0,1-1.457-2.675,13.028,13.028,0,0,1-.4-5.991c.785-3.362,3.794-5.665,5.691-8.533,1.787-2.675,2.789-6.071,5.475-7.831s6.135-1.37,9.163-.471a28.278,28.278,0,0,0,4.291,1.138c2.444.3,4.895-.379,7.353-.448a15.792,15.792,0,0,1,9.71,2.948,5.374,5.374,0,0,1,1.586,1.605,8.212,8.212,0,0,1,.7,2.876,14.7,14.7,0,0,0,1.9,5.285c.759,1.271,1.711,2.425,2.4,3.737a5.734,5.734,0,0,1,.649,4.276c-.231.759-.691,1.415-.861,2.178-.4,1.764.759,3.449,1.552,5.077a9.522,9.522,0,0,1,1.055,4.815,6.071,6.071,0,0,1-2.163,4.329,7.77,7.77,0,0,1-4.58,1.389,16.232,16.232,0,0,1-5.836-.876,4.543,4.543,0,0,0-2.212-.379c-1.055.216-.918.861-1.366,1.639C826.741,384.735,824.4,384.936,823.922,383.582Z" transform="translate(-89.142 1031.561)"/>
    <path id="Path_593" data-name="Path 593" class="cls-7" d="M832.447,711.968l11.652-9.106,18.342-18.068s-2.466-.121-6.071-.273a3.92,3.92,0,0,0-1.279,2.466c-.091,2.208-4.959.156-7.486,1.419s-14.9,17.1-17.074,17-3.882-1.1-4.788.436a.935.935,0,0,1-.065.1,2.569,2.569,0,0,1-1.377.816Z" transform="translate(-108.811 819.824)"/>
    <path id="Path_594" data-name="Path 594" class="cls-12" d="M783.87,701.06l5.855,18.691.918,2.937,2.789-.759,6.147-1.688,27.38-7.52a23.854,23.854,0,0,0,9.865-2.629,29.845,29.845,0,0,1,17.014-3.711c3.62.338,7.646-1.222,11-7.391,0,0,7.589-22.386-11.565-28.837s-20.064,3.415-20.064,3.415-.1.053-.258.159c-.759.474-2.827,1.965-2.9,3.794-.091,2.208-4.959.152-7.486,1.415s-14.9,17.1-17.074,17-3.882-1.1-4.788.436c0,.034-.042.064-.064.1-.668.922-2.679,1.138-4.011,1.172-.725.023-1.252,0-1.252,0l-.171.053-1.419.395Z" transform="translate(-83.721 830.098)"/>
    <path id="Path_595" data-name="Path 595" class="cls-7" d="M787.86,640.262l2.823.448,1.176-11.641s-1.294-.194-2.91-.569C789.378,630.113,788.406,636.4,787.86,640.262Z" transform="translate(-86.197 854.588)"/>
    <path id="Path_596" data-name="Path 596" class="cls-7" d="M862.407,515.544s8.4-2.44,6.321,21.411a66.6,66.6,0,0,1-17.613,38.918s-17.886,7.858-25.927,6.595a137.784,137.784,0,0,0-13.91-1.518,20.41,20.41,0,0,0-8.131-2.167c-4.519-.182-14-2.982-14.183-3.885s2.349-14.183,1.264-15.177c0,0,12.646.52,13.914,1.434s3.07.258,4.424,0,5.513-3.874,13.732-.71c0,0,2.8.269,3.885-.452a3.883,3.883,0,0,1,2.823-.182,7.4,7.4,0,0,0,1.965-1.013c.262-.379,2.436,0,2.436,0a.964.964,0,0,0,1.358-.634,5.905,5.905,0,0,1,1.264-1.984s2.44-13.732,7.046-18.881a2.949,2.949,0,0,0,.994-2.622C843.709,533.233,851.578,512.649,862.407,515.544Z" transform="translate(-86.877 924.858)"/>
    <path id="Path_597" data-name="Path 597" class="cls-14" d="M861.836,510.706s8.4-2.44,6.325,21.411a66.6,66.6,0,0,1-17.636,38.933s-17.886,7.858-25.927,6.595-13.91-1.537-13.91-1.537a20.384,20.384,0,0,0-8.131-2.167c-4.515-.182-14-2.982-14.183-3.885s2.349-14.183,1.267-15.177c0,0,12.646.52,13.91,1.434s3.073.258,4.428,0,5.509-3.87,13.732-.71c0,0,2.8.269,3.882-.451a3.9,3.9,0,0,1,2.827-.182,7.957,7.957,0,0,0,1.962-.994c.269-.36,2.44,0,2.44,0a.96.96,0,0,0,1.355-.63,5.9,5.9,0,0,1,1.263-1.988s2.44-13.732,7.046-18.88a2.946,2.946,0,0,0,.994-2.618C843.119,528.418,850.977,507.815,861.836,510.706Z" transform="translate(-86.511 927.86)"/>
    <path id="Path_598" data-name="Path 598" class="cls-7" d="M810,746.663l11.929,14.418c.046-.042.076-.072.076-.083.091-.273,1.263-3.343.994-3.525s-2.349-4.7-6.5-6.595a12.226,12.226,0,0,1-5.107-4.648Z" transform="translate(-99.937 781.528)"/>
    <path id="Path_599" data-name="Path 599" class="cls-7" d="M810.015,787.13l1.305.759s3.035-2.428,6.037-4.872,5.93-4.838,5.98-4.974c.087-.269,1.26-3.343.99-3.521-.14-.095-.759-1.347-1.9-2.8-8.089-2.277-2.941,3.35-2.254,3.608,0,0-9.865-2.277-10.389,8.465A12.66,12.66,0,0,0,810.015,787.13Z" transform="translate(-99.789 766.043)"/>
    <path id="Path_600" data-name="Path 600" class="cls-14" d="M821.357,791.694l1.719.994,17.454.451a33.711,33.711,0,0,0,6.17,2.967,5.284,5.284,0,0,0,.876.194,39.188,39.188,0,0,0,4.857.091c1.336-.034,2.371-.091,2.371-.091s-.827-22.007-1.449-24.284c-.3-1.108-1.757-.865-3.2-.311a20.949,20.949,0,0,0-3.123,1.582s-7.406.717-8.583,1.355-4.515-.379-6.594,0-5.779-2.447-5.779-2.447c-10.119-3.339-4.428,2.891-3.707,3.164,0,0-9.842-2.277-10.385,8.465S821.357,791.694,821.357,791.694Z" transform="translate(-101.155 766.024)"/>
    <path id="Path_601" data-name="Path 601" class="cls-14" d="M903.137,783.241c.19,4.553,3.737,10.2,5.851,13.189,1.336-.034,2.371-.091,2.371-.091s-.827-22.007-1.449-24.284c-.3-1.108-1.757-.865-3.2-.311C904.977,775.008,902.985,779.572,903.137,783.241Z" transform="translate(-157.729 765.985)"/>
    <path id="Path_602" data-name="Path 602" class="cls-7" d="M903.137,783.241c.19,4.553,3.737,10.2,5.851,13.189,1.336-.034,2.371-.091,2.371-.091s-.827-22.007-1.449-24.284c-.3-1.108-1.757-.865-3.2-.311C904.977,775.008,902.985,779.572,903.137,783.241Z" transform="translate(-157.729 765.985)"/>
    <path id="Path_603" data-name="Path 603" class="cls-13" d="M894.81,783.845c1.2,4.394,1.188,9.323,3.1,12.3a5.281,5.281,0,0,0,.876.194,39.189,39.189,0,0,0,4.857.091c1.336-.034,2.371-.091,2.371-.091s-.827-22.007-1.449-24.284c-.3-1.108-1.757-.865-3.2-.311a20.939,20.939,0,0,0-3.123,1.582S893.277,778.222,894.81,783.845Z" transform="translate(-152.385 765.985)"/>
    <path id="Path_604" data-name="Path 604" class="cls-7" d="M736.77,686.94s8.659,2.812,16,12.8Z" transform="translate(-54.493 818.322)"/>
    <g id="Group_47" data-name="Group 47" class="cls-16" transform="translate(703.445 1390.658)">
      <path id="Path_605" data-name="Path 605" d="M921.653,401.26a1.761,1.761,0,0,1-.053.19,6.129,6.129,0,0,1-.3.759A5.668,5.668,0,0,1,921.653,401.26Z" transform="translate(-872.451 -395.052)"/>
      <path id="Path_606" data-name="Path 606" d="M792.768,386.725a8.143,8.143,0,0,1,.672-1.825c-.046.156-.095.311-.133.471a13.028,13.028,0,0,0,.4,5.991,4.173,4.173,0,0,0,1.457,2.675c1.347.861,3.415.11,4.523,1.271.7.74.736,2.053,1.647,2.508a1.863,1.863,0,0,0,1.078.125c2.4-.341,3.794-3.035,6.1-3.794a6.127,6.127,0,0,1,4.041.349,2.959,2.959,0,0,1,1.336.858c.759,1,.231,2.47.588,3.677.5,1.677,2.5,2.345,4.234,2.561s3.688.341,4.845,1.654a4.394,4.394,0,0,1,.861,3.495,2.815,2.815,0,0,0,0,1.294c.478,1.355,2.823,1.138,3.415.083.448-.778.315-1.423,1.37-1.639a4.491,4.491,0,0,1,2.208.379,16.231,16.231,0,0,0,5.836.876,7.736,7.736,0,0,0,4.58-1.389,5.311,5.311,0,0,0,1.4-1.707,5.745,5.745,0,0,1-1.935,3.066,7.754,7.754,0,0,1-4.58,1.389,16.2,16.2,0,0,1-5.832-.876,4.543,4.543,0,0,0-2.212-.379c-1.055.216-.922.861-1.366,1.639-.615,1.07-2.956,1.271-3.438-.083a2.815,2.815,0,0,1,0-1.294,4.384,4.384,0,0,0-.858-3.495c-1.161-1.309-3.115-1.434-4.849-1.651s-3.737-.884-4.231-2.561c-.36-1.21.182-2.683-.588-3.681a2.99,2.99,0,0,0-1.339-.857,6.223,6.223,0,0,0-4.041-.349c-2.307.759-3.7,3.46-6.1,3.794a1.863,1.863,0,0,1-1.078-.125c-.911-.455-.949-1.768-1.647-2.5-1.1-1.161-3.176-.414-4.519-1.275a4.16,4.16,0,0,1-1.461-2.675A13.1,13.1,0,0,1,792.768,386.725Z" transform="translate(-792.558 -384.9)"/>
    </g>
    <path id="Path_607" data-name="Path 607" class="cls-7" d="M914.053,573.18c-1.654,2.235-3.544,4.3-5.009,6.667a12.647,12.647,0,0,0-2.193,7.885c1.518-1.556,2.208-3.7,3.164-5.654,1.616-3.3,4.037-6.1,6.071-9.137.379-.581,2.888-3.927,1.624-4.087C916.671,568.721,914.618,572.417,914.053,573.18Z" transform="translate(-160.006 891.604)"/>
  </g>
</svg>
