<svg xmlns="http://www.w3.org/2000/svg" xmlns:xlink="http://www.w3.org/1999/xlink" viewBox="0 0 763.69 561.364">
  <defs>
    <style>
      .cls-1, .cls-5 {
        fill: #3480e3;
      }

      .cls-1, .cls-24, .cls-6 {
        opacity: 0.1;
      }

      .cls-2 {
        opacity: 0.9;
      }

      .cls-10, .cls-3 {
        fill: #3a3768;
      }

      .cls-4 {
        fill: #e6e8ec;
      }

      .cls-7 {
        fill: #ffd037;
      }

      .cls-8 {
        fill: #a8a8a8;
      }

      .cls-9 {
        opacity: 0.2;
      }

      .cls-10 {
        opacity: 0.3;
      }

      .cls-11 {
        fill: #fff;
      }

      .cls-12 {
        fill: #514e7f;
      }

      .cls-13 {
        fill: #464353;
      }

      .cls-14 {
        fill: #a1616a;
      }

      .cls-15 {
        fill: #fbbebe;
      }

      .cls-16, .cls-20 {
        opacity: 0.05;
      }

      .cls-17 {
        fill: #3f3d56;
      }

      .cls-18 {
        fill: url(#linear-gradient);
      }

      .cls-19 {
        fill: #2d293d;
      }

      .cls-21 {
        fill: #ffcdd3;
      }

      .cls-22 {
        fill: #dce6f2;
      }

      .cls-23 {
        fill: #575988;
      }
    </style>
    <linearGradient id="linear-gradient" x1="0.501" y1="1" x2="0.501" gradientUnits="objectBoundingBox">
      <stop offset="0" stop-color="gray" stop-opacity="0.251"/>
      <stop offset="0.54" stop-color="gray" stop-opacity="0.122"/>
      <stop offset="1" stop-color="gray" stop-opacity="0.102"/>
    </linearGradient>
  </defs>
  <g id="undraw_mobile_marketing_iqbr" transform="translate(-1058.31 -2259.061)">
    <path id="Path_302" data-name="Path 302" class="cls-1" d="M515.574,124.61c-45.078-1.567-88.01-16.117-129.007-32.039s-81.6-33.565-125.629-42c-28.271-5.426-60.638-6.192-83.441,8.971-21.94,14.627-29.03,39.805-32.84,63.187-2.87,17.6-4.555,36.114,3.3,52.586,5.461,11.437,15.142,21.048,21.842,32.039,23.312,38.113,6.833,85.113-18.423,122.327-11.841,17.454-25.6,34.129-34.742,52.7s-13.373,39.875-5.37,58.827c7.926,18.806,26.822,32.9,47.293,42.835,41.574,20.157,90.546,25.931,138.333,29.2,105.75,7.237,212.058,4.1,318.087.968,39.241-1.163,78.649-2.34,117.25-8.407,21.439-3.371,43.566-8.72,59.126-21.592,19.76-16.389,24.656-44.144,11.416-64.691-22.2-34.47-83.581-43.037-99.12-80.028-8.539-20.359.23-43.044,12.649-61.926,26.634-40.516,71.273-76.051,73.621-122.362,1.616-31.8-19.843-63.654-53.025-78.705C702.119,60.719,653.886,62.7,628.24,88.816,601.808,115.646,555.379,125.989,515.574,124.61Z" transform="translate(989.767 2212.043)"/>
    <g id="Group_44" data-name="Group 44" class="cls-2" transform="translate(1346.461 2337.169)">
      <rect id="Rectangle_65" data-name="Rectangle 65" class="cls-3" width="6.171" height="50.859" rx="2.29" transform="translate(205.204 95.17)"/>
      <rect id="Rectangle_66" data-name="Rectangle 66" class="cls-3" width="3.462" height="16.744" rx="1.731" transform="translate(0.125 55.33)"/>
      <rect id="Rectangle_67" data-name="Rectangle 67" class="cls-3" width="3.9" height="29.142" rx="1.95" transform="translate(0 85.984)"/>
      <rect id="Rectangle_68" data-name="Rectangle 68" class="cls-3" width="3.712" height="29.393" rx="1.856" transform="translate(0.063 125.322)"/>
      <rect id="Rectangle_69" data-name="Rectangle 69" class="cls-3" width="206.444" height="419.568" rx="38.99" transform="translate(2.09)"/>
      <rect id="Rectangle_70" data-name="Rectangle 70" class="cls-4" width="28.828" height="5.851" rx="2.925" transform="translate(85.392 12.523)"/>
      <circle id="Ellipse_48" data-name="Ellipse 48" class="cls-4" cx="3.322" cy="3.322" r="3.322" transform="translate(118.58 12.133)"/>
    </g>
    <ellipse id="Ellipse_49" data-name="Ellipse 49" class="cls-1" cx="139.28" cy="14.195" rx="139.28" ry="14.195" transform="translate(1084.826 2752.195)"/>
    <ellipse id="Ellipse_50" data-name="Ellipse 50" class="cls-1" cx="65.249" cy="6.652" rx="65.249" ry="6.652" transform="translate(1468.552 2807.122)"/>
    <ellipse id="Ellipse_51" data-name="Ellipse 51" class="cls-1" cx="65.249" cy="6.652" rx="65.249" ry="6.652" transform="translate(1691.503 2773.606)"/>
    <path id="Path_303" data-name="Path 303" class="cls-5" d="M651.311,174.84H627.7v2.849a13.5,13.5,0,0,1-13.5,13.5H538.854a13.5,13.5,0,0,1-13.5-13.5V174.84H503.179a16.389,16.389,0,0,0-16.389,16.4v364.92a16.389,16.389,0,0,0,16.389,16.4H651.311a16.4,16.4,0,0,0,16.4-16.4V191.236A16.4,16.4,0,0,0,651.311,174.84Z" transform="translate(874.514 2173.25)"/>
    <path id="Path_304" data-name="Path 304" class="cls-5" d="M844.7,132.7s-58.646-3.538-51.729,37.556c0,0-1.393,7.265,5.21,10.559,0,0,.1-3.044,6.011-2.013a26.774,26.774,0,0,0,6.373.306,13.234,13.234,0,0,0,7.794-3.211h0s16.479-6.812,22.894-33.753c0,0,4.743-5.879,4.555-7.39l-9.9,4.228s3.378,7.139.7,13.073c0,0-.32-12.816-2.222-12.537-.39.056-5.147,2.473-5.147,2.473s5.823,12.433,1.393,21.473c0,0,1.665-15.323-3.246-20.575l-6.965,4.068s6.8,12.844,2.194,23.326c0,0,1.177-16.075-3.657-22.337l-6.31,4.924s6.387,12.655,2.494,21.348c0,0-.515-18.708-3.866-20.122,0,0-5.523,4.876-6.366,6.868,0,0,4.374,9.194,1.665,14.042,0,0-1.665-12.467-3.03-12.537,0,0-5.5,8.261-6.074,13.93,0,0,.237-8.421,4.736-14.71,0,0-5.314.912-8.421,4.36,0,0,.857-5.837,9.751-6.352,0,0,4.548-6.269,5.767-6.645,0,0-8.88-.745-14.264,1.644,0,0,4.736-5.509,15.894-3l6.227-5.091s-11.687-1.595-16.646.167c0,0,5.711-4.876,18.332-1.323l6.784-4.054s-9.967-2.152-15.908-1.393c0,0,6.268-3.378,17.893.286l4.875-2.18s-7.306-1.435-9.445-1.665-2.25-.815-2.25-.815A25.318,25.318,0,0,1,834.61,137.2S844.876,133.344,844.7,132.7Z" transform="translate(781.761 2186.063)"/>
    <path id="Path_305" data-name="Path 305" class="cls-5" d="M770.835,106.475s-26.467-1.595-23.375,16.974a4.53,4.53,0,0,0,2.354,4.771s.049-1.393,2.716-.912a12.2,12.2,0,0,0,2.877.139A6,6,0,0,0,758.932,126h0s7.446-3.079,10.343-15.253c0,0,2.145-2.654,2.09-3.336l-4.472,1.908s1.525,3.225.32,5.906c0,0-.139-5.788-1-5.656-.174,0-2.319,1.121-2.319,1.121s2.626,5.614.641,9.7c0,0,.752-6.923-1.463-9.3l-3.148,1.839s3.072,5.8.989,10.538c0,0,.536-7.265-1.651-10.092l-2.856,2.229s2.89,5.718,1.128,9.647c0,0-.23-8.456-1.741-9.1,0,0-2.5,2.2-2.877,3.106,0,0,1.971,4.179.745,6.345,0,0-.752-5.635-1.393-5.663,0,0-2.486,3.733-2.744,6.269a13.555,13.555,0,0,1,2.138-6.645,7.46,7.46,0,0,0-3.8,1.971s.383-2.64,4.416-2.87c0,0,2.055-2.835,2.6-3.009,0,0-4.012-.334-6.443.745,0,0,2.138-2.487,7.181-1.393l2.786-2.3s-5.28-.7-7.522.077c0,0,2.584-2.2,8.281-.6l3.065-1.832a27.843,27.843,0,0,0-7.181-.62s2.828-1.525,8.079.125l2.194-.982s-3.294-.648-4.263-.752-1.017-.369-1.017-.369a11.4,11.4,0,0,1,6.192.7S770.912,106.768,770.835,106.475Z" transform="translate(795.478 2194.009)"/>
    <ellipse id="Ellipse_52" data-name="Ellipse 52" class="cls-5" cx="28.006" cy="4.736" rx="28.006" ry="4.736" transform="translate(1058.31 2726.954)"/>
    <path id="Path_306" data-name="Path 306" class="cls-5" d="M97.306,708.836a8.1,8.1,0,0,0,2.675-4.026,3.609,3.609,0,0,0-1.867-4.1c-1.713-.662-3.545.529-4.931,1.727s-2.981,2.57-4.8,2.312a7.293,7.293,0,0,0,2.236-6.833,2.786,2.786,0,0,0-.627-1.393c-.947-1.017-2.675-.578-3.817.223-3.622,2.549-4.632,7.466-4.646,11.9a21.946,21.946,0,0,1-.07-4.875c-.007-1.609-.46-3.483-1.839-4.332a5.573,5.573,0,0,0-2.786-.662c-1.63-.056-3.441.1-4.555,1.3-1.393,1.477-1.024,3.963.181,5.572a18.209,18.209,0,0,0,4.708,3.775,10.391,10.391,0,0,1,3.371,3.211,3.074,3.074,0,0,1,.251.571H91a28.393,28.393,0,0,0,6.31-4.36Z" transform="translate(1000.587 2015.102)"/>
    <path id="Path_307" data-name="Path 307" class="cls-5" d="M875.116,630.54s6.025,7.884-2.786,19.781-16.068,21.94-13.129,29.358c0,0,13.289-22.093,24.106-22.407S887.012,643.829,875.116,630.54Z" transform="translate(761.69 2034.947)"/>
    <path id="Path_308" data-name="Path 308" class="cls-6" d="M875.266,630.54a9.926,9.926,0,0,1,1.233,2.473c10.552,12.4,16.173,23.974,6.025,24.259-9.445.272-20.784,17.169-23.493,21.432a7.978,7.978,0,0,0,.32.975s13.289-22.093,24.106-22.407S887.162,643.829,875.266,630.54Z" transform="translate(761.541 2034.947)"/>
    <path id="Path_309" data-name="Path 309" class="cls-7" d="M897.813,644.226c0,2.786-.313,5.022-.7,5.022s-.7-2.25-.7-5.022.39-1.463.773-1.463S897.813,641.44,897.813,644.226Z" transform="translate(750.193 2031.333)"/>
    <path id="Path_310" data-name="Path 310" class="cls-7" d="M901.867,648.89c-2.438,1.323-4.555,2.131-4.743,1.79s1.644-1.685,4.082-3.016,1.47-.355,1.658,0S904.305,647.56,901.867,648.89Z" transform="translate(749.983 2029.956)"/>
    <path id="Path_311" data-name="Path 311" class="cls-5" d="M830.749,630.54s-6.025,7.884,2.786,19.781,16.068,21.94,13.136,29.358c0,0-13.289-22.093-24.106-22.407S818.853,643.829,830.749,630.54Z" transform="translate(774.227 2034.947)"/>
    <path id="Path_312" data-name="Path 312" class="cls-6" d="M830.747,630.54a9.645,9.645,0,0,0-1.233,2.472c-10.552,12.4-16.173,23.974-6.032,24.259,9.452.272,20.784,17.169,23.5,21.432a9.381,9.381,0,0,1-.32.975s-13.289-22.093-24.106-22.407S818.851,643.829,830.747,630.54Z" transform="translate(774.229 2034.947)"/>
    <path id="Path_313" data-name="Path 313" class="cls-7" d="M820.55,644.226c0,2.786.313,5.022.7,5.022s.7-2.25.7-5.022-.39-1.463-.773-1.463S820.55,641.44,820.55,644.226Z" transform="translate(773.219 2031.333)"/>
    <path id="Path_314" data-name="Path 314" class="cls-7" d="M814.359,648.89c2.431,1.323,4.555,2.131,4.736,1.79s-1.637-1.685-4.075-3.016-1.477-.355-1.658,0S811.949,647.56,814.359,648.89Z" transform="translate(775.545 2029.956)"/>
    <path id="Path_315" data-name="Path 315" class="cls-8" d="M823.31,695.642s16.848-.522,21.926-4.137,25.917-7.933,27.164-2.131,25.318,28.842,6.269,29-44.2-2.967-49.264-6.053S823.31,695.642,823.31,695.642Z" transform="translate(772.381 2017.953)"/>
    <path id="Path_316" data-name="Path 316" class="cls-9" d="M879.051,720.308c-19.021.153-44.2-2.967-49.264-6.053-3.866-2.347-5.4-10.782-5.913-14.675h-.564s1.066,13.589,6.136,16.674,30.242,6.206,49.264,6.053c5.488-.049,7.39-2,7.285-4.876C885.229,719.18,883.14,720.273,879.051,720.308Z" transform="translate(772.381 2013.994)"/>
    <rect id="Rectangle_71" data-name="Rectangle 71" class="cls-10" width="54.348" height="54.348" transform="translate(1465.438 2598.867)"/>
    <rect id="Rectangle_72" data-name="Rectangle 72" class="cls-10" width="54.348" height="54.348" transform="translate(1385.34 2527.126)"/>
    <rect id="Rectangle_73" data-name="Rectangle 73" class="cls-10" width="54.348" height="54.348" transform="translate(1390.564 2669.381)"/>
    <rect id="Rectangle_74" data-name="Rectangle 74" class="cls-11" width="54.348" height="54.348" transform="translate(1378.438 2393.683)"/>
    <path id="Path_317" data-name="Path 317" class="cls-5" d="M564.709,265.79l-1.929,1.922a6.8,6.8,0,0,1,0,9.633l1.929,1.936a9.542,9.542,0,0,0,0-13.491Z" transform="translate(851.451 2145.647)"/>
    <path id="Path_318" data-name="Path 318" class="cls-5" d="M556.653,259.768l-1.9,1.9a12.105,12.105,0,0,1,0,17.106l1.9,1.9a14.78,14.78,0,0,0,0-20.9Zm-9.055,7.118V258.18h-2.682l-8.024,6.686h-10.7L523.52,266.2v9.368l2.675,1.337,6.714,10.705h4.012l-2.507-10.705h2.507l8.024,5.356h2.681v-8.706a3.42,3.42,0,0,0,0-6.672Z" transform="translate(863.366 2147.957)"/>
    <rect id="Rectangle_75" data-name="Rectangle 75" class="cls-11" width="54.348" height="54.348" transform="matrix(0.742, -0.671, 0.671, 0.742, 1468.593, 2615.74)"/>
    <path id="Path_319" data-name="Path 319" class="cls-5" d="M673.34,547.923l3.942-3.58,21.592,23.8-3.97,3.594Zm9.312,22.288,3.97-3.587,6.269,6.965-3.97,3.587Zm8.316-14.738,3.97-3.594,9.869,10.914-3.963,3.587Zm.564-11.339,3.97-3.594,15.26,16.862L706.793,561Z" transform="translate(817.897 2062.262)"/>
    <rect id="Rectangle_76" data-name="Rectangle 76" class="cls-11" width="54.348" height="54.348" transform="translate(1464.54 2459.176)"/>
    <path id="Path_320" data-name="Path 320" class="cls-5" d="M676.181,363.7l-7.292,11.144a3.969,3.969,0,0,1,.905,2.535,4.019,4.019,0,0,1-8.031,0,4.423,4.423,0,0,1,.07-.745l-4.82-2.786a4.033,4.033,0,0,1-4.757.6l-5.126,4.8v4.785A3.58,3.58,0,0,0,650.7,387.6h30.326a3.587,3.587,0,0,0,3.573-3.573V366.253L679.726,363a3.97,3.97,0,0,1-2.459.85,4.087,4.087,0,0,1-1.059-.146Z" transform="translate(825.851 2116.144)"/>
    <path id="Path_321" data-name="Path 321" class="cls-5" d="M654.234,362.493a4.012,4.012,0,0,1,4.019,4.012,2.6,2.6,0,0,1-.035.522l5.029,2.786a3.949,3.949,0,0,1,2.542-.906,3.857,3.857,0,0,1,.864.1l7.313-11.325a4.012,4.012,0,1,1,7.285-2.326,4.174,4.174,0,0,1-.111.947l3.483,2.305v-6.7a3.58,3.58,0,0,0-3.573-3.566H650.7a3.573,3.573,0,0,0-3.573,3.566v19.182l3.343-3.2a4.054,4.054,0,0,1-.251-1.393A4.012,4.012,0,0,1,654.234,362.493Z" transform="translate(825.851 2120.594)"/>
    <rect id="Rectangle_77" data-name="Rectangle 77" class="cls-11" width="54.348" height="54.348" transform="translate(1395.836 2519.771)"/>
    <path id="Path_322" data-name="Path 322" class="cls-5" d="M584.2,435.454l-33.432,18.109a.7.7,0,0,0,.049,1.247l5.7,2.152a1.393,1.393,0,0,1,.752.7l4.43,9.124c.083.4.829.515.836.1l-.7-7.543a2.682,2.682,0,0,1,.613-1.525l17.329-16.981a.432.432,0,0,1,.383-.111.4.4,0,0,1,.216.634l-14.94,18.262a3.335,3.335,0,0,0-.585,1.5l-.892,6.512c.07.571.515.787.878.279l3.218-3.782a.7.7,0,0,1,.947-.153l8.3,6.046a.7.7,0,0,0,1.052-.411l6.8-33.432a.7.7,0,0,0-.975-.752Z" transform="translate(855.206 2094.18)"/>
    <path id="Path_323" data-name="Path 323" class="cls-5" d="M1023.006,776.362c3.162.411,6.443.7,9.472-.32.467-.146,1-.467.94-.947a1.114,1.114,0,0,0-.216-.46,29.552,29.552,0,0,1-2.877-5.454.445.445,0,0,0-.174-.244.425.425,0,0,0-.306,0c-1.393.362-2.6,1.268-4,1.651a5.709,5.709,0,0,1-2.173.167c-.627-.07-1.49-.592-2.055-.529C1021.968,772.295,1022.762,774.252,1023.006,776.362Z" transform="translate(712.195 1992.953)"/>
    <path id="Path_324" data-name="Path 324" class="cls-5" d="M1108.029,767.284c2.09-1.393,4.249-2.939,5.482-5.147a.844.844,0,0,0,.146-.439.907.907,0,0,0-.174-.432,17.848,17.848,0,0,0-4.451-4.806,13.156,13.156,0,0,0-2.487,2.291c-.522.55-1.971,1.456-1.985,2.278,0,.495.55,1.031.808,1.393.348.515.7,1.045,1,1.574A26.119,26.119,0,0,1,1108.029,767.284Z" transform="translate(687.023 1996.731)"/>
    <path id="Path_325" data-name="Path 325" class="cls-12" d="M1027.341,784.215a2.089,2.089,0,0,1-.376,1.393,1.86,1.86,0,0,1-.8.467c-4.43,1.581-9.528-.4-13.93,1.17-.912.32-1.769.78-2.682,1.087a14.521,14.521,0,0,1-3.322.592c-1.567.153-3.134.244-4.7.285a11.37,11.37,0,0,1-3.538-.306,4.283,4.283,0,0,1-2.716-2.152,2.089,2.089,0,0,1-.132-1.532,1.733,1.733,0,0,1,.286-.495,4.24,4.24,0,0,1,1.045-.843l1.63-1.052a10.889,10.889,0,0,1,2.466-1.309c.641-.209,1.33-.3,1.978-.488,2.292-.7,4.033-2.487,5.656-4.228l2.215-2.361a2.166,2.166,0,0,1,.766-.613,2.088,2.088,0,0,1,.947-.1,12.793,12.793,0,0,1,6.039,2.034,8.713,8.713,0,0,0,1.491.878,5.321,5.321,0,0,0,4.179-.522c.571-.3.446-.488.7-1.024s.822-.885,1.323-.39a1.458,1.458,0,0,1,.313.6,16.618,16.618,0,0,1,.3,4.924,2.186,2.186,0,0,0,.1.766,4.666,4.666,0,0,0,.432.7,1.084,1.084,0,0,1,.091.181A4.832,4.832,0,0,1,1027.341,784.215Z" transform="translate(720.258 1991.494)"/>
    <path id="Path_326" data-name="Path 326" class="cls-13" d="M1027.341,787.773a2.089,2.089,0,0,1-.376,1.393,1.86,1.86,0,0,1-.8.467c-4.43,1.581-9.528-.4-13.93,1.17-.912.32-1.769.78-2.682,1.087a14.521,14.521,0,0,1-3.322.592c-1.567.153-3.134.244-4.7.285a11.372,11.372,0,0,1-3.538-.306,4.283,4.283,0,0,1-2.716-2.152,2.089,2.089,0,0,1-.132-1.532,1.731,1.731,0,0,1,.286-.495c.265.543.453,1.254.613,1.511a3.093,3.093,0,0,0,2.09,1.5,5.3,5.3,0,0,0,1.888-.244c4.012-1,8.275-1.01,12.119-2.514a28.958,28.958,0,0,1,3.97-1.525,31.557,31.557,0,0,1,4.291-.348c2.264-.181,4.451-.864,6.686-1.219a4.834,4.834,0,0,1,.258,2.333Z" transform="translate(720.258 1987.936)"/>
    <path id="Path_327" data-name="Path 327" class="cls-12" d="M1113.152,768.254a8.038,8.038,0,0,1-2.445,4.353,27.91,27.91,0,0,0-3.413,3.74c-1.156,1.755-1.665,3.921-3.155,5.4a8.544,8.544,0,0,1-1.894,1.393,13.094,13.094,0,0,1-2.459,1.128,18.821,18.821,0,0,1-6.965.383,6.193,6.193,0,0,1-2.2-.432,6.391,6.391,0,0,1-.933-.564,4.431,4.431,0,0,1-1.393-1.442,1.449,1.449,0,0,1-.132-1.038,2.368,2.368,0,0,1,.7-1.017,15.735,15.735,0,0,1,1.678-1.511,9.966,9.966,0,0,0,2.187-1.922,6.269,6.269,0,0,0,.843-1.922,17.228,17.228,0,0,0,.613-3.657,11.518,11.518,0,0,1,.258-2.445c.355-1.254,1.288-2.389,1.177-3.691a.946.946,0,0,1,.049-.557.871.871,0,0,1,.439-.272,7.939,7.939,0,0,1,2.284-.522,2.633,2.633,0,0,1,2.089.829c.328.39.537.933,1.017,1.107a1.685,1.685,0,0,0,.7,0,5.925,5.925,0,0,0,3.315-1.024,4.18,4.18,0,0,0,1.393-3.044c0-.432-.2-.885.467-.975.508-.07.905.46,1.163.808a11.369,11.369,0,0,1,2.236,4.075,1.128,1.128,0,0,1,.425-.084,1.818,1.818,0,0,1,1.518.78A3.007,3.007,0,0,1,1113.152,768.254Z" transform="translate(692.013 1995.49)"/>
    <path id="Path_328" data-name="Path 328" class="cls-13" d="M1113.228,770.366a8.038,8.038,0,0,1-2.445,4.353,27.918,27.918,0,0,0-3.413,3.74c-1.156,1.755-1.665,3.921-3.155,5.4a8.538,8.538,0,0,1-1.894,1.393,13.094,13.094,0,0,1-2.459,1.128,18.82,18.82,0,0,1-6.965.383,6.193,6.193,0,0,1-2.2-.432,6.4,6.4,0,0,1-.933-.564,4.43,4.43,0,0,1-1.393-1.442,3.392,3.392,0,0,1,1.435-.341c1.038.056,1.79,1.031,2.786,1.33,1.393.425,2.786-.571,4.242-.912.933-.216,1.922-.153,2.835-.453a7,7,0,0,0,2.09-1.268,10.61,10.61,0,0,0,2.236-2.159,13.773,13.773,0,0,0,1.316-2.619,37.416,37.416,0,0,1,2.654-5.077,3.365,3.365,0,0,1,.543-.7c.216-.2.488-.348.7-.529a5.541,5.541,0,0,0,1.686-3.072,5.146,5.146,0,0,1,.376-1.024,1.818,1.818,0,0,1,1.518.78A3.01,3.01,0,0,1,1113.228,770.366Z" transform="translate(691.937 1993.378)"/>
    <path id="Path_329" data-name="Path 329" class="cls-14" d="M979.586,552.847a10.111,10.111,0,0,1,2.842,3.322c.7,1.309,4.52,11.478,4.3,12.934,1.254-1.268,6.227-1.477,7.473-2.737.529-.529,3.392-3.176,3.817-3.789s3.615-1.929,3.963-2.556c1.3-2.333-9.236-11.144-7.891-13.484a.571.571,0,0,0,.111-.362.557.557,0,0,0-.174-.279,16.761,16.761,0,0,0-3.051-2.09,4.876,4.876,0,0,1-2.326-2.786,10.011,10.011,0,0,0-2.7,1.825q-2.891,2.473-5.7,5.071c-.738.7-2.145,1.581-2.487,2.549S978.882,552.276,979.586,552.847Z" transform="translate(725.52 2062.116)"/>
    <path id="Path_330" data-name="Path 330" class="cls-12" d="M999.1,552.61a30.528,30.528,0,0,0-4.513,3.691,9.031,9.031,0,0,0-2.876,4.6c-.132.7-.111,1.435-.223,2.152-.467,3.12-3.176,5.412-4.367,8.358a14.283,14.283,0,0,0-.766,2.786,32.842,32.842,0,0,0-.543,5.475c0,1.783,1.714,3.009,2.354,4.673a28.344,28.344,0,0,1,1.135,5.064,61.7,61.7,0,0,0,2.849,9.4c2.354,6.5,9.981,24.468,12.335,30.974,7.209-1.811,26.4-5.969,32.784-9.751,2.131-1.268-14.766-15.588-12.488-16.577a1.15,1.15,0,0,0,.634-.481,1.1,1.1,0,0,0,0-.7c-2.271-9.953-9.4-18.109-12.621-27.86-1.121-3.364-3.134-6.234-4.667-9.438-1.393-2.9-2.124-6.094-3.775-8.846a5.913,5.913,0,0,0-1.205-1.511,7.386,7.386,0,0,0-1.337-.8C1000.9,553.341,1000.019,553.07,999.1,552.61Z" transform="translate(723.064 2058.599)"/>
    <circle id="Ellipse_53" data-name="Ellipse 53" class="cls-14" cx="11.283" cy="11.283" r="11.283" transform="translate(1694.205 2591.261)"/>
    <path id="Path_331" data-name="Path 331" class="cls-13" d="M997.43,547.344a3.782,3.782,0,0,1,4.242-.606,2.089,2.089,0,0,1,1.261,2.034l5.572.084a11.656,11.656,0,0,1,2.654.244,3.858,3.858,0,0,1,2.215,1.393c.07.091.146.2.258.216a.446.446,0,0,0,.258-.091,4.911,4.911,0,0,1,2.786-.5,15.059,15.059,0,0,1,8.191,3.6,2.652,2.652,0,0,1,.975,1.191c.2.634,0,1.449.46,1.881,0,5.259,1.8,10.155,3.009,15.274a6.77,6.77,0,0,0,1.692,2.431,9.748,9.748,0,0,1,1.811,2.7c1.017,2.654-.39,5.767.606,8.435a13.592,13.592,0,0,0,1.922,3.03,7.806,7.806,0,0,1,1.637,3.914c.042.641-.042,1.282,0,1.929a11.755,11.755,0,0,0,.46,2.535c.4,1.539.836,3.079,1.282,4.611.7,2.48,1.672,5.161,3.893,6.484-5.37.912-11.026,1.8-16.145-.063a8.358,8.358,0,0,1-2.013-1.01c-1.846-1.316-2.737-3.573-3.531-5.7a26.774,26.774,0,0,1-1.978-7.355,8.414,8.414,0,0,0-.334-2.4c-.522-1.393-1.9-2.222-3.169-2.988a15.244,15.244,0,0,1-3.81-2.967,5.92,5.92,0,0,1-1.546-4.458c.1-.787.4-1.546.439-2.34a1.874,1.874,0,0,0-1.087-1.929c-3.907-1.184-5.774-5.809-6.645-9.8a31.266,31.266,0,0,1-.5-6.269l-.049-4.033a5.349,5.349,0,0,1-1.755-3.859,4.331,4.331,0,0,0,0-1.275,3.572,3.572,0,0,0-.892-1.393A11.771,11.771,0,0,1,997.43,547.344Z" transform="translate(719.537 2060.5)"/>
    <path id="Path_332" data-name="Path 332" class="cls-13" d="M979.828,564.838a29.831,29.831,0,0,1-.125,3.789c-.111.474-.3.926-.439,1.393a8.22,8.22,0,0,0,.523,5.307,29.5,29.5,0,0,0,2.709,4.7,7.16,7.16,0,0,1,.871,1.623,8.41,8.41,0,0,1,.334,1.86,56.633,56.633,0,0,0,1.33,7.48A14.7,14.7,0,0,0,987.664,597a1.825,1.825,0,0,0,1.087.738,1.964,1.964,0,0,0,.926-.2l2.884-1.094a2.011,2.011,0,0,0,.7-.362,1.749,1.749,0,0,0,.4-1.128,16.585,16.585,0,0,0-1.268-6.833c-2.34-6.645-5.447-13.046-6.965-19.92-.425-1.922-.648-4.876-2.048-6.373-.578-.627-.383-.362-1.073,0a8.732,8.732,0,0,0-1.01.536A3.308,3.308,0,0,0,979.828,564.838Z" transform="translate(725.117 2055.913)"/>
    <path id="Path_333" data-name="Path 333" class="cls-13" d="M1059.24,625.68" transform="translate(700.778 2036.422)"/>
    <path id="Path_334" data-name="Path 334" class="cls-5" d="M992.346,575.891q1.149,6.081,2.347,12.168l11.2-2.939a7.845,7.845,0,0,0-.968-3.35c-1.024-2.563-1.045-5.412-1.874-8.045-.627-2.006-1.713-3.852-2.3-5.872-.341-1.17-.508-2.4-.843-3.573a27.3,27.3,0,0,0-1.316-3.406,21.7,21.7,0,0,0-2.445-4.534,7.142,7.142,0,0,0-3.775,2.445,5.2,5.2,0,0,0-.7,2.41c-.195,2.521.7,5.05.411,7.543a22.289,22.289,0,0,0,.258,7.153Z" transform="translate(721.291 2057.467)"/>
    <path id="Path_335" data-name="Path 335" class="cls-13" d="M1009.658,651.484c.627,2.4-.286,4.876-1.024,7.258a56.352,56.352,0,0,0-2.285,10.928,9.055,9.055,0,0,1-.564,2.786,26.046,26.046,0,0,1-1.358,2.229c-1.128,1.992-1.1,4.43-.857,6.707.16,1.5.4,3,.7,4.485.369,1.8.822,3.7.293,5.461.885-.2,1.491.947,1.456,1.86s-.355,1.888.077,2.688c1.1.4,1.114,1.908,1.08,3.072a25.9,25.9,0,0,0,.759,6.018q2.493,11.973,5.293,23.883c4.033,1.254,8.741,2.556,12.586.822a2.473,2.473,0,0,0,1.595-1.6,2.881,2.881,0,0,0-.153-1.233l-1.825-6.631a12.207,12.207,0,0,1-.655-4.876c.181-1.233.7-2.556.111-3.636a10.506,10.506,0,0,0-.766-1.017c-.961-1.393-.46-3.267-.376-4.966a3.887,3.887,0,0,0-.083-1.135,5.952,5.952,0,0,0-.536-1.247,19.037,19.037,0,0,1-2.09-9.472,2.326,2.326,0,0,0-.167-1.24,2.845,2.845,0,0,1-.306-.5,1.345,1.345,0,0,1,.1-.912,7.923,7.923,0,0,1-1.47-1.393,2.09,2.09,0,0,0,.348-3.218,1.073,1.073,0,0,0,.515-1.846c-.237-.167-.543-.237-.7-.474-.258-.348-.049-.843.16-1.219l1.114-2.013c.829-1.49,1.017-3.336,1.908-4.792a35.962,35.962,0,0,0,2.939-6.707l3.176-8.846,2.159,1.874a6.758,6.758,0,0,1,1.776,2.027,8.546,8.546,0,0,1,.571,2.424c.794,4.806,3.824,8.971,4.945,13.714a9.243,9.243,0,0,0,1.017,3.065,6.631,6.631,0,0,1,.585.878,4.621,4.621,0,0,1,.244,1.456,6.784,6.784,0,0,0,2.863,4.876c1.059.7,2.4,1.233,2.96,2.389a4.724,4.724,0,0,0,.488,1.017c.516.62,1.63.7,1.853,1.47.118.439-.112.954.139,1.337a1.218,1.218,0,0,0,.522.39l3.113,1.56c3.483,1.734,5.238,5.711,7.808,8.63a17.934,17.934,0,0,1,2.333,3.092c1.107,1.978,1.623,4.465,3.483,5.739a5.411,5.411,0,0,1,1.351,1c.592.773.376,1.86.425,2.835s.8,2.131,1.727,1.839a6.721,6.721,0,0,0,0,3.6,18.15,18.15,0,0,0,11-4.458,4.341,4.341,0,0,0,1.79-3,1.161,1.161,0,0,0-.132-.6,1.629,1.629,0,0,0-.7-.529c-2.9-1.574-3.782-5.224-5.238-8.191a68.559,68.559,0,0,0-4.792-7.3c-3.483-5.224-5.809-11.541-11.04-15-1.149-.759-2.486-1.435-3.058-2.689a21.493,21.493,0,0,1-.613-2.229,1.873,1.873,0,0,0-1.637-1.393,9.941,9.941,0,0,0,.376-3.482,4.332,4.332,0,0,0-.174-1.5,7.071,7.071,0,0,0-.766-1.477,14.312,14.312,0,0,1-1.971-7.662,12.34,12.34,0,0,0-.132-4.116c-.209-.7-.571-1.275-.829-1.922a11.991,11.991,0,0,1-.6-3.587l-.286-4.59a21.953,21.953,0,0,0-.592-4.534c-.968-3.559-1.894-18.471-5.175-20.15s-8.88,9.793-12.537,10.023a16.715,16.715,0,0,0-4.792.919,23.227,23.227,0,0,0-6.5,4.311l-6.77,5.684a24.675,24.675,0,0,1-4.2,3.03Z" transform="translate(717.715 2035.916)"/>
    <path id="Path_336" data-name="Path 336" class="cls-13" d="M964.469,520.784a8.511,8.511,0,0,1,6.568-3.2,15.323,15.323,0,0,1,7.258,1.825,9.354,9.354,0,0,0,2.089.871c1.2.244,2.521-.084,3.6.488,1.435.759,1.706,2.7,1.581,4.311s-.425,3.385.432,4.771a13.206,13.206,0,0,1,.829,1.24,4.137,4.137,0,0,1-.077,2.654,21.317,21.317,0,0,1-1.393-1.748,1.621,1.621,0,0,0-1.971-.515c-.613.411-.613,1.17-.641,1.846s-.209,1.491-.85,1.713a1.393,1.393,0,0,1-1.393-.557c-1.094-1.337-.655-3.483-1.734-4.82-.62-.766-1.644-1.135-2.215-1.936-.446-.627-.557-1.442-.947-2.089s-1.3-1.177-1.915-.7a2.605,2.605,0,0,0-.508.7,2.932,2.932,0,0,1-3.482,1.045,6.113,6.113,0,0,0-1.511-.648,1.86,1.86,0,0,0-1.72.933,3.706,3.706,0,0,0-.453,1.992,4.632,4.632,0,0,1-.376,2.737,2.827,2.827,0,0,1-.808.7,2.391,2.391,0,0,1-2.647.272,1.992,1.992,0,0,1-.592-1.853,15.253,15.253,0,0,1,.564-1.957c.418-1.477-.125-3.141.334-4.534A14.273,14.273,0,0,1,964.469,520.784Z" transform="translate(730.426 2069.23)"/>
    <path id="Path_337" data-name="Path 337" class="cls-5" d="M974.4,561.662a1.742,1.742,0,0,0,.1,1.038,1.685,1.685,0,0,0,.564.543,11.686,11.686,0,0,0,5.321,1.72,1.6,1.6,0,0,1,.7.188,1.316,1.316,0,0,1,.313,1.483,3.95,3.95,0,0,0-.334,1.574c.139,1,1.316,1.449,2.319,1.574a5.377,5.377,0,0,0,4.033-.78,6.22,6.22,0,0,0,1.665-2.5c2.737-6.269,3.7-13.234,6.471-19.5a3.965,3.965,0,0,0,.418-1.3,1.3,1.3,0,0,0-.515-1.2c-.515-.32-1.316-.139-1.665-.634-.174-.258-.153-.6-.306-.864-.32-.571-1.156-.5-1.734-.808-.446-.244-.759-.7-1.254-.829a1.6,1.6,0,0,0-1.309.564c-1.623,1.518-2.48,3.671-3.385,5.7a67.751,67.751,0,0,1-4.876,8.992c.216-.334-1.031-2.877-1.518-2.974-.85-.174-1.95,1.323-2.41,1.888a11.952,11.952,0,0,0-2.6,6.129Z" transform="translate(726.536 2062.014)"/>
    <rect id="Rectangle_78" data-name="Rectangle 78" class="cls-11" width="54.348" height="54.348" transform="translate(1706.638 2632.591)"/>
    <path id="Path_338" data-name="Path 338" class="cls-5" d="M1014.457,606.4V599.27H996.64v32.109h34.79V606.4Zm-10.691,21.4h-3.559V624.24h3.559Zm0-7.132h-3.559v-3.566h3.559Zm0-7.132h-3.559v-3.573h3.559Zm0-7.139h-3.559v-3.573h3.559Zm7.125,21.4h-3.552V624.24h3.559Zm0-7.132h-3.552v-3.566h3.559Zm0-7.132h-3.552v-3.573h3.559Zm0-7.139h-3.552v-3.573h3.559Zm16.981,21.4h-13.415V624.24h3.559v-3.566h-3.559v-3.566h3.559v-3.573h-3.559v-3.566h13.415Zm-3.12-14.264h-3.559v3.573h3.559Zm0,7.132h-3.559v3.573h3.559Z" transform="translate(719.777 2044.438)"/>
    <path id="Path_339" data-name="Path 339" class="cls-14" d="M1058.361,625.093a21.952,21.952,0,0,0-2.577,2.7,5.384,5.384,0,0,0-1.184,3.483,1.791,1.791,0,0,0,.334,1.017.87.87,0,0,0,.968.3,1.393,1.393,0,0,0,.474-.425,22.252,22.252,0,0,1,1.6-1.741c.209-.2.474-.418.752-.341a.8.8,0,0,1,.328.216,2.216,2.216,0,0,1,.7,1.052,2.493,2.493,0,0,1-.738,2.027,5.25,5.25,0,0,0-1.247,1.846.786.786,0,0,0,0,.592.967.967,0,0,0,.369.32,5.377,5.377,0,0,0,4.506.292c.968-.383,1.8-1.052,2.786-1.393a6.7,6.7,0,0,0,1.233-.46,2.535,2.535,0,0,0,1.093-1.63,6.969,6.969,0,0,0,.077-2.013,22.987,22.987,0,0,0-1.679-7.592.907.907,0,0,0-.272-.4.955.955,0,0,0-.46-.132c-1.219-.125-3.225-.752-4.4-.3a3.007,3.007,0,0,0-1.038.926C1059.712,623.68,1058.361,624.773,1058.361,625.093Z" transform="translate(702.187 2037.434)"/>
    <path id="Path_340" data-name="Path 340" class="cls-13" d="M1051.945,605.3c0-1.17-1.449-3.977.843-4.179,0-1.24-1.762-2.02-1.442-3.329.111-.446.467-.8.522-1.247.146-1.275-2.152-1.964-1.776-3.19.139-.467.648-.752.759-1.226.258-1.1-1.713-1.595-1.748-2.723,0-.383.209-.745.2-1.121,0-.481-.418-.843-.648-1.254-.592-1.066-.306-2.716-1.393-3.26.7.056.968-1.01.661-1.665s-.905-1.219-.905-1.943a3.087,3.087,0,0,0,0-.8c-.2-.7-1.344-.745-1.532-1.442a7.49,7.49,0,0,1,0-.787c-.07-.543-.627-.878-1.149-1.038a4.569,4.569,0,0,1-1.532-.543c-.334-.258-.7-.7-1.08-.453-.132.077-.2.23-.306.348-.425.495-1.24.279-1.783-.091a7.375,7.375,0,0,1-2.73-4.917c-.348-1.894-.327-3.852-.745-5.732a13.156,13.156,0,0,0-.508-1.713,8.861,8.861,0,0,1-.808-1.713c-.084-1.094,2.187-.348,3.051-.237a13.552,13.552,0,0,1,2.48.467,26.208,26.208,0,0,1,2.528,1.107c3.483,1.525,7.606,1.713,10.378,4.27.912.843,1.679,1.943,2.856,2.319a14.586,14.586,0,0,1,1.6.418c1.316.62,1.519,2.361,2.236,3.622a7.773,7.773,0,0,1,.592,1.045,4.116,4.116,0,0,1,.188,1.337l.1,3.308a122.208,122.208,0,0,1-.265,16.6,13.7,13.7,0,0,0,.063,5.433c.139.474.341.926.46,1.393a9.48,9.48,0,0,1,.181,1.72l.077,2.138a.516.516,0,0,1-.683.634c-2.988-.265-6-1.95-8.818-.933" transform="translate(708.184 2056.145)"/>
    <path id="Path_341" data-name="Path 341" class="cls-14" d="M979.311,611.873a.918.918,0,0,0-.334.279,2.375,2.375,0,0,0,0,2.828.951.951,0,0,1,.167.279.821.821,0,0,1-.084.474,1.567,1.567,0,0,0,.216,1.755c.216.181.508.272.648.508.244.4-.1.919-.042,1.393.07.62.8.926,1.393,1a1.484,1.484,0,0,0,1.358-.362,1.129,1.129,0,0,0,0-1.233,3.3,3.3,0,0,0-.919-.919,1.393,1.393,0,0,0,1.317-1.275,1.978,1.978,0,0,0-.794-1.734c-.125-.1-.279-.209-.313-.376s.132-.4.286-.557c.7-.7,1.233-2.4-.077-2.786a3.223,3.223,0,0,0-1.393.063c-.334.1-.334.306-.592.446S979.6,611.727,979.311,611.873Z" transform="translate(725.279 2040.847)"/>
    <path id="Path_342" data-name="Path 342" class="cls-6" d="M997,543.14a2.3,2.3,0,0,0-1.769.892,5.091,5.091,0,0,0-.738,2.368,20.758,20.758,0,0,1-2.786,7.564" transform="translate(721.273 2061.473)"/>
    <path id="Path_343" data-name="Path 343" class="cls-6" d="M1000.537,545.88a2.7,2.7,0,0,0-2.312,1.393,7.733,7.733,0,0,0-.585,2.361,12.83,12.83,0,0,1-2.319,4.952" transform="translate(720.177 2060.641)"/>
    <path id="Path_344" data-name="Path 344" class="cls-15" d="M343.087,606.386c.4,4.4-2.918,8.664-1.95,12.969.209.919.606,1.79.752,2.716.4,2.556-1.128,4.98-2.584,7.118l-12.5,18.346a11.887,11.887,0,0,1-1.79,2.208c-2.4,2.09-5.976,1.9-9.117,2.535a15.636,15.636,0,0,0-6.1,2.7.4.4,0,0,0-.084.55,5.259,5.259,0,0,0,4.541,2.131c.327.432,0,1.066-.453,1.393-.7.467-1.6.585-1.727,1.727a1.866,1.866,0,0,0,.23,1.142,3.532,3.532,0,0,0,2.187,1.518c4.325,1.323,9.006-1,12.238-4.179s5.572-7.153,8.748-10.378c1.762-1.776,3.761-3.308,5.572-5.036,3.622-3.441,6.429-7.662,9.145-11.841a13.141,13.141,0,0,0,1.978-4.026c.334-1.435.181-2.946.571-4.367.5-1.853,1.867-3.336,2.995-4.876a16.185,16.185,0,0,0,3.406-10.552c-.293-3.761-2.619-7.48-6.171-8.755a5.523,5.523,0,0,0-3.483-.216,8.406,8.406,0,0,0-3.524,2.786L343.6,604.75a6.324,6.324,0,0,0-1.393,2.089,2.194,2.194,0,0,0,.488,2.333" transform="translate(928.277 2044.509)"/>
    <path id="Path_345" data-name="Path 345" class="cls-16" d="M343.087,606.386c.4,4.4-2.918,8.664-1.95,12.969.209.919.606,1.79.752,2.716.4,2.556-1.128,4.98-2.584,7.118l-12.5,18.346a11.887,11.887,0,0,1-1.79,2.208c-2.4,2.09-5.976,1.9-9.117,2.535a15.636,15.636,0,0,0-6.1,2.7.4.4,0,0,0-.084.55,5.259,5.259,0,0,0,4.541,2.131c.327.432,0,1.066-.453,1.393-.7.467-1.6.585-1.727,1.727a1.866,1.866,0,0,0,.23,1.142,3.532,3.532,0,0,0,2.187,1.518c4.325,1.323,9.006-1,12.238-4.179s5.572-7.153,8.748-10.378c1.762-1.776,3.761-3.308,5.572-5.036,3.622-3.441,6.429-7.662,9.145-11.841a13.141,13.141,0,0,0,1.978-4.026c.334-1.435.181-2.946.571-4.367.5-1.853,1.867-3.336,2.995-4.876a16.185,16.185,0,0,0,3.406-10.552c-.293-3.761-2.619-7.48-6.171-8.755a5.523,5.523,0,0,0-3.483-.216,8.406,8.406,0,0,0-3.524,2.786L343.6,604.75a6.324,6.324,0,0,0-1.393,2.089,2.194,2.194,0,0,0,.488,2.333" transform="translate(928.277 2044.509)"/>
    <path id="Path_346" data-name="Path 346" class="cls-14" d="M218.137,624.182c.7,2.2,1.393,4.4,2.236,6.547a55.4,55.4,0,0,0,5.788,10.559,76.067,76.067,0,0,0,4.785,6.269c2.131,2.514,4.513,5.043,5.266,8.253a41.8,41.8,0,0,1,.474,5.69,6.948,6.948,0,0,0,2.333,5.043,8.671,8.671,0,0,0,3.845,1.268c.961.153,2.166.2,2.668-.634a2.376,2.376,0,0,0,.265-1.1l.237-2.786c.049-.6.258-1.393.857-1.393s.905.773,1.393,1.128a1.511,1.511,0,0,0,2.09-.7,3.482,3.482,0,0,0,.056-2.438,11.576,11.576,0,0,0-5.941-7.362,17.859,17.859,0,0,1-2.9-1.511,9.857,9.857,0,0,1-2.278-2.87c-5.266-8.672-10.559-17.413-14.278-26.822a19.84,19.84,0,0,1-1.47-5.286,34.133,34.133,0,0,1,.23-5.572,31.893,31.893,0,0,0-.919-9.946,7.822,7.822,0,0,0-.954-2.417c-1.525-2.326-5.126-2.668-7.4-1.066a7.62,7.62,0,0,0-2.939,5.377c-.167,1.874.919,3.831,1.47,5.572Q215.608,616.082,218.137,624.182Z" transform="translate(958.043 2045.414)"/>
    <path id="Path_347" data-name="Path 347" class="cls-16" d="M218.137,624.182c.7,2.2,1.393,4.4,2.236,6.547a55.4,55.4,0,0,0,5.788,10.559,76.067,76.067,0,0,0,4.785,6.269c2.131,2.514,4.513,5.043,5.266,8.253a41.8,41.8,0,0,1,.474,5.69,6.948,6.948,0,0,0,2.333,5.043,8.671,8.671,0,0,0,3.845,1.268c.961.153,2.166.2,2.668-.634a2.376,2.376,0,0,0,.265-1.1l.237-2.786c.049-.6.258-1.393.857-1.393s.905.773,1.393,1.128a1.511,1.511,0,0,0,2.09-.7,3.482,3.482,0,0,0,.056-2.438,11.576,11.576,0,0,0-5.941-7.362,17.859,17.859,0,0,1-2.9-1.511,9.857,9.857,0,0,1-2.278-2.87c-5.266-8.672-10.559-17.413-14.278-26.822a19.84,19.84,0,0,1-1.47-5.286,34.133,34.133,0,0,1,.23-5.572,31.893,31.893,0,0,0-.919-9.946,7.822,7.822,0,0,0-.954-2.417c-1.525-2.326-5.126-2.668-7.4-1.066a7.62,7.62,0,0,0-2.939,5.377c-.167,1.874.919,3.831,1.47,5.572Q215.608,616.082,218.137,624.182Z" transform="translate(958.043 2045.414)"/>
    <path id="Path_348" data-name="Path 348" class="cls-17" d="M367.989,752.971c-2.73,1.665-6.129,1.762-9.305,1.393-.508-.063-1.114-.1-1.442.293-.474.571.084,1.393.662,1.881a13.846,13.846,0,0,0,6.394,2.626,43.613,43.613,0,0,0,6.269.418,105.988,105.988,0,0,0,17.085-.634,2.265,2.265,0,0,0,.933-.272,1.769,1.769,0,0,0,.7-1.073,4.27,4.27,0,0,0-1.491-4.068,12.537,12.537,0,0,0-3.984-2.138l-4.959-1.929c-1.163-.453-3.037-1.658-4.3-1.56C372.21,748.061,369.961,751.815,367.989,752.971Z" transform="translate(913.885 1999.329)"/>
    <path id="Path_349" data-name="Path 349" class="cls-17" d="M386.2,769a12.182,12.182,0,0,1-8.323,3.106c-.78,0-1.867.146-1.867.926a1.226,1.226,0,0,0,.223.648,7.661,7.661,0,0,0,4.3,3.371,15.328,15.328,0,0,0,5.2.327l5.084-.265c.961-.049,1.929-.1,2.884-.216s1.992-.314,2.988-.467a39.861,39.861,0,0,1,7.4-.348,2.153,2.153,0,0,0,1.825-.488c.453-.571.188-1.393.042-2.089-.306-1.469,0-3.016-.286-4.5-.487-2.591-2.716-4.583-5.189-5.523-2.285-.871-6.338-1.867-8.5-.418C389.655,764.609,388.255,767.145,386.2,769Z" transform="translate(908.135 1994.948)"/>
    <path id="Path_350" data-name="Path 350" class="cls-13" d="M374.58,665.176c-2.09,2.751-4.179,5.927-3.691,9.326.279,1.832,1.3,3.448,2.055,5.147a36.281,36.281,0,0,1,2.089,7.23c.773,3.6,1.546,7.209,2.027,10.859a67.811,67.811,0,0,1,.453,12.467,4.206,4.206,0,0,1-.871,2.786c-.279.279-.641.508-.759.885a1.5,1.5,0,0,0,.16,1.045,11.569,11.569,0,0,0,6.2,5.7,23.742,23.742,0,0,0,8.428,1.574,2.369,2.369,0,0,0,1.128-.146,2.174,2.174,0,0,0,.871-1c2.09-3.97.926-8.762.961-13.234,0-3.74.905-7.446.745-11.186-.132-2.995-.933-5.92-1.226-8.908-.481-4.875.418-9.821,1.316-14.661.7-3.705,1.393-7.418,2.264-11.088a21.145,21.145,0,0,1,2.4-6.436c.975-1.539,2.3-2.828,3.413-4.276a19.411,19.411,0,0,0,3.817-14.188c-.07-.5-7.174,1.8-7.787,2.09a24.138,24.138,0,0,0-6.965,4.465,57.668,57.668,0,0,0-4.374,5.4q-3.051,3.712-6,7.466Q377.854,660.809,374.58,665.176Z" transform="translate(909.711 2032.984)"/>
    <path id="Path_351" data-name="Path 351" class="cls-16" d="M374.58,665.176c-2.09,2.751-4.179,5.927-3.691,9.326.279,1.832,1.3,3.448,2.055,5.147a36.281,36.281,0,0,1,2.089,7.23c.773,3.6,1.546,7.209,2.027,10.859a67.811,67.811,0,0,1,.453,12.467,4.206,4.206,0,0,1-.871,2.786c-.279.279-.641.508-.759.885a1.5,1.5,0,0,0,.16,1.045,11.569,11.569,0,0,0,6.2,5.7,23.742,23.742,0,0,0,8.428,1.574,2.369,2.369,0,0,0,1.128-.146,2.174,2.174,0,0,0,.871-1c2.09-3.97.926-8.762.961-13.234,0-3.74.905-7.446.745-11.186-.132-2.995-.933-5.92-1.226-8.908-.481-4.875.418-9.821,1.316-14.661.7-3.705,1.393-7.418,2.264-11.088a21.145,21.145,0,0,1,2.4-6.436c.975-1.539,2.3-2.828,3.413-4.276a19.411,19.411,0,0,0,3.817-14.188c-.07-.5-7.174,1.8-7.787,2.09a24.138,24.138,0,0,0-6.965,4.465,57.668,57.668,0,0,0-4.374,5.4q-3.051,3.712-6,7.466Q377.854,660.809,374.58,665.176Z" transform="translate(909.711 2032.984)"/>
    <path id="Path_352" data-name="Path 352" class="cls-13" d="M393.433,642.449c.446,2.131,2.514,3.761,2.57,5.941.049,1.741-1.191,3.2-2.089,4.7a31.523,31.523,0,0,0-2.131,4.834,73.707,73.707,0,0,1-6.269,12.446c-1.191,1.895-2.528,3.949-2.25,6.171a9.11,9.11,0,0,0,1.08,2.946l3.58,7.111a20.41,20.41,0,0,1,1.825,4.492c.313,1.351.341,2.786.522,4.123.564,4.36,2.6,8.748,1.393,12.976-.1.362-.488.8-.773.55a13.55,13.55,0,0,1,2.041,6.965c-.042,1.316-.446,2.682.042,3.907a4.263,4.263,0,0,1,.543,1.491c0,.355-.167.7-.2,1.052a2.329,2.329,0,0,0,1.783,2.166c.961.32,2.006.3,2.974.585,1.867.557,3.19,2.159,4.792,3.274a10.065,10.065,0,0,0,5.5,1.79,1.393,1.393,0,0,0,.808-.16,1.323,1.323,0,0,0,.453-.982,5.461,5.461,0,0,0-1.971-4.743,2.194,2.194,0,0,1-.7-.766,1.859,1.859,0,0,1-.07-.857,63.526,63.526,0,0,0-.209-11.736,18.106,18.106,0,0,1-.181-3.733,15.265,15.265,0,0,0,.3-3.113,15.9,15.9,0,0,0-.954-2.974,20.848,20.848,0,0,1-.453-5.572,48.837,48.837,0,0,0-1.574-9.535,7.237,7.237,0,0,0-1.484-3.441c-.745-.78-1.95-1.518-1.665-2.556a2.951,2.951,0,0,1,.7-1.017,4.082,4.082,0,0,0,.857-3.113,1.393,1.393,0,0,0,1.6-.752A25.074,25.074,0,0,0,416.41,660.6a4.652,4.652,0,0,1,.564-1.275,5.81,5.81,0,0,1,2.305-1.5c2.6-1.309,4.4-3.768,6.053-6.171a14.355,14.355,0,0,0,2.34-4.479,14.756,14.756,0,0,0,.32-3.232l.146-5.572a3.2,3.2,0,0,0-.1-1.094,2.786,2.786,0,0,0-.606-.892,10.817,10.817,0,0,0-5.948-3.2c-1.525-.272-3.086-.223-4.632-.348-2.995-.251-5.955-1.177-8.957-.961-4.708.348-8.9,3.615-11.144,7.78C395.926,641.146,395.1,642.4,393.433,642.449Z" transform="translate(905.945 2034.552)"/>
    <path id="Path_353" data-name="Path 353" class="cls-12" d="M173.03,762.454a7.583,7.583,0,0,0,3.2.383c.077-.885,1.268-1.08,2.152-1.038a2.474,2.474,0,0,1,1.268.279c.223.139.39.348.606.495a2.605,2.605,0,0,0,1.254.32l4.611.39a13.806,13.806,0,0,0,6.115-.4,2,2,0,0,0,.982-.655c.522-.745,0-1.818-.7-2.361s-1.651-.794-2.375-1.351c-1.6-1.219-1.818-3.482-2.668-5.321a15.354,15.354,0,0,0-2.2-3.2,12.237,12.237,0,0,0-2.18-2.229c-1.846-1.337-3.977-1.309-6.143-1.5-1.532-.139-2.974-.23-4.075,1.128-1.358,1.686-.815,5.084-.731,7.1a50.8,50.8,0,0,0,.878,7.961Z" transform="translate(970.058 1999.847)"/>
    <path id="Path_354" data-name="Path 354" class="cls-16" d="M173.03,762.454a7.583,7.583,0,0,0,3.2.383c.077-.885,1.268-1.08,2.152-1.038a2.474,2.474,0,0,1,1.268.279c.223.139.39.348.606.495a2.605,2.605,0,0,0,1.254.32l4.611.39a13.806,13.806,0,0,0,6.115-.4,2,2,0,0,0,.982-.655c.522-.745,0-1.818-.7-2.361s-1.651-.794-2.375-1.351c-1.6-1.219-1.818-3.482-2.668-5.321a15.354,15.354,0,0,0-2.2-3.2,12.237,12.237,0,0,0-2.18-2.229c-1.846-1.337-3.977-1.309-6.143-1.5-1.532-.139-2.974-.23-4.075,1.128-1.358,1.686-.815,5.084-.731,7.1a50.8,50.8,0,0,0,.878,7.961Z" transform="translate(970.058 1999.847)"/>
    <path id="Path_355" data-name="Path 355" class="cls-13" d="M171.461,639.233c-1.393.453-2.02,2.208-1.762,3.671a13.18,13.18,0,0,0,1.86,4c2.048,3.671,2.939,7.87,4.66,11.7,1.289,2.863,3.03,5.509,4.3,8.358s2.09,6.108,1.289,9.152c-.376,1.484-1.1,2.849-1.588,4.3a24.375,24.375,0,0,0-.933,4.875,92.413,92.413,0,0,0-.334,16.828,5.113,5.113,0,0,0,.425,1.992c.286.557.787,1.142.543,1.72-.1.23-.306.4-.411.627-.293.641.3,1.309.836,1.762a1.442,1.442,0,0,1-.905.7,2.138,2.138,0,0,1,.912,2.382c-.481.07-.508.8-.2,1.184s.773.627.989,1.059a1.484,1.484,0,0,1-.815,1.867,3.817,3.817,0,0,1-2.222.167,24.072,24.072,0,0,1-3.719-.815,3.344,3.344,0,0,1-1.142-.522,3.392,3.392,0,0,1-1.024-2.257,40.782,40.782,0,0,1-.258-6.965c.2-11.255,0-22.525-.488-33.773a38.673,38.673,0,0,0-3.315-13.122,67.332,67.332,0,0,0-3.232-6.268c-2.521-4.639-4.764-9.751-4.179-15.01.063-.564.272-1.247.829-1.337a1.205,1.205,0,0,1,.641.1,29.615,29.615,0,0,1,3.378,1.867A12.8,12.8,0,0,0,171.461,639.233Z" transform="translate(973.494 2033.442)"/>
    <path id="Path_356" data-name="Path 356" class="cls-16" d="M171.461,639.233c-1.393.453-2.02,2.208-1.762,3.671a13.18,13.18,0,0,0,1.86,4c2.048,3.671,2.939,7.87,4.66,11.7,1.289,2.863,3.03,5.509,4.3,8.358s2.09,6.108,1.289,9.152c-.376,1.484-1.1,2.849-1.588,4.3a24.375,24.375,0,0,0-.933,4.875,92.413,92.413,0,0,0-.334,16.828,5.113,5.113,0,0,0,.425,1.992c.286.557.787,1.142.543,1.72-.1.23-.306.4-.411.627-.293.641.3,1.309.836,1.762a1.442,1.442,0,0,1-.905.7,2.138,2.138,0,0,1,.912,2.382c-.481.07-.508.8-.2,1.184s.773.627.989,1.059a1.484,1.484,0,0,1-.815,1.867,3.817,3.817,0,0,1-2.222.167,24.072,24.072,0,0,1-3.719-.815,3.344,3.344,0,0,1-1.142-.522,3.392,3.392,0,0,1-1.024-2.257,40.782,40.782,0,0,1-.258-6.965c.2-11.255,0-22.525-.488-33.773a38.673,38.673,0,0,0-3.315-13.122,67.332,67.332,0,0,0-3.232-6.268c-2.521-4.639-4.764-9.751-4.179-15.01.063-.564.272-1.247.829-1.337a1.205,1.205,0,0,1,.641.1,29.615,29.615,0,0,1,3.378,1.867A12.8,12.8,0,0,0,171.461,639.233Z" transform="translate(973.494 2033.442)"/>
    <path id="Path_357" data-name="Path 357" class="cls-13" d="M143.794,620.873a3.714,3.714,0,0,0-5.119.55,27.978,27.978,0,0,0-2.647,2.326,14.16,14.16,0,0,0-3.162,14.007,27.988,27.988,0,0,0,3.873,6.867l3.065,4.4c4.674,6.714,9.354,13.429,14.25,19.983a.752.752,0,0,0,.529.7c.181.049.4.042.508.188a.543.543,0,0,1,.063.3,4.547,4.547,0,0,1-.272,1.393.648.648,0,0,0-.056.481c.153.369.829.16,1.038.508a.554.554,0,0,1-.223.7.806.806,0,0,0-.383.7c.035.286.5.55.481.9,0,.2-.167.341-.286.495a1.261,1.261,0,0,0,.153,1.609c.32,3.2-1.393,6.234-1.762,9.438-.55,5.036,1.727,9.953,2.006,15.01a4.018,4.018,0,0,0,.313,1.658c.474.871,1.686,1.393,1.644,2.389a9.123,9.123,0,0,1-.341,1.2,9.687,9.687,0,0,0,.181,1.72c0,.578-.488,1.268-1.024,1.045q.606,2.006,1.073,4.047l10.726.885a9.633,9.633,0,0,0-.1-2.9c-.223-1.031-.7-2-.933-3.03a3.573,3.573,0,0,1,.425-3.03,1.184,1.184,0,0,1-1.184-.975,4.779,4.779,0,0,1,0-1.665c.286-2.786-.892-5.572-.857-8.358.035-2.215.808-4.339,1.2-6.512.836-4.653-.035-9.7,2.034-13.93,1.254-2.563,2.988-5.4,1.581-7.884-.7-1.226-1.915-2.09-2.709-3.218a13.075,13.075,0,0,1-1.456-3.482c-1.658-5.126-4.325-9.856-6.672-14.71a15.483,15.483,0,0,1-1.435-3.866,19.649,19.649,0,0,1-.174-3.566,54.659,54.659,0,0,0-.4-6.408,4.671,4.671,0,0,0-2.452-4.179C151.783,624.258,147.59,622.872,143.794,620.873Z" transform="translate(982.132 2038.116)"/>
    <path id="Path_358" data-name="Path 358" class="cls-12" d="M166.818,768.1a7.585,7.585,0,0,0,3.2.383c.084-.885,1.268-1.08,2.152-1.038a2.473,2.473,0,0,1,1.233.286c.223.139.39.348.613.495a2.563,2.563,0,0,0,1.254.32l4.6.39a13.844,13.844,0,0,0,6.122-.4,2.013,2.013,0,0,0,.975-.655c.522-.745,0-1.818-.7-2.361s-1.651-.794-2.382-1.351c-1.595-1.219-1.818-3.483-2.668-5.321a15.36,15.36,0,0,0-2.2-3.2,12.2,12.2,0,0,0-2.173-2.229c-1.853-1.337-3.977-1.31-6.143-1.5-1.539-.139-2.981-.23-4.075,1.128-1.393,1.686-.822,5.084-.738,7.1A51.752,51.752,0,0,0,166.818,768.1Z" transform="translate(971.959 1998.133)"/>
    <rect id="Rectangle_79" data-name="Rectangle 79" class="cls-11" width="54.348" height="54.348" transform="translate(1196.935 2685.442)"/>
    <path id="Path_359" data-name="Path 359" class="cls-5" d="M298.87,689.408c0,6.2-2.9,10.1-7.494,10.1-2.347,0-4.137-1.254-4.451-3.113h-.334a4.876,4.876,0,0,1-4.827,3c-4.082,0-6.8-3.274-6.8-8.142,0-4.674,2.744-7.926,6.749-7.926a4.876,4.876,0,0,1,4.576,2.737h.334v-2.326h3.336v10.831a1.936,1.936,0,0,0,2.09,2.159c2.312,0,3.789-2.786,3.789-7.174,0-6.965-5.224-11.625-12.934-11.625s-13.059,5.572-13.059,13.429c0,8.045,5.377,13.185,13.749,13.185a25.226,25.226,0,0,0,4.548-.39,1.323,1.323,0,0,1,.557,2.584,23.152,23.152,0,0,1-5.238.571c-10.176,0-16.716-6.268-16.716-16.02,0-9.528,6.652-16.068,16.34-16.068C292.413,675.164,298.87,680.98,298.87,689.408Zm-20.3,1.922c0,3.092,1.449,4.966,3.817,4.966,2.493,0,4.068-1.922,4.068-4.966s-1.574-4.924-4.026-4.924-3.859,1.825-3.859,4.924Z" transform="translate(941.298 2021.387)"/>
    <circle id="Ellipse_54" data-name="Ellipse 54" class="cls-14" cx="10.622" cy="10.622" r="10.622" transform="translate(1175.685 2619.177)"/>
    <path id="Path_360" data-name="Path 360" class="cls-14" d="M212.227,582.927c-1.525,1.316-3.705,1.393-5.7,1.616a35.655,35.655,0,0,0-12.272,3.552,4.381,4.381,0,0,0-1.393.975,4.018,4.018,0,0,0-.7,1.518,10.044,10.044,0,0,0-.4,3.691,10.642,10.642,0,0,0,1.024,3.483,18.694,18.694,0,0,0,6.589,7.508,4.787,4.787,0,0,0,1.6.766c1.393.292,2.751-.522,4.123-.885a6.755,6.755,0,0,1,3.81.125c1.156.383,2.375,1.087,3.483.62a3.636,3.636,0,0,0,1.588-1.8,61.22,61.22,0,0,0,2.9-6.345,24.047,24.047,0,0,1,1.052-2.466c1.233-2.347,3.364-4.179,4.423-6.589a1.449,1.449,0,0,0,.1-1.24,1.72,1.72,0,0,0-.78-.6,18.618,18.618,0,0,1-4.242-3.329c-.7-.7-1.985-2.48-2.988-2.64C213.335,580.739,212.993,582.272,212.227,582.927Z" transform="translate(964.064 2050.02)"/>
    <path id="Path_361" data-name="Path 361" class="cls-12" d="M199.015,607.716a6.338,6.338,0,0,1-4.019.049,44.355,44.355,0,0,1-10.1-2.939,5.406,5.406,0,0,1-2.48-1.9,6.081,6.081,0,0,1-.7-2.382l-.585-3.949a23.946,23.946,0,0,1,.181-4.054,1.184,1.184,0,0,0-.23-.885.954.954,0,0,0-.7-.216c-1.6,0-2.556,1.692-3.678,2.828a6.791,6.791,0,0,1-2.257,1.518c-1.024.418-2.285.7-2.7,1.734-.174.425-.153.912-.327,1.337-.7,1.7-3.761,1.135-4.534,2.786-.223.474-.209,1.073-.578,1.449s-1.045.362-1.6.46c-2.215.362-3.294,2.925-5.189,4.13-1.6,1.017-3.65,1-5.363,1.79a20.529,20.529,0,0,1-2.786,1.393,13.167,13.167,0,0,1-3.232.16.871.871,0,0,0-.648.209.892.892,0,0,0-.1.7,19.551,19.551,0,0,0,12.084,15.135,4.263,4.263,0,0,1,1.031.495c.968.7,1.135,2.278,2.229,2.786a2.305,2.305,0,0,0,2.326-.5,20.249,20.249,0,0,0,1.679-1.853,6.686,6.686,0,0,1,3.74-1.964c1.316-.209,2.786-.056,3.852-.864a11.835,11.835,0,0,0,1.212-1.3,7.6,7.6,0,0,1,2.786-1.644,27.861,27.861,0,0,1,8.706-1.839c2.786-.16,5.676.1,8.316-.815a4.874,4.874,0,0,0,1.853-1.045,5.572,5.572,0,0,0,1.24-2.152,16.431,16.431,0,0,0,.564-8.658Z" transform="translate(977.527 2046.816)"/>
    <path id="Path_362" data-name="Path 362" class="cls-12" d="M199.272,592.24c.787-.07,1.574,0,2.361,0,.926,0,1.839-.223,2.786-.23a6.867,6.867,0,0,1,6.478,4.931,1.254,1.254,0,0,1,.042.7.5.5,0,0,1-.536.362,11.77,11.77,0,0,0-1.191-2.389,6.764,6.764,0,0,0-3.566-2.48,9.257,9.257,0,0,0-4.388-.16c-.6.111-1.191.272-1.783.439l-2.89.78c-.522.139-1.045.286-1.553.474-.39.139-1.066.7-1.449.7-.522,0-.1-.453.132-.759a3.72,3.72,0,0,1,1.853-1.344,15.6,15.6,0,0,1,3.705-1.017Z" transform="translate(963.577 2046.641)"/>
    <path id="Path_363" data-name="Path 363" class="cls-14" d="M209.295,625.883c.7,2.2,1.393,4.4,2.236,6.547a55.4,55.4,0,0,0,5.795,10.559,76.082,76.082,0,0,0,4.785,6.268c2.131,2.514,4.513,5.043,5.266,8.254a41.8,41.8,0,0,1,.474,5.69,6.949,6.949,0,0,0,2.333,5.043,8.672,8.672,0,0,0,3.845,1.268c.961.153,2.166.2,2.668-.634a2.375,2.375,0,0,0,.265-1.1l.23-2.786c.056-.6.265-1.393.864-1.393s.905.773,1.393,1.128a1.512,1.512,0,0,0,2.09-.7,3.531,3.531,0,0,0,.056-2.438,11.576,11.576,0,0,0-5.927-7.369,17.863,17.863,0,0,1-2.9-1.511,9.751,9.751,0,0,1-2.278-2.87c-5.273-8.672-10.566-17.413-14.278-26.822a19.844,19.844,0,0,1-1.47-5.286,34.13,34.13,0,0,1,.23-5.572,31.893,31.893,0,0,0-.9-9.96,7.823,7.823,0,0,0-.954-2.417c-1.525-2.326-5.126-2.668-7.4-1.066a7.62,7.62,0,0,0-2.939,5.377c-.167,1.874.919,3.831,1.47,5.572Q206.773,617.783,209.295,625.883Z" transform="translate(960.714 2044.904)"/>
    <path id="Path_364" data-name="Path 364" class="cls-13" d="M241.368,564.567c.084-.885-.7-1.686-1.609-2.25a22.458,22.458,0,0,1-2.73-1.672c-.808-.7-1.247-1.609-2.055-2.305a9.056,9.056,0,0,0-3.065-1.525,23.263,23.263,0,0,0-7.327-1.316,12.906,12.906,0,0,0-7.014,1.853,4.179,4.179,0,0,0-1.191,1.108,4.875,4.875,0,0,0-.578,1.762,34.828,34.828,0,0,1-1.832,5.572,12.928,12.928,0,0,1-3.483,5.628c-1.985,1.658-5.029,2.612-6.338,4.611a1.5,1.5,0,0,0-.286,1.289c.188.5.794.843,1.344,1.163,3.225,1.853,6,4.249,7.439,7.118a8.254,8.254,0,0,1-.655,8.88c-.745.975-1.776,2.131-1.045,3.113,1.107,1.491,4.931.641,5.809,2.215a3.148,3.148,0,0,1,.118,1.63c0,1.651,1.595,3.127,3.531,3.886a19.688,19.688,0,0,0,6.352,1.045,5.489,5.489,0,0,0,.16-4.109,1.643,1.643,0,0,1-.16-.933,2.243,2.243,0,0,1,.7-.9c2.333-2.2,1.839-5.44.439-8.052s-3.573-5.008-4.381-7.759a3.941,3.941,0,0,1,.7-4.04,14.071,14.071,0,0,1,2-1.463,7.6,7.6,0,0,0,2.786-3.482c.648-1.811.55-3.991,2.459-5.189s4.381-.808,6.394-1.581A6.853,6.853,0,0,0,241.368,564.567Z" transform="translate(960.394 2057.724)"/>
    <circle id="Ellipse_55" data-name="Ellipse 55" class="cls-15" cx="11.583" cy="11.583" r="11.583" transform="translate(1249.737 2614.461)"/>
    <path id="Path_365" data-name="Path 365" class="cls-15" d="M353.389,572.242A15.017,15.017,0,0,0,363,578.963l-.871,3.162c-1.5,5.447-3.2,11.214-7.411,14.989a7.007,7.007,0,0,0-1.177-5.419,20.52,20.52,0,0,0-3.928-4.109l-6.666-5.8a1.818,1.818,0,0,1-.5-.557,1.7,1.7,0,0,1,0-1.268c.85-2.647,3.274-4.3,5.238-6.08a18.476,18.476,0,0,0,2.64-3.072C351.689,568.927,352.546,570.828,353.389,572.242Z" transform="translate(918.358 2053.315)"/>
    <path id="Path_366" data-name="Path 366" class="cls-17" d="M358.066,589.331a6.268,6.268,0,0,1-.341,2.556,1.8,1.8,0,0,1-2.089,1.073c.244-.55-.4-1.177-1-1.107a1.873,1.873,0,0,0-1.323,1.121,4.179,4.179,0,0,0-.383,2.591c.188,1.1.822,2.152.655,3.253-.132.912-.808,1.825-.446,2.682a4.3,4.3,0,0,0,.864,1.031,2.925,2.925,0,0,1-.313,4.012l9.055.174a6.352,6.352,0,0,0,1.121,4.395,27.672,27.672,0,0,0,20.63,13.47,1.8,1.8,0,0,0-.432,2.744,2.54,2.54,0,0,0,2.9.167,21.985,21.985,0,0,0,2.487-1.86,7.6,7.6,0,0,1,5.1-1.393c1.135.1,2.229.467,3.364.529,3.343.181,6.22-2.229,9.417-3.211,2.347-.7,5-.7,6.965-2.187a2.762,2.762,0,0,0,1.3-2.688,4.382,4.382,0,0,0-.975-1.574A28.039,28.039,0,0,1,412,610.233a29.1,29.1,0,0,0-6.526-8.734,57.6,57.6,0,0,0-6.464-4.91,10.94,10.94,0,0,0-1.755-1.052,17.968,17.968,0,0,1-2.4-.975,13.369,13.369,0,0,1-2.487-2.786c-1.79-2.09-4.541-3.044-6.749-4.687-1.477-1.1-2.786-2.549-4.548-3.086-.857-.258-1.776-.279-2.633-.536-1.95-.592-3.371-2.326-5.286-3.023-1.511-.557-3.183-.411-4.785-.613a11.144,11.144,0,0,1-4.917-1.86,5.912,5.912,0,0,0-1.588-.933c-2.417-.7-2.612,3.775-2.842,5.335A44.732,44.732,0,0,0,358.066,589.331Z" transform="translate(915.157 2051.207)"/>
    <path id="Path_367" data-name="Path 367" class="cls-15" d="M349.132,613.225c.4,4.4-2.918,8.658-1.95,12.969.209.919.6,1.79.745,2.716.4,2.556-1.121,4.973-2.577,7.111l-12.537,18.346a11.143,11.143,0,0,1-1.783,2.208c-2.4,2.124-5.976,1.9-9.117,2.542a15.609,15.609,0,0,0-6.108,2.7.4.4,0,0,0-.077.543,5.238,5.238,0,0,0,4.541,2.131c.327.432,0,1.073-.453,1.393-.7.467-1.6.592-1.727,1.727a1.936,1.936,0,0,0,.223,1.149,3.566,3.566,0,0,0,2.194,1.518c4.325,1.323,9-1,12.238-4.179s5.572-7.153,8.748-10.378c1.762-1.783,3.761-3.308,5.572-5.036a65.839,65.839,0,0,0,9.145-11.841,13.175,13.175,0,0,0,1.978-4.033c.334-1.428.181-2.946.571-4.36.5-1.86,1.86-3.343,2.995-4.876a16.2,16.2,0,0,0,3.406-10.559c-.293-3.768-2.626-7.474-6.171-8.755a5.523,5.523,0,0,0-3.483-.209,8.3,8.3,0,0,0-3.524,2.786l-2.375,2.744a6.519,6.519,0,0,0-1.393,2.089,2.194,2.194,0,0,0,.488,2.333" transform="translate(926.453 2042.434)"/>
    <path id="Path_368" data-name="Path 368" class="cls-17" d="M369.277,590.435c-1.644.1-3.483.258-4.618,1.393a6.451,6.451,0,0,0-1.156,1.825A18.028,18.028,0,0,0,361.2,600.9a32.693,32.693,0,0,0,.836,6.06c.258,1.679-.4,3.392-.522,5.091a34.759,34.759,0,0,0,6.575-2.528,21.987,21.987,0,0,1,3.852-2c1.957-.655,5.259.467,7.111,1.393.1-1.309-.878-3.587-.773-4.876a5.341,5.341,0,0,1,.293-1.623,9.674,9.674,0,0,1,.982-1.567,6.415,6.415,0,0,0-.578-7.529c-1.651-1.86-4.242-2.556-6.714-2.849a29.376,29.376,0,0,0-4.694-.16" transform="translate(912.632 2047.164)"/>
    <path id="Path_369" data-name="Path 369" class="cls-13" d="M320.067,553.136l-.265-2.18c1.832.467,3.566-1.08,4.736-2.689s2.25-3.482,4.026-4.179c2.166-.815,4.458.488,6.526,1.56a20.429,20.429,0,0,0,7.487,2.48,5.3,5.3,0,0,1,1.24.2c1.344.481,1.985,2.166,2.18,3.7s.139,3.162.8,4.527c.508,1.031,1.393,1.8,1.895,2.786,1.393,2.737.049,6.484,1.546,9.173l-3.712-3.4c-.341-.313-.822-.641-1.191-.376s-.32.7-.446,1.024a1.943,1.943,0,0,1-2.64.961,7.237,7.237,0,0,1-2.361-2.159A14.432,14.432,0,0,0,334,560.1a7.529,7.529,0,0,0-6.234.369c-1.734.982-3,3.26-5.126,3.336-2.911.111-4.123-5.307-5.468-7.446a2.64,2.64,0,0,0,.766-3.287C318.138,553,320.026,552.8,320.067,553.136Z" transform="translate(925.992 2061.262)"/>
    <path id="Path_370" data-name="Path 370" class="cls-18" d="M727.212,751.205c-.564-2.389-.905-4.479-.905-4.479a9.278,9.278,0,0,0-1.038-4.548v-.655h0v-4.806a15.889,15.889,0,0,1,1.212-2.514c.864-1.5,0-7.035,0-7.035s-3.2-7.794-2.431-12.739-6.575-21.961-6.575-21.961a21.7,21.7,0,0,1,.7-4.875,3.521,3.521,0,0,0,.091-1.017.754.754,0,0,0,0-.125v.042c-.111-3.26-2.688-9.375-2.688-9.375l.348-11.646a34.3,34.3,0,0,0-1.038-16.1c-.94-3.218-1.539-5.788-1.922-7.78-.042-.223-.084-.439-.118-.648,5.523-.843,9.751-1.546,9.751-1.546s-3.2-13.408-5.37-15.755-3.893-9.716-3.893-9.716-1.128-9.472.7-12.238,2.09-7.543,2.09-7.543,4.179-3.016,4.674-4.36a22.08,22.08,0,0,0,1.393-5.948c0-1.595-.522-3.016-.348-3.859s-1.212-4.019-.515-5.53a4.047,4.047,0,0,0,.272-1.456.091.091,0,0,0,0-.042h0a20.711,20.711,0,0,0-.369-3.935,11.145,11.145,0,0,0-4.109-2.2l-.091-.355-.237-.94a3.182,3.182,0,0,0-.411-.244v-1.741l.648-3.065c1.282-5.314-5.823-6.108-5.823-6.108a3.748,3.748,0,0,0-2.013-1.769c-1.393-.5-.237,8.01.432,8.553a27.709,27.709,0,0,1,2.786,4.388h0l.125.216a2.841,2.841,0,0,0-.327.341l.272,1.846.042.286a7.583,7.583,0,0,0-1.135,1.929,4.117,4.117,0,0,1,1.038,3.023,9.471,9.471,0,0,0,.432,3.685c-.077-.091-.989-1.08-1.9-.836s-3.483,1-3.483,1-1.908.334-1.734.752-1.3,2.264-1.3,2.264l-5.119-4.876c-.056-.146-.1-.292-.153-.439a11.7,11.7,0,0,1-.439-2.09,11.382,11.382,0,0,0,1.63-.522,3.531,3.531,0,0,0,1.393-.905,5.53,5.53,0,0,0,.822-2.208,30.649,30.649,0,0,1,1.9-4.235,13.776,13.776,0,0,0,.989-7.557,5.029,5.029,0,0,0-.78-2.229c-.836-1.149-2.354-1.616-3.483-2.535s-1.811-2.312-3.1-3a6.108,6.108,0,0,0-3.887-.334,20.77,20.77,0,0,0-7.251,2.633,3.728,3.728,0,0,1-2.431.8,3.281,3.281,0,0,1-1.748-1.282.338.338,0,0,1,0-.077l-.063-.063a9.171,9.171,0,0,0-.794,3.831v.822a1.629,1.629,0,0,1,0,.181h0a1.228,1.228,0,0,1-.042.272,1.971,1.971,0,0,1-.474.7,3.088,3.088,0,0,0-.418.571.615.615,0,0,1,.07-.209,3.022,3.022,0,0,0-.536,1.609,1.6,1.6,0,0,0,.39,1.156,5.573,5.573,0,0,0,.829.7,9.75,9.75,0,0,0-.146,1.7,9.9,9.9,0,0,0,4.82,8.449l.174.439a12.183,12.183,0,0,1,.926,5.572.94.94,0,0,1-.063.411l-.181.209h0s-8.456.084-10.448-1.72-5.022,4.4-5.022,4.4-3.03.592-3.636,0-4.179-.084-4.179-.084a7.662,7.662,0,0,0-5.279-1.922,15.513,15.513,0,0,0-3.88-2.159h0l-.1-.035h0a4.332,4.332,0,0,0-1.908-.237s-4.179-3.441-5.363-5.279-6.965-8.685-7.014-8.72v-.327l-.07-1a3.881,3.881,0,0,1-.515.049,1.21,1.21,0,0,0-.118-.348,18.8,18.8,0,0,0-1.226-2.786s0-1.254.369-1.567-.153-4.924-.153-4.924-3.747-8.755-7.1-2.222c0,0-6.345,4.228-1.024,9.159,0,0,2.089,1.024,2.424,1.839.2.529.919,2.013,1.393,2.995l.216.439-.063.049.084.822v.32c-1,.564-1.679,1.128-1.518,1.56a9.165,9.165,0,0,1,.606,2.264s7.362,9.215,8.316,13.157c0,0,19.739,11.729,26.23,12.572l-1.121,5.865a46.38,46.38,0,0,0-.258,4.778c.084,1.254-.78,6.965-.78,6.965s-1.128,8.358-2.09,9.549-.78,6.206-.78,6.206a41.847,41.847,0,0,1-1.3,7.118,18.089,18.089,0,0,0-.258,7.125s-3.294,7.543,4.59,2.431c0,0,3.866-.237,8.358-.39v2.292c-.056,4.318-.084,10.273.111,14.78.348,7.961,2.786,23.681,2.786,23.681v7.912a11.07,11.07,0,0,0-.223,2.264,14.667,14.667,0,0,0,2.131,7.926l.606,5.28a21.871,21.871,0,0,1,1.449,5.572,2.742,2.742,0,0,1-.063.5,3.741,3.741,0,0,0-.07.808c-.077,2.4,1.393,8.135,1.393,8.135s.091,5.781.954,6.115c.738.286-.989,3.336-1.5,4.179a1.4,1.4,0,0,1-.035-.167c-.063.111-.1.174-.1.174a4.06,4.06,0,0,0-.272,1.463,2.09,2.09,0,0,0,.961,2.034c1.644,1.01,2.528,1.846,1.135,2.18a13.84,13.84,0,0,0-1.525.32c0-.063-.056-.132-.077-.2a.933.933,0,0,0-.543.968,4.284,4.284,0,0,0,.522,1.957,20.9,20.9,0,0,0,2.34,4.277l.7-.077a3.281,3.281,0,0,1-.39.7,2.7,2.7,0,0,1-.975.864,3.119,3.119,0,0,1-1.184.411,3.3,3.3,0,0,0-2.452,1.191c-.864,1.114-1.393,2.64.3,3.977l6.192,2.131s10.649,1.393,10.085-1-.906-4.479-.906-4.479a9.451,9.451,0,0,0-.871-4.242,4.175,4.175,0,0,0-.376-.627l.376-.042s.78-5.279,1.818-6.268c.244-.23.3-.411.237-.55.111-.286-.16-.453-.508-.55l-.077.209a5.233,5.233,0,0,0-1.031-.111s-.348-2.786.773-3.775a1.065,1.065,0,0,0,.223-.822,4.738,4.738,0,0,0-.118-1.128l-.042.07a40.226,40.226,0,0,0-2.487-6.5s-.084-2.514.606-3.524-.084-13.659-.084-13.659.258-6.115-.522-8.964.954-6.206.954-6.206v-.223s-.042-.376-.1-.968v.063c-.174-1.623-.5-4.555-.745-5.906-.348-1.929.084-11.144.084-11.144l1.56-3.935,2.786,6.784,2.939,9.055a7.7,7.7,0,0,1,1.5,3.845c0,.1,0,.2,0,.286a4.563,4.563,0,0,0,0,.606,5.405,5.405,0,0,0,.9,3.225s.78,4.277,1.992,5.363A4.828,4.828,0,0,1,707,703.188s1.47,6.206,2.166,7.292c.585.919.613,3.441.606,4.179h0v.23s.2,2.215.2,4.082v.648a6.493,6.493,0,0,1-.181,1.5V720.9a15.506,15.506,0,0,0-.446,3.866c-.042,2.229.3,4.876,1.651,6.415,2.34,2.681,3.81,2.347,3.81,2.347s-1.128,3.35-2.514,4.026a.842.842,0,0,0-.146.091.388.388,0,0,0-.035-.2,1.637,1.637,0,0,0-.4,1.254,8.971,8.971,0,0,0,1.713,4.966,2.744,2.744,0,0,0,1.17.7l-.216.132a4.877,4.877,0,0,1-.481.23,2.269,2.269,0,0,1-.7.181,3.3,3.3,0,0,0-2.452,1.191c-.864,1.114-1.393,2.64.3,3.977l6.192,2.131S727.748,753.629,727.212,751.205Z" transform="translate(831.509 2060.534)"/>
    <path id="Path_371" data-name="Path 371" class="cls-19" d="M708.747,841.081l-6-2.131c-1.651-1.337-1.121-2.863-.286-3.977a3.155,3.155,0,0,1,2.368-1.191,2.933,2.933,0,0,0,1.149-.411,2.715,2.715,0,0,0,.947-.864,4.409,4.409,0,0,0,.7-2.319s6.582-1.922,8.358,0a4.921,4.921,0,0,1,.8,1.17,9.75,9.75,0,0,1,.836,4.242s.334,2.089.878,4.479S708.747,841.081,708.747,841.081Z" transform="translate(809.298 1974.615)"/>
    <path id="Path_372" data-name="Path 372" class="cls-19" d="M750.858,836.88l-5.99-2.131c-1.658-1.337-1.128-2.863-.293-3.97a3.149,3.149,0,0,1,2.375-1.2,2.167,2.167,0,0,0,.7-.181,3.522,3.522,0,0,0,.46-.23,3.791,3.791,0,0,0,1.637-3.183s6.575-1.929,8.358,0a4.661,4.661,0,0,1,.627.857,9.57,9.57,0,0,1,1.01,4.555s.334,2.09.878,4.479S750.858,836.88,750.858,836.88Z" transform="translate(796.517 1975.891)"/>
    <path id="Path_373" data-name="Path 373" class="cls-6" d="M718.281,830.187a4.915,4.915,0,0,1,.8,1.17h0L709.22,832.5a4.409,4.409,0,0,0,.7-2.319S716.485,828.265,718.281,830.187Z" transform="translate(807.007 1974.615)"/>
    <path id="Path_374" data-name="Path 374" class="cls-6" d="M760.412,826.8v1.846c-1.532,2.528-8.95,1.978-11.1.7a3.541,3.541,0,0,0,.46-.23,3.791,3.791,0,0,0,1.637-3.183s6.575-1.929,8.358,0A4.659,4.659,0,0,1,760.412,826.8Z" transform="translate(794.84 1975.909)"/>
    <path id="Path_375" data-name="Path 375" class="cls-13" d="M745.109,773.449a16.451,16.451,0,0,0-1.177,2.514v6.624c-1.672,2.786-10.392,1.846-11.562.334s-2.431-5.447-1.094-6.115,2.431-4.026,2.431-4.026-1.393.334-3.685-2.347-1.588-8.63-1.17-10.057,0-6.2,0-6.2.084-3.35-.585-4.444-2.089-7.292-2.089-7.292a4.95,4.95,0,0,0-1.17-3.183c-1.17-1.094-1.929-5.363-1.929-5.363a5.5,5.5,0,0,1-.836-3.6c.251-2.09-1.428-4.36-1.428-4.36l-2.849-9.055-2.682-6.791-1.5,3.935s-.425,9.222-.084,11.144.836,7.035.836,7.035-1.679,3.357-.919,6.206.5,8.964.5,8.964.752,12.656.084,13.665-.585,3.482-.585,3.482,3.434,7.376,2.34,8.358-.752,3.775-.752,3.775,2.347,0,1.344,1-1.762,6.269-1.762,6.269l-10.148,1.282a21.457,21.457,0,0,1-2.271-4.277c-1.337-3.1.251-2.786,1.6-3.1s.495-1.17-1.1-2.18-.7-3.267-.7-3.267,2.431-4.109,1.6-4.444-.926-6.115-.926-6.115-1.672-6.874-1.254-8.713-1.344-6.268-1.344-6.268l-.585-5.28a14.515,14.515,0,0,1-1.811-9.988v-8.156s-2.347-15.755-2.688-23.681c-.209-5.1-.153-12.057-.084-16.4.042-2.431.084-4.047.084-4.047l36.218-3.768a30.012,30.012,0,0,0,.662,5.377c.369,1.985.947,4.562,1.853,7.78a35.382,35.382,0,0,1,1.01,16.089l-.334,11.646s3.183,7.794,2.514,10.448a22.122,22.122,0,0,0-.7,4.875s7.125,17.016,6.373,21.961,2.354,12.7,2.354,12.7S745.945,771.972,745.109,773.449Z" transform="translate(811.32 2021.296)"/>
    <path id="Path_376" data-name="Path 376" class="cls-16" d="M737.22,752.8l10.991-1.47S742,757.7,737.22,752.8Z" transform="translate(798.509 1998.288)"/>
    <path id="Path_377" data-name="Path 377" class="cls-6" d="M749.876,735.87s.383,3.893-2.006,5.363C747.87,741.233,752.14,740.564,749.876,735.87Z" transform="translate(795.277 2002.98)"/>
    <path id="Path_378" data-name="Path 378" class="cls-6" d="M744.117,718.06s-9.208,7.585-12.537,6.965S744.117,718.06,744.117,718.06Z" transform="translate(800.36 2008.385)"/>
    <path id="Path_379" data-name="Path 379" class="cls-6" d="M714.459,758.55s-6.965,1.595-7.2,4.4S714.459,758.55,714.459,758.55Z" transform="translate(807.605 1996.097)"/>
    <path id="Path_380" data-name="Path 380" class="cls-16" d="M716.508,808.72s-9.883,1.846-7.076,3.106a47.923,47.923,0,0,0,7.418,2.257S720.032,814.25,716.508,808.72Z" transform="translate(807.095 1980.87)"/>
    <g id="Group_45" data-name="Group 45" class="cls-20" transform="translate(1506.292 2700.271)">
      <path id="Path_381" data-name="Path 381" d="M706.228,815.375a1.957,1.957,0,0,1-.906-1.435l-.1.181s-.926,2.257.7,3.267c.181.111.355.23.515.341.293-.056.613-.1.912-.174C708.673,817.248,707.823,816.406,706.228,815.375Z" transform="translate(-697.993 -720.984)"/>
      <path id="Path_382" data-name="Path 382" d="M724.865,814.327c.272-.251.258-.9.1-1.727a4.673,4.673,0,0,0-.564,2.431,1.861,1.861,0,0,1,.467-.7Z" transform="translate(-703.89 -720.578)"/>
      <path id="Path_383" data-name="Path 383" d="M722.577,755.22a11.535,11.535,0,0,0-.7,3.079,12.17,12.17,0,0,1,.766-2.089A6.225,6.225,0,0,0,722.577,755.22Z" transform="translate(-703.127 -703.163)"/>
      <path id="Path_384" data-name="Path 384" d="M755.311,748.5a3.985,3.985,0,0,0,.091-.919c-.125.627-.209,1.212-.272,1.72C755.186,749.036,755.241,748.771,755.311,748.5Z" transform="translate(-713.219 -700.845)"/>
      <path id="Path_385" data-name="Path 385" d="M722.44,797.19a5.272,5.272,0,0,0,.251-1.86,6.14,6.14,0,0,0-.48,2.347A2.256,2.256,0,0,1,722.44,797.19Z" transform="translate(-703.227 -715.336)"/>
      <path id="Path_386" data-name="Path 386" d="M719.247,820.68a33.509,33.509,0,0,0-1.149,5.147L707.963,827a20.991,20.991,0,0,1-2.271-4.277,7.44,7.44,0,0,1-.286-.738c-.606.279-.85.906-.049,2.786a20.748,20.748,0,0,0,2.271,4.27l10.127-1.177s.759-5.28,1.762-6.269C720.013,821.063,719.7,820.812,719.247,820.68Z" transform="translate(-697.959 -723.03)"/>
      <path id="Path_387" data-name="Path 387" d="M702.857,763.079s.084,5.788.919,6.122h0c.425-.954.7-1.86.327-2.013-.836-.334-.919-6.115-.919-6.115s-1.679-6.874-1.254-8.72-1.344-6.269-1.344-6.269L700,740.8a14.544,14.544,0,0,1-1.846-9.974v-8.142s-2.347-15.755-2.681-23.716c-.216-5.1-.153-12.057-.084-16.4v-2.09h-.286s-.042,1.609-.084,4.047c-.07,4.339-.132,11.3.084,16.4.334,7.961,2.682,23.716,2.682,23.716v8.128a14.494,14.494,0,0,0,1.888,10.058l.585,5.28s1.762,4.437,1.337,6.268S702.857,763.079,702.857,763.079Z" transform="translate(-694.956 -680.48)"/>
      <path id="Path_388" data-name="Path 388" d="M748.258,824.774a9.749,9.749,0,0,1-1.6-3.984c-1.038.933.153,4.562,1.268,6s9.89,2.431,11.569-.341v-1.595C757.222,827.1,749.373,826.2,748.258,824.774Z" transform="translate(-710.526 -723.063)"/>
      <path id="Path_389" data-name="Path 389" d="M766.91,812.877a16.756,16.756,0,0,0-1.17,2.514v1.177c.188-.432.46-1,.836-1.679a5.076,5.076,0,0,0,.369-2.089Z" transform="translate(-716.439 -720.638)"/>
      <path id="Path_390" data-name="Path 390" d="M747.78,809.414a16.142,16.142,0,0,0,.829-1.992s-1.393.334-3.691-2.347c-1.644-1.95-1.734-5.635-1.5-8.045-.418,1.428-1.094,7.376,1.17,10.057C746.067,808.85,747.174,809.3,747.78,809.414Z" transform="translate(-709.532 -715.852)"/>
      <path id="Path_391" data-name="Path 391" d="M737.151,768.06a46.028,46.028,0,0,1,.167,4.966c.056-.327.118-.592.167-.78.425-1.393,0-6.2,0-6.2s.084-3.357-.585-4.444-2.09-7.292-2.09-7.292a4.95,4.95,0,0,0-1.17-3.183c-1.17-1.093-1.929-5.363-1.929-5.363a5.5,5.5,0,0,1-.843-3.6c.258-2.09-1.393-4.36-1.393-4.36l-2.849-9.055L723.91,722l-1.511,3.935s0,.495-.049,1.275l1.226-3.2,2.682,6.784,2.849,9.055s1.672,2.264,1.393,4.353a5.509,5.509,0,0,0,.871,3.566s.752,4.27,1.922,5.363a4.974,4.974,0,0,1,1.177,3.183s1.393,6.2,2.09,7.292S737.151,768.06,737.151,768.06Z" transform="translate(-703.27 -693.081)"/>
    </g>
    <path id="Path_392" data-name="Path 392" class="cls-21" d="M750.106,563.338l-.627,3.065.035,1.393v1l-3.483.362-.39-.7h0a29.623,29.623,0,0,0-2.716-4.388c-.648-.543-1.8-9.055-.418-8.546a3.65,3.65,0,0,1,1.95,1.762S751.346,558.017,750.106,563.338Z" transform="translate(797.102 2057.719)"/>
    <path id="Path_393" data-name="Path 393" class="cls-6" d="M751.2,573.937l-3.482.362-.39-.7h0a3.079,3.079,0,0,1,3.859-.634Z" transform="translate(795.441 2052.546)"/>
    <path id="Path_394" data-name="Path 394" class="cls-22" d="M751.986,575.727l-4.6,1.073-.1-.7-.265-1.846a3.169,3.169,0,0,1,4.465-.613l.23.94Z" transform="translate(795.535 2052.414)"/>
    <path id="Path_395" data-name="Path 395" class="cls-21" d="M642.045,560.825l-4.917,2.647-.446-.933c-.474-.982-1.17-2.459-1.393-2.988-.293-.815-2.347-1.846-2.347-1.846-5.154-4.924.982-9.152.982-9.152,3.253-6.54,6.874,2.215,6.874,2.215s.5,4.618.146,4.924-.355,1.574-.355,1.574a19.143,19.143,0,0,1,1.191,2.786C641.969,560.54,642.045,560.825,642.045,560.825Z" transform="translate(830.783 2060.566)"/>
    <path id="Path_396" data-name="Path 396" class="cls-6" d="M644.573,566.892l-4.917,2.647-.446-.933c.7-.578,3.155-2.577,3.963-2.486a5.784,5.784,0,0,0,1.17,0C644.5,566.606,644.573,566.892,644.573,566.892Z" transform="translate(828.255 2054.5)"/>
    <path id="Path_397" data-name="Path 397" class="cls-22" d="M645.138,568.528l-5.53,2.723-.111-1.191-.077-.815s3.2-2.751,4.179-2.647a5.143,5.143,0,0,0,1.449,0l.063,1Z" transform="translate(828.191 2054.354)"/>
    <path id="Path_398" data-name="Path 398" class="cls-21" d="M725.659,587.784s-24.12,2.723-19.614,1.261c3.141-1.024,4.388-3.016,4.653-5.231a12.739,12.739,0,0,0-.9-5.572,24.212,24.212,0,0,0-2.159-4.36s18.437-10.141,14.752-.919a14.457,14.457,0,0,0-1.045,4.367,12.315,12.315,0,0,0,.467,4.416,13.171,13.171,0,0,0,3.845,6.039Z" transform="translate(808.141 2053.597)"/>
    <path id="Path_399" data-name="Path 399" class="cls-6" d="M723.332,572.956a14.459,14.459,0,0,0-1.045,4.367c-1.741,1.456-3.643,1.393-6.088,1.393-1.88,0-3.963.46-5.461-.446a24.21,24.21,0,0,0-2.159-4.36S727.017,563.734,723.332,572.956Z" transform="translate(807.201 2053.597)"/>
    <circle id="Ellipse_56" data-name="Ellipse 56" class="cls-21" cx="9.974" cy="9.974" r="9.974" transform="translate(1513.1 2612.978)"/>
    <path id="Path_400" data-name="Path 400" class="cls-6" d="M725.659,592.844s-24.12,2.723-19.614,1.261c3.141-1.024,4.388-3.016,4.653-5.231,1.2-1.3,3.608-2.243,5.161-2.737a7.2,7.2,0,0,1,4.367-.07,5.82,5.82,0,0,1,1.588.7A13.17,13.17,0,0,0,725.659,592.844Z" transform="translate(808.141 2048.537)"/>
    <path id="Path_401" data-name="Path 401" class="cls-6" d="M752.1,576.352l-4.6,1.073-.1-.7a4.068,4.068,0,0,1,4.43-1.518Z" transform="translate(795.42 2051.789)"/>
    <path id="Path_402" data-name="Path 402" class="cls-6" d="M645.172,568.963l-5.53,2.723-.111-1.191a40.7,40.7,0,0,1,5.572-2.466Z" transform="translate(828.158 2053.919)"/>
    <path id="Path_403" data-name="Path 403" class="cls-6" d="M732.05,680.847c-9.34,1.47-22.636,3.392-24.747,2.751-1.748-.536-7.334-.481-12.2-.313.042-2.431.084-4.047.084-4.047L731.4,675.47A29.994,29.994,0,0,0,732.05,680.847Z" transform="translate(811.293 2021.311)"/>
    <path id="Path_404" data-name="Path 404" class="cls-17" d="M723.861,646.145s-30.758,5.28-34.059,4.27-20.247.091-20.247.091c-7.627,5.105-4.437-2.431-4.437-2.431a18.175,18.175,0,0,1,.251-7.125,43.629,43.629,0,0,0,1.254-7.125s-.167-5.029.752-6.2,2.013-9.556,2.013-9.556.843-5.7.759-6.965.251-4.771.251-4.771l1.087-5.872c-6.268-.836-25.395-12.572-25.395-12.572-.919-3.935-8.045-13.157-8.045-13.157a9.7,9.7,0,0,0-.585-2.264c-.5-1.337,7.042-4.019,7.042-4.019s5.614,6.875,6.784,8.713,5.2,5.28,5.2,5.28a4.061,4.061,0,0,1,1.846.244h.1a14.865,14.865,0,0,1,3.747,2.152,7.264,7.264,0,0,1,5.112,1.929s3.441-.5,4.026.083,3.483,0,3.483,0,2.939-6.2,4.875-4.4,10.106,1.72,10.106,1.72c1.094-1.449,3.74-2.487,5.4-3.023a7.2,7.2,0,0,1,4.367-.07,5.4,5.4,0,0,1,1.727.836l4.959,4.876s1.393-1.846,1.261-2.264,1.679-.752,1.679-.752,2.431-.752,3.35-1.01,1.769.752,1.839.836a9.812,9.812,0,0,1-.418-3.685,4.179,4.179,0,0,0-1-3.016c2.96-7.16,9.584-1.1,9.584-1.1s.752,3.935.084,5.447.7,4.695.5,5.53.334,2.264.334,3.852a22.914,22.914,0,0,1-1.337,5.955c-.508,1.337-4.527,4.353-4.527,4.353s-.251,4.778-2.013,7.543-.7,12.238-.7,12.238,1.672,7.376,3.768,9.751S723.861,646.145,723.861,646.145Z" transform="translate(828.793 2053.791)"/>
    <path id="Path_405" data-name="Path 405" class="cls-6" d="M695.323,598.63s-.919-2.786-1.762-3.023a19.828,19.828,0,0,1-2.431-1.087l.543-1.031s3.148.864,3.65,1.783S695.323,598.63,695.323,598.63Z" transform="translate(812.497 2046.192)"/>
    <path id="Path_406" data-name="Path 406" class="cls-6" d="M669.68,591.127c-.167.843-7.62,1.595-7.62,1.595l3.768-3.782h0l.1.035h0A14.862,14.862,0,0,1,669.68,591.127Z" transform="translate(821.32 2047.573)"/>
    <circle id="Ellipse_57" data-name="Ellipse 57" class="cls-23" cx="0.669" cy="0.669" r="0.669" transform="translate(1468.726 2626.532)"/>
    <circle id="Ellipse_58" data-name="Ellipse 58" class="cls-23" cx="0.669" cy="0.669" r="0.669" transform="translate(1469.582 2627.876)"/>
    <circle id="Ellipse_59" data-name="Ellipse 59" class="cls-23" cx="0.669" cy="0.669" r="0.669" transform="translate(1470.425 2629.109)"/>
    <circle id="Ellipse_60" data-name="Ellipse 60" class="cls-23" cx="0.669" cy="0.669" r="0.669" transform="translate(1471.303 2630.453)"/>
    <circle id="Ellipse_61" data-name="Ellipse 61" class="cls-23" cx="0.543" cy="0.543" r="0.543" transform="translate(1550.426 2630.502)"/>
    <circle id="Ellipse_62" data-name="Ellipse 62" class="cls-23" cx="0.543" cy="0.543" r="0.543" transform="translate(1550.509 2631.742)"/>
    <circle id="Ellipse_63" data-name="Ellipse 63" class="cls-23" cx="0.543" cy="0.543" r="0.543" transform="translate(1550.579 2632.974)"/>
    <path id="Path_407" data-name="Path 407" class="cls-6" d="M697.21,633.47c-.077-.1,18.806,23.758,33.481,9.974C730.691,643.444,707.511,646.585,697.21,633.47Z" transform="translate(810.652 2034.058)"/>
    <path id="Path_408" data-name="Path 408" class="cls-6" d="M681.63,651.28s11.3.306,12.488,3.559v3.385a2.166,2.166,0,0,1-2.09,0c-1.142-.613-7.975-4.089-10.385-2.417Z" transform="translate(815.381 2028.653)"/>
    <path id="Path_409" data-name="Path 409" class="cls-17" d="M681.93,651.28s10.81.293,11.945,3.392V657.9a2.089,2.089,0,0,1-2.013,0c-1.094-.592-7.662-3.9-9.932-2.305Z" transform="translate(815.29 2028.653)"/>
    <path id="Path_410" data-name="Path 410" class="cls-6" d="M690.49,616a36.407,36.407,0,0,0,4.381,7.515,29.355,29.355,0,0,0,6.867,6.631S690.678,617.581,690.49,616Z" transform="translate(812.692 2039.36)"/>
    <path id="Path_411" data-name="Path 411" class="cls-6" d="M685.18,597.18s1.888,8.142,6.742,10.907Z" transform="translate(814.303 2045.072)"/>
    <path id="Path_412" data-name="Path 412" class="cls-6" d="M680.926,598.359c-.049-.153-1.679,6.436,6.269,10.085C687.195,608.444,683.838,607.3,680.926,598.359Z" transform="translate(815.646 2044.715)"/>
    <path id="Path_413" data-name="Path 413" class="cls-6" d="M751.9,590.518a58.328,58.328,0,0,1,5.015,3.768S754.288,590.351,751.9,590.518Z" transform="translate(794.055 2047.095)"/>
    <path id="Path_414" data-name="Path 414" class="cls-19" d="M711.567,572.63a2.124,2.124,0,0,0,.773,1.351,2.178,2.178,0,0,0,.94.209c3.044.188,6.206.32,9.055-.85a3.37,3.37,0,0,0,1.393-.912,5.425,5.425,0,0,0,.738-2.194A34.2,34.2,0,0,1,726.312,566a14.231,14.231,0,0,0,.982-7.606,5.091,5.091,0,0,0-.759-2.229c-.808-1.149-2.278-1.616-3.343-2.535s-1.755-2.319-2.995-3.009a5.823,5.823,0,0,0-3.761-.334,19.87,19.87,0,0,0-7.021,2.64,3.477,3.477,0,0,1-2.347.8,3.225,3.225,0,0,1-1.727-1.323,9.276,9.276,0,0,0-.745,4.339,1.284,1.284,0,0,1-.467,1.351c-.752.871-1.219,2.25-.481,3.127.327.383.822.592,1.135.982.564.7.369,1.706.355,2.6a1.393,1.393,0,0,0,.223.885,1.3,1.3,0,0,0,1.233.293,3.369,3.369,0,0,1,1.309-.125,2.208,2.208,0,0,1,1.142.878A15.926,15.926,0,0,1,711.567,572.63Z" transform="translate(808.811 2059.355)"/>
    <g id="Group_46" data-name="Group 46" class="cls-24" transform="translate(1512.018 2611.654)">
      <path id="Path_415" data-name="Path 415" d="M723.949,575.29a3.3,3.3,0,0,1-1.393.905c-2.786,1.177-5.976,1.038-9.013.85a2.048,2.048,0,0,1-.94-.209,2.09,2.09,0,0,1-.78-1.344,15.545,15.545,0,0,0-2.542-5.9,2.173,2.173,0,0,0-1.142-.878,3.372,3.372,0,0,0-1.31.125,1.3,1.3,0,0,1-1.233-.293,1.351,1.351,0,0,1-.216-.885c0-.9.2-1.908-.362-2.6-.313-.39-.808-.6-1.135-.982a1.964,1.964,0,0,1-.188-2.006,2.294,2.294,0,0,0-.146,2.675c.327.383.822.592,1.135.982.564.7.369,1.706.355,2.6a1.393,1.393,0,0,0,.223.885,1.288,1.288,0,0,0,1.233.292,3.371,3.371,0,0,1,1.31-.125,2.208,2.208,0,0,1,1.142.878,15.817,15.817,0,0,1,2.542,5.9,2.124,2.124,0,0,0,.773,1.351,2.178,2.178,0,0,0,.94.209c3.044.188,6.206.32,9.055-.85a3.418,3.418,0,0,0,1.393-.912,2.652,2.652,0,0,0,.432-.808A.5.5,0,0,1,723.949,575.29Z" transform="translate(-703.176 -555.927)"/>
      <path id="Path_416" data-name="Path 416" d="M705.158,558.084a1.392,1.392,0,0,0,.306-.508,2.089,2.089,0,0,0,0-.655,9.2,9.2,0,0,1,.467-3.608l-.056-.063a9.193,9.193,0,0,0-.745,4.339A2.932,2.932,0,0,1,705.158,558.084Z" transform="translate(-703.762 -553.25)"/>
    </g>
    <path id="Path_417" data-name="Path 417" class="cls-6" d="M712.62,591.023s12.461,1.651,13.582-.223" transform="translate(805.975 2047.008)"/>
    <path id="Path_418" data-name="Path 418" class="cls-6" d="M747.4,583.72s6.916,0,8.442,2.6" transform="translate(795.42 2049.157)"/>
  </g>
</svg>
