<svg xmlns="http://www.w3.org/2000/svg" xmlns:xlink="http://www.w3.org/1999/xlink" viewBox="0 0 393.78 298.85">
  <defs>
    <style>
      .cls-1, .cls-23 {
        fill: #3480e3;
      }

      .cls-1, .cls-6 {
        opacity: 0.1;
      }

      .cls-2 {
        fill: #3a3768;
      }

      .cls-3 {
        fill: #d48a9b;
      }

      .cls-4 {
        opacity: 0.05;
      }

      .cls-5 {
        fill: #efc6cd;
      }

      .cls-7 {
        fill: #fff;
      }

      .cls-8 {
        fill: #d3dae1;
      }

      .cls-9 {
        fill: url(#linear-gradient);
      }

      .cls-10 {
        fill: #585b8a;
      }

      .cls-11 {
        opacity: 0.2;
      }

      .cls-12 {
        fill: #636992;
      }

      .cls-13 {
        fill: #ffd6d6;
      }

      .cls-14 {
        fill: #dce6f2;
      }

      .cls-15 {
        fill: #565988;
      }

      .cls-16 {
        fill: #505484;
      }

      .cls-17 {
        fill: #575988;
      }

      .cls-18 {
        fill: #d28690;
      }

      .cls-19 {
        fill: #575989;
      }

      .cls-20 {
        fill: #353045;
      }

      .cls-21 {
        fill: #f0f3f7;
      }

      .cls-22 {
        fill: #663d5c;
      }

      .cls-24 {
        opacity: 0.3;
      }

      .cls-25 {
        opacity: 0.15;
      }

      .cls-26 {
        fill: #ffd037;
      }

      .cls-27 {
        fill: #65617d;
      }

      .cls-28 {
        fill: #9d9cb5;
      }

      .cls-29 {
        fill: #4b4770;
      }

      .cls-30 {
        fill: #d4dfec;
      }
    </style>
    <linearGradient id="linear-gradient" x1="0.5" y1="1" x2="0.5" gradientUnits="objectBoundingBox">
      <stop offset="0" stop-color="gray" stop-opacity="0.251"/>
      <stop offset="0.54" stop-color="gray" stop-opacity="0.122"/>
      <stop offset="1" stop-color="gray" stop-opacity="0.102"/>
    </linearGradient>
  </defs>
  <g id="undraw_business_deal_cpi9" transform="translate(-1093 -1266)">
    <path id="Path_89" data-name="Path 89" class="cls-1" d="M486.974,126.283c-.069.321-.133.642-.209.959a103.175,103.175,0,0,1-11.982,31.08c-.191.321-.382.642-.577.963A89.313,89.313,0,0,1,460.7,176.334a40.95,40.95,0,0,1-9.7,7.452c-5.2,2.72-11.289,3.823-17.269,4.725-6.211.941-12.508,1.728-18.788,2.575q-3.347.444-6.655.941c-6.067.9-12.09,1.937-17.969,3.315A105.346,105.346,0,0,0,369.35,202.4q-.8.361-1.576.765c-.519.26-1.042.523-1.555.79s-1.017.534-1.518.808c-.26.141-.519.281-.775.429s-.509.278-.757.422c-.75.418-1.486.848-2.222,1.28l-.029.018c-.487.285-.967.577-1.443.869-2.719,1.652-5.381,3.376-8.043,5.111l-1.674,1.082-2.593,1.677c-.5.328-1.021.656-1.529.981-.361.238-.721.476-1.115.721-1.89,1.19-3.805,2.359-5.771,3.473-.465.267-.934.534-1.407.794a79.941,79.941,0,0,1-12.414,5.6l-.058.022a56.628,56.628,0,0,1-6.593,1.861c-1.288.281-2.579.512-3.884.689a41.644,41.644,0,0,1-10.532.148c-6.878-.8-13.323-3.437-20.2-4.328-14.153-1.8-27.9,4.007-41.207,8.559q-4.909,1.677-9.89,3.141c-2.207.653-4.422,1.27-6.654,1.865a250.4,250.4,0,0,1-41.73,7.318,117.531,117.531,0,0,1-17.727.393,65.1,65.1,0,0,1-6.651-.721c-7.466-1.154-14.427-3.574-20.046-8.007a39.148,39.148,0,0,1-10.4-13.345,58.235,58.235,0,0,1-5.378-16.065c-.137-.761-.26-1.526-.361-2.29q-.271-1.962-.4-3.946a56.478,56.478,0,0,1,2.481-20.865c2.38-7.545,6.348-14.788,8.094-22.391q.108-.483.206-.963a33.334,33.334,0,0,0,.53-3.495c.891-9.342-2.525-18.449-5.2-27.585-.094-.317-.188-.638-.278-.959q-.433-1.522-.83-3.041c-2.481-9.659-3.17-20-.959-29.64.069-.321.151-.642.231-.959a43.4,43.4,0,0,1,8.159-16.71c4.141-5.194,9.576-9.518,15.383-13.316q4.245-2.777,8.779-5.19,3.246-1.731,6.651-3.279a130.981,130.981,0,0,1,59.479-11.451c1.082.047,2.164.1,3.246.184s2.265.173,3.4.278c13.222,1.284,26.088,4.382,38.863,7.769,4.281,1.136,8.555,2.3,12.826,3.444,1.9.5,3.8,1.01,5.7,1.5,9.309,2.406,18.755,4.584,28.32,6.211q3.322.573,6.651,1.046a190.516,190.516,0,0,0,23.26,1.973q4.541.09,9.085-.079,2.294-.083,4.591-.249c15.816-1.114,31.1-4.844,46.412-8.328q3.322-.757,6.654-1.493c2.914-.642,5.829-1.262,8.757-1.836,18.225-3.582,34.47-1.522,51.415,5.868,3.852,1.677,7.7,3.7,10.059,6.853s2.95,7.015,3.39,10.748c.624,5.316,1.032,10.7,1.187,16.115,0,.317,0,.638.022.959A144.65,144.65,0,0,1,486.974,126.283Z" transform="translate(994.796 1225.922)"/>
    <path id="Path_90" data-name="Path 90" class="cls-1" d="M373.479,158.6h-1.19v.963h1.349Zm-13.5,0a.062.062,0,0,0,0,.025c-.032.263-.069.527-.1.793v.144H370.19V159.5l.721-.905Zm-27.646,0v-31.08H344.2c-.126-.083-.256-.17-.39-.249l-.173-.112-.224-.137c-.13-.076-.26-.151-.4-.224s-.22-.123-.335-.184l-.079-.043H332.333v-1.713l-.278.108-.292.137h-.022l-.061.032-.184.1-.184.1c-.18.1-.361.206-.541.317l-.173.115-.361.231c-.465.31-.923.635-1.4.938-.119.076-.238.151-.361.22-.256.151-.519.3-.79.426a3.015,3.015,0,0,1-.361.155l-.195.076-.18.061h0a8.45,8.45,0,0,1-1.3.339v30.383H307.865c0,.036.025.065.036.1.1.289.195.573.289.862h17.493v33.312h.271l.314.018.566.032.905.108.415.04.451.047h.069l.8.1.17.022.386.054.552.079h0l1.324-.058h0l.18.032a1.253,1.253,0,0,1,.224.036V159.559h27.534v-.144c.036-.267.072-.53.1-.794a.062.062,0,0,1,0-.025Zm41.146,0h-1.19v.963h1.349Zm-14.243,0c-.043.321-.083.642-.126.963h11.5l.783-.963Zm-26.9,0v-31.08H344.2c-.126-.083-.256-.17-.39-.249l-.173-.112-.224-.137c-.13-.076-.26-.151-.4-.224s-.22-.123-.335-.184l-.079-.043H332.333v-1.713l-.278.108-.292.137h-.022l-.061.032-.184.1-.184.1c-.18.1-.361.206-.541.317l-.173.115-.361.231c-.465.31-.923.635-1.4.938-.119.076-.238.151-.361.22-.256.151-.519.3-.79.426a3.011,3.011,0,0,1-.361.155l-.195.076-.18.061h0a8.451,8.451,0,0,1-1.3.339v30.383H307.865c0,.036.025.065.036.1.1.285.2.573.292.862h17.489V192.86h.271l.314.018.566.032.905.112.415.04.451.047h.069l.8.1.17.022.386.054.552.079h0l1.324-.058h0l.18.032a1.253,1.253,0,0,1,.224.036V159.559h26.813c.043-.321.083-.642.126-.963Zm90-64.72h74.83c0-.321,0-.642-.022-.959H422.337V55.183q-3.333.721-6.654,1.493V92.917H334.3l-.206-.184.31-.274h0l30.272-27.2q-4.544.173-9.085.079l-23.26,20.9V63.37Q329,62.9,325.679,62.324V85.18L291.671,54.613c-4.27-1.143-8.544-2.308-12.826-3.444l46.25,41.564-.206.184h-84.9V43.432q-1.7-.159-3.4-.278c-1.082-.079-2.164-.137-3.246-.184V92.917h-59.49v-38.5q-3.369,1.544-6.651,3.279V92.917h-32.32c-.079.317-.162.638-.231.959H167.2v32.681H136.439c.09.321.184.642.278.959H167.2V158.6h-25.81q-.1.48-.206.963H167.2v86.9c2.164.335,4.4.57,6.651.721V159.559h59.479v79.9c2.233-.6,4.447-1.212,6.654-1.865V159.559h85.7v69.809a56.628,56.628,0,0,0,6.593-1.861l.058-.022V159.559h83.349V192.3q3.318-.487,6.654-.934V159.559H481.6c.195-.321.386-.642.577-.963H422.337v-31.08h71.825c.076-.317.141-.638.209-.959H422.337Zm-248.485,0h59.479v32.681H173.852Zm0,64.72v-31.08h59.479V158.6Zm66.134-64.72h85.7v32.681h-85.7Zm0,64.72v-31.08h85.7V158.6Zm175.7,0H332.333v-31.08h83.349Zm0-32.039H332.333v-31.8l1.169-.876h82.18Zm-55.7,32.039a.062.062,0,0,0,0,.025c-.032.263-.069.527-.1.793v.144H370.19V159.5l.721-.905Zm13.5,0h-1.19v.963h1.349Zm-41.146,0v-31.08H344.2c-.126-.083-.256-.17-.39-.249l-.173-.112-.224-.137c-.13-.076-.26-.151-.4-.224s-.22-.123-.335-.184l-.079-.043H332.333v-1.713l-.278.108-.292.137h-.022l-.061.032-.184.1-.184.1c-.18.1-.361.206-.541.317l-.173.115-.361.231c-.465.31-.923.635-1.4.938-.119.076-.238.151-.361.22-.256.151-.519.3-.79.426a3.015,3.015,0,0,1-.361.155l-.195.076-.18.061h0a8.45,8.45,0,0,1-1.3.339v30.383H307.865c0,.036.025.065.036.1.1.289.195.573.289.862h17.493v33.312h.271l.314.018.566.032.905.108.415.04.451.047h.069l.8.1.17.022.386.054.552.079h0l1.324-.058h0l.18.032a1.253,1.253,0,0,1,.224.036V159.559h27.534v-.144c.036-.267.072-.53.1-.794a.062.062,0,0,1,0-.025Z" transform="translate(987.399 1225.649)"/>
    <path id="Path_91" data-name="Path 91" class="cls-1" d="M318.73,118.105h.516a1.046,1.046,0,0,1-.631-.84h0c0-.664.992-1.2,2.2-1.2h15.423c1.212,0,2.2.541,2.2,1.2h0c0,.66-.988,1.2-2.2,1.2h-.516a1.035,1.035,0,0,1,.631.837c0,.566-.721,1.042-1.684,1.169h4.44c1.208,0,2.2.541,2.2,1.2s-.992,1.2-2.2,1.2H323.686c-1.208,0-2.2-.545-2.2-1.2,0-.566.721-1.039,1.684-1.169h-4.44c-1.212,0-2.2-.541-2.2-1.2S317.518,118.105,318.73,118.105Z" transform="translate(871.119 1178.92)"/>
    <path id="Path_92" data-name="Path 92" class="cls-1" d="M782.17,149.875h.516a1.046,1.046,0,0,1-.628-.84h0c0-.664.988-1.2,2.2-1.2h15.423c1.212,0,2.2.541,2.2,1.2h0c0,.66-.992,1.2-2.2,1.2h-.512a1.046,1.046,0,0,1,.628.84c0,.566-.721,1.042-1.684,1.169h4.44c1.212,0,2.2.541,2.2,1.2s-.988,1.2-2.2,1.2H787.129c-1.212,0-2.2-.545-2.2-1.2,0-.566.721-1.042,1.684-1.169h-4.44c-1.208,0-2.2-.541-2.2-1.2S780.962,149.875,782.17,149.875Z" transform="translate(574.831 1158.609)"/>
    <path id="Path_93" data-name="Path 93" class="cls-1" d="M253.094,285.835h.512a1.042,1.042,0,0,1-.628-.84h0c0-.66.992-1.2,2.2-1.2H270.6c1.208,0,2.2.545,2.2,1.2h0c0,.664-.992,1.2-2.2,1.2h-.516a1.032,1.032,0,0,1,.628.837c0,.566-.721,1.042-1.684,1.169h4.44c1.212,0,2.2.545,2.2,1.2s-.992,1.2-2.2,1.2H258.064c-1.212,0-2.2-.541-2.2-1.2,0-.563.721-1.039,1.684-1.169h-4.454c-1.212,0-2.2-.541-2.2-1.2S251.9,285.835,253.094,285.835Z" transform="translate(913.084 1071.687)"/>
    <ellipse id="Ellipse_18" data-name="Ellipse 18" class="cls-1" cx="23.43" cy="77.102" rx="23.43" ry="77.102" transform="translate(1300.804 1478.13) rotate(-78.45)"/>
    <path id="Path_94" data-name="Path 94" class="cls-2" d="M828.56,388s4.1-20.129,19.758-18.265c0,0,10.82.743,13.046,7.827v15.657Z" transform="translate(543.766 1016.819)"/>
    <path id="Path_95" data-name="Path 95" class="cls-3" d="M733.32,385.07,593.893,373.51,576,377.239l1.118,24.977,1.219.148,1.389,37.507,136.816,24.6,14.542-12.3V411.511l1.861-1.093Z" transform="translate(724.75 1027.206)"/>
    <path id="Path_96" data-name="Path 96" class="cls-4" d="M984.941,405.56l-.375,25.348-15.1,7.084-.187-26.47Z" transform="translate(473.317 1006.716)"/>
    <path id="Path_97" data-name="Path 97" class="cls-4" d="M980.535,478.94l.184,39.891-14.539,12.3.934-46.228Z" transform="translate(475.299 959.803)"/>
    <path id="Path_98" data-name="Path 98" class="cls-4" d="M582.815,455.4l139.25,16.991.072-3.224L582.71,454.13Z" transform="translate(720.46 975.664)"/>
    <path id="Path_99" data-name="Path 99" class="cls-4" d="M981.526,480.4V478.94l-13.8,6.088v3.232Z" transform="translate(474.308 959.803)"/>
    <path id="Path_100" data-name="Path 100" class="cls-5" d="M575.48,377.239l17.893-3.729L732.8,385.07l-15.657,5.962Z" transform="translate(725.082 1027.206)"/>
    <path id="Path_101" data-name="Path 101" class="cls-6" d="M952.272,407.55l6.842.447-11.34,3.394L942,410.976Z" transform="translate(490.758 1005.444)"/>
    <path id="Path_102" data-name="Path 102" class="cls-7" d="M952.272,406.72l6.842.447-11.34,3.4L942,410.146Z" transform="translate(490.758 1005.975)"/>
    <path id="Path_103" data-name="Path 103" class="cls-8" d="M1022.32,444.5c.271-.115.555.1.844.159.166.032.335,0,.5.032.335.043.667.267.988.155" transform="translate(419.891 968.961)"/>
    <path id="Path_104" data-name="Path 104" class="cls-8" d="M1021.34,445.071c.267-.115.555.1.844.159.166.029.335,0,.5.029.335.047.667.271.988.159" transform="translate(420.518 968.598)"/>
    <path id="Path_105" data-name="Path 105" class="cls-8" d="M1019.08,446.211c.271-.115.559.1.848.155.162.032.335,0,.5.032.339.047.671.271.988.155" transform="translate(421.962 967.869)"/>
    <path id="Path_106" data-name="Path 106" class="cls-6" d="M870.272,398.21l6.842.451-11.34,3.394L860,401.636Z" transform="translate(543.182 1011.415)"/>
    <path id="Path_107" data-name="Path 107" class="cls-7" d="M870.272,397.39l6.842.447-11.34,3.394L860,400.816Z" transform="translate(543.182 1011.939)"/>
    <path id="Path_108" data-name="Path 108" class="cls-8" d="M940.32,435.171c.271-.115.555.1.844.159.166.029.335,0,.5.029.335.047.667.271.988.159" transform="translate(472.316 974.927)"/>
    <path id="Path_109" data-name="Path 109" class="cls-8" d="M939.34,435.741c.267-.115.555.1.844.155.166.032.335,0,.5.032.335.047.667.271.988.155" transform="translate(472.942 974.563)"/>
    <path id="Path_110" data-name="Path 110" class="cls-8" d="M937.08,436.871c.271-.115.559.1.848.159.162.032.335,0,.5.032.339.043.671.271.988.155" transform="translate(474.387 973.839)"/>
    <path id="Path_111" data-name="Path 111" class="cls-6" d="M909.6,402.88l6.846.447-11.34,3.4-5.778-.418Z" transform="translate(518.038 1008.43)"/>
    <path id="Path_112" data-name="Path 112" class="cls-7" d="M909.6,402.06l6.846.447-11.34,3.394-5.778-.418Z" transform="translate(518.038 1008.954)"/>
    <path id="Path_113" data-name="Path 113" class="cls-8" d="M979.65,439.841c.271-.115.559.1.848.155.162.032.332,0,.5.032.335.043.671.271.988.155" transform="translate(447.171 971.941)"/>
    <path id="Path_114" data-name="Path 114" class="cls-8" d="M978.67,440.4c.271-.115.559.1.848.159.162.032.332,0,.5.032.335.043.671.271.988.155" transform="translate(447.798 971.583)"/>
    <path id="Path_115" data-name="Path 115" class="cls-8" d="M976.42,441.541c.267-.115.555.1.844.159.166.029.335,0,.5.029.335.047.667.271.988.159" transform="translate(449.236 970.854)"/>
    <ellipse id="Ellipse_19" data-name="Ellipse 19" class="cls-1" cx="73.03" cy="15.033" rx="73.03" ry="15.033" transform="translate(1199.703 1521.367)"/>
    <path id="Path_116" data-name="Path 116" class="cls-9" d="M527.068,304.711a48.926,48.926,0,0,0-3.863-13.378l.234-2.308s.05-1.154-.025-2.885a13.13,13.13,0,0,1,.422-3.2c.631-2-.79-4.462-.949-4.689s.079-4.617-1.342-6.77-10.885-6.157-10.885-6.157-.509-1.064-1.226-2.308l.065-.126a13.561,13.561,0,0,0-2.164-2.918c-.581-.62-1.14-.974-1.591-.8a12.979,12.979,0,0,1-.418-1.829c.094.025.191.051.285.069a2.943,2.943,0,0,0,1.19.029,3.537,3.537,0,0,0,1.955-1.731c2.445-3.715,4.552-7.791,4.981-12.187a7.748,7.748,0,0,0-.126-2.691,9.077,9.077,0,0,0-.844-1.966,15.794,15.794,0,0,0-2.38-3.509,13.561,13.561,0,0,0-6.395-3.5,22.138,22.138,0,0,0-8.259-.617c-.721.083-1.443.2-2.164.249a22.48,22.48,0,0,1-2.745-.047l-4.721-.274-.022-.072-.786-.047a1.99,1.99,0,0,0,.386,1.926,3.287,3.287,0,0,1,.8,1.861,3.8,3.8,0,0,1-.913,1.8,1.735,1.735,0,0,0-.292,1.886,1.081,1.081,0,0,0,.191.209,2.377,2.377,0,0,0,1.735.462h.108a11.747,11.747,0,0,0-2.391,7.113,11.96,11.96,0,0,0,6.525,10.6c.069.234.137.476.2.721a22.094,22.094,0,0,1,.757,7.8l-.083.18-.051-.191s-5.562,3.773-7.214,4.772-3.311,4.386-3.39,5.309-2.683,14.849-2.683,14.849a34.123,34.123,0,0,0-1.306,4.3l-3.322,2.918s-6.853.617-8.837.155l.058.382a29.967,29.967,0,0,0-5.324-.721,5.645,5.645,0,0,0-2.885.386l-.069.032-.054.025a11.435,11.435,0,0,0-3.03.851c-.115.047-.22.094-.321.141l.022-.472-7.416-.382-3.787-.768s-1.342-1.082-2.132-.923-2.445-.923-2.445-.923a6.613,6.613,0,0,0-1.219-.757c-.126-.873-.206-1.4-.206-1.4s-2.947-11.693-5.154-18.568c-1.479-4.591-3.607-6.853-4.862-7.838-.559-.974-.927-1.6-.927-1.6a7.163,7.163,0,0,0-1.908-2.792c-.054-.087-.094-.13-.115-.13a.422.422,0,0,0-.213.032,22.943,22.943,0,0,1-.032-10.33,11.4,11.4,0,0,0,4.162-8.786v-.307a11.351,11.351,0,0,0-2.68-7.322l-.123-.137a.95.95,0,0,0,.094-.076,1.933,1.933,0,0,0,.682-1.861,12.753,12.753,0,0,0-.981-1.894,12.269,12.269,0,0,1-.4-1.544,4.76,4.76,0,0,0-1.136-1.98l.054.144a6.854,6.854,0,0,0-6.034-2.027c-1.627.26-3.141,1.017-4.775,1.252-1.172.166-2.366.058-3.545.177a9.2,9.2,0,0,0-3.145.909,1.8,1.8,0,0,0-.667.491,2.64,2.64,0,0,0-.332.927c-.4,1.461-1.67,2.5-2.59,3.722a8.711,8.711,0,0,0-1.746,4.811,3.767,3.767,0,0,0,.126,1.316c.079.256.2.5.26.757a5.2,5.2,0,0,1-.436,2.37,4.613,4.613,0,0,0,.256,3.008c1.425,3.188,6.1,4.252,7.076,7.6a9.31,9.31,0,0,0,2.341.721c.065.332.123.667.17,1.006a.27.27,0,0,0-.061.036,7.173,7.173,0,0,0-1.576,3.607l-.151.123c-.516.426-2.279,1.854-3.874,2.954-1.894,1.309-5.049,5.7-7.257,7s-4.025,9.378-3.549,12.31,2.445,11.156,1.655,14.157,1.183,16.7,1.183,16.7a20.164,20.164,0,0,1,3.866,1.147l-.04.6-.119,1.8s-3.574,12.927-2.207,22.878-.631,10.975-.631,10.975.418,4.411-.631,5.951-1.262,4.923-1.262,4.923-.1,7.592.1,9.738.314,6.056-.422,6.979-2.1,6.972-2,8.819-2.629,6.056-1.158,11.491-4.328,5.54-4.328,5.54.739,8.3,2.316,10.669l.231.339c-.04.137-.079.281-.123.436-.6,2.164-1.41,5.58-.844,6.406.84,1.233,1.262,1.024,1.262,1.024l.314,5.54s6.312,5.334,11.152,5.132,3.892-5.132,3.892-5.132l-4.123-10.69-.141-.361,4.581-8.656s1.262-3.794,1.576-5.129,2.027-6.063,2.027-6.063,4.328-10.258,4.418-11.491.422-7.9,1.262-9.233,3.156-9.017,3.156-9.017l.058.051a3.041,3.041,0,0,1,.786,3.026,24.179,24.179,0,0,0-.213,5.948,40.46,40.46,0,0,1-.631,5.132c-.422,1.746-.523,16,.213,19.386a54.887,54.887,0,0,1,.541,9.7c-.494,2.038-.927,4.57-.123,4.869,1.371.516,8.314.411,8.314.411s2.943-1.028,6.943,2.564,16.3-1.024,16.3-1.024,3.787-1.028-3.683-4c-5.212-2.074-8.577-3.455-10.777-4.934.051-.1.1-.195.151-.3,0,0-3.051-2.885-.527-8a22.277,22.277,0,0,0,2.42-9.439l.422-17.237L437.563,350l-.977-24.014.173-.058c.166,4.415,1.028,14.925,5.54,12.887,5.681-2.564.84-9.233.84-9.233l-2.55-4.97.761-.26-2.853-9.219a20.792,20.792,0,0,1-.108-5.435,21.533,21.533,0,0,0-.065-3.174c3.737-.653,7.315-1.345,7.957-1.187.757.184,5,.22,6.662.227-.545.426-.981.848-.981.848l6.784,4.566s2.3-1.259,2.781-2.593a2.993,2.993,0,0,0,1.27-.678c.072,1.576.491,3.282,1.948,3.322a2.524,2.524,0,0,0,1.06-.209l11.094-2.2-.952,5.948.664,1.179c-.335,5.017-.721,10.344-1.06,15.029l-.155,1.024.079.018c-.527,7.214-.949,12.678-.949,12.678a6.647,6.647,0,0,1,2.766-2.781l.072,10.7s.555,16.927.555,19.235.076,7.462.076,7.462,1.187,6.308,1.894,8.386,1.262,11.542,1.262,11.542,1.659,2.615.949,3.607,2.763,3.152,2.763,3.152-2.211,3-2.37,5c-.018.231.209.476.62.721-.13.1-.263.209-.411.31a7.206,7.206,0,0,1-4.783.967c-6.157-.541-10.5,5.154-6.709,6.308s15.148,1.385,15.148,1.385,3.441-2.146,6.132-1.179c-.04,2.258.072,4.328.09,4.6l-.032.025a25.017,25.017,0,0,1-7.7,4.938c-4.328,1.461-5.288,7.387.314,8.155s13.807-.923,13.807-.923,4.26-3.152,7.495-3.845,6-2.233,5.446-4.079c-.361-1.179-1.288-4.27-1.915-6.348q-.054-.187-.108-.361c.1-.216.195-.44.285-.671,0,0-1.656-8.617-.314-10.77s.631-23.7.631-23.7-2.29-5.461-1.1-8.768-1.894-8-1.894-8a146.217,146.217,0,0,1,1.237-14.654l.119-.649a29.549,29.549,0,0,0,4.4-1.7s.79-11.852,1.262-14.543c.047-.252.112-.66.191-1.19l.361-1.9h0l.426-2.164h0l1.443-7.376,2.6-3.369,6.709-6.853S527.858,311.56,527.068,304.711ZM423.612,262.392l-.051.036a.63.63,0,0,1-.018-.079.324.324,0,0,0,.069.043Zm66.282,8.4-.26.566.949-.945-1.288,1.443.433-.909Zm-6.406,13.237c-.249.66-.516,1.374-.793,2.117l.509-1.518Z" transform="translate(825.637 1108.583)"/>
    <path id="Path_117" data-name="Path 117" class="cls-10" d="M595.689,442.559s-.884,5.883,1.767,5.958,4.422-4.537,4.422-4.537l-1.082-3.69Z" transform="translate(692.736 971.633)"/>
    <path id="Path_118" data-name="Path 118" class="cls-11" d="M595.689,442.559s-.884,5.883,1.767,5.958,4.422-4.537,4.422-4.537l-1.082-3.69Z" transform="translate(692.736 971.633)"/>
    <path id="Path_119" data-name="Path 119" class="cls-12" d="M408.987,764.361c-4.718.206-10.871-5.125-10.871-5.125l-.307-5.536s-.408.206-1.23-1.024c-.552-.826.242-4.249.822-6.4.281-1.053.512-1.8.512-1.8l10.351,2.77.494,1.309,4.018,10.683S413.7,764.156,408.987,764.361Z" transform="translate(820.061 777.163)"/>
    <path id="Path_120" data-name="Path 120" class="cls-12" d="M507.925,735.274s-11.993,4.613-15.87,1.024-6.766-2.564-6.766-2.564-6.766.1-8.1-.411c-.786-.3-.361-2.864.13-4.905.332-1.41.693-2.575.693-2.575s11.787-4,13.634-1.54a8.84,8.84,0,0,0,1.966,1.875c2.135,1.544,5.471,2.943,10.748,5.1C511.615,734.246,507.925,735.274,507.925,735.274Z" transform="translate(768.684 790.568)"/>
    <path id="Path_121" data-name="Path 121" class="cls-13" d="M528.072,496.35l3.279,6.561s4.718,6.665-.819,9.226-5.432-14.759-5.432-14.759Z" transform="translate(737.776 935.792)"/>
    <path id="Path_122" data-name="Path 122" class="cls-14" d="M495.25,338.61s3.589,1.641,5.742,8.508,5.024,18.557,5.024,18.557,1.948,13.222,1.637,16.5a21.277,21.277,0,0,0,.1,5.432l2.766,9.226-5.536,1.948-8.508-32.6Z" transform="translate(756.859 1036.639)"/>
    <path id="Path_123" data-name="Path 123" class="cls-4" d="M495.25,338.61s3.589,1.641,5.742,8.508,5.024,18.557,5.024,18.557,1.948,13.222,1.637,16.5a21.277,21.277,0,0,0,.1,5.432l2.766,9.226-5.536,1.948-8.508-32.6Z" transform="translate(756.859 1036.639)"/>
    <path id="Path_124" data-name="Path 124" class="cls-6" d="M410.034,747.256l.494,1.309-.606,1.158c-2.359,1.024-8.2.206-8.2.206s-1.082-1.374-2.561-3.636c.281-1.053.512-1.8.512-1.8Z" transform="translate(818.292 777.151)"/>
    <path id="Path_125" data-name="Path 125" class="cls-6" d="M494.929,726.661c-2.99,6.774-13.154,4.26-15.978,3.412-.465-.141-.721-.234-.721-.234s.018-.552.025-1.421c.332-1.41.693-2.575.693-2.575s11.787-4,13.634-1.54a8.842,8.842,0,0,0,1.966,1.875A3.477,3.477,0,0,0,494.929,726.661Z" transform="translate(767.74 790.568)"/>
    <path id="Path_126" data-name="Path 126" class="cls-15" d="M439.681,550.11c-2.46,5.122.516,8,.516,8-2.99,6.77-13.154,4.26-15.978,3.408-.465-.137-.721-.231-.721-.231s.206-7.077-.512-10.46-.617-17.63-.206-19.372a41.245,41.245,0,0,0,.613-5.129,24.992,24.992,0,0,1,.206-5.944,3.069,3.069,0,0,0-.765-3.022l-.054-.054s-2.254,7.69-3.077,9.017-1.125,8-1.23,9.226-4.307,11.484-4.307,11.484-1.637,4.714-1.944,6.045-1.54,5.129-1.54,5.129l-4.941,9.536c-2.359,1.024-8.2.206-8.2.206s-1.125-1.443-2.665-3.794-2.254-10.658-2.254-10.658,5.637-.1,4.2-5.536,1.23-9.637,1.129-11.484,1.23-7.892,1.948-8.815.613-4.819.408-6.972-.1-9.738-.1-9.738.206-3.383,1.23-4.92.617-5.948.617-5.948,1.944-1.024.613-10.968,2.164-22.86,2.164-22.86l.119-1.8.188-2.921s29.319-1.847,31.678.408a7.776,7.776,0,0,1,1.5,2.146,21.35,21.35,0,0,1,1.7,5.457l1.23,31.062,1.23,22.86-.411,17.222A22.9,22.9,0,0,1,439.681,550.11Z" transform="translate(822.473 958.51)"/>
    <path id="Path_127" data-name="Path 127" class="cls-6" d="M483.879,538.42,480.8,605.051l-3.693,6.074c-.465-.137-.721-.231-.721-.231s.206-7.076-.512-10.46-.617-17.63-.206-19.372a41.25,41.25,0,0,0,.613-5.129,24.992,24.992,0,0,1,.206-5.944,3.069,3.069,0,0,0-.765-3.023l.051-.361Z" transform="translate(769.582 908.896)"/>
    <path id="Path_128" data-name="Path 128" class="cls-6" d="M406.782,732.62s8-3.178,9.226-2.164-9.428,2.561-9.428,2.561Z" transform="translate(813.548 786.25)"/>
    <path id="Path_129" data-name="Path 129" class="cls-6" d="M503.407,713.5c-.307.1-8.1,2.885-7.379,5.843S503.407,713.5,503.407,713.5Z" transform="translate(756.392 796.963)"/>
    <path id="Path_130" data-name="Path 130" class="cls-13" d="M449.07,286.3s2.611,6.3,1.23,9.536,14.914,8.764,14.914,8.764-4.765-12.3-.151-19.224S449.07,286.3,449.07,286.3Z" transform="translate(786.383 1072.494)"/>
    <path id="Path_131" data-name="Path 131" class="cls-16" d="M670.093,776.942c-3.152.693-7.3,3.845-7.3,3.845s-8,1.692-13.457.923-4.534-6.691-.307-8.151a24.544,24.544,0,0,0,7.506-4.93c.693-.638,1.1-1.082,1.1-1.082l15.3-3.077s.249.855.6,2.034c.613,2.081,1.518,5.169,1.865,6.344C675.936,774.713,673.245,776.25,670.093,776.942Z" transform="translate(660.774 764.377)"/>
    <path id="Path_132" data-name="Path 132" class="cls-16" d="M646.321,745.621s-6.46.693-9.15-.844-6.535.923-6.535.923-11.073-.231-14.763-1.385.537-6.853,6.535-6.3a6.889,6.889,0,0,0,4.664-.967A4.912,4.912,0,0,0,629.1,734l12.984.768,1.8,4.6Z" transform="translate(680.625 783.857)"/>
    <path id="Path_133" data-name="Path 133" class="cls-6" d="M666.387,741.47S651.3,739,649.37,737.044A4.913,4.913,0,0,0,651.4,734l12.984.768,1.8,4.6Z" transform="translate(658.327 783.857)"/>
    <path id="Path_134" data-name="Path 134" class="cls-17" d="M634.52,513.559l.155,22.524s.537,16.916.537,19.224.076,7.455.076,7.455,1.154,6.3,1.847,8.382,1.23,11.542,1.23,11.542,1.616,2.615.923,3.607,2.691,3.152,2.691,3.152-2.164,3-2.3,5,17.219,4.837,17.219,4.837l-6.763-69.347-5.385-17.374Z" transform="translate(667.821 925.429)"/>
    <path id="Path_135" data-name="Path 135" class="cls-6" d="M634.52,513.559l.155,22.524s.537,16.916.537,19.224.076,7.455.076,7.455,1.154,6.3,1.847,8.382,1.23,11.542,1.23,11.542,1.616,2.615.923,3.607,2.691,3.152,2.691,3.152-2.164,3-2.3,5,17.219,4.837,17.219,4.837l-6.763-69.347-5.385-17.374Z" transform="translate(667.821 925.429)"/>
    <path id="Path_136" data-name="Path 136" class="cls-6" d="M693.012,766.522c-5.024,11.978-16.973,2.734-16.973,2.734s0-.231-.029-.628c.693-.638,1.1-1.082,1.1-1.082l15.3-3.077S692.666,765.343,693.012,766.522Z" transform="translate(641.295 764.377)"/>
    <path id="Path_137" data-name="Path 137" class="cls-17" d="M672.235,599.96c-4.923,12.624-17.147,3.152-17.147,3.152s-.386-6.535.386-9.533-.848-12-.848-12-.923-8-1.767-9.839-.768-5.536-.768-5.843a11.155,11.155,0,0,0-.386-4.462,30.03,30.03,0,0,1-1.082-5.843,61.652,61.652,0,0,0-.693-9.3l-2.384-11.9-4.306-24.375,1.345-.231,24.1-4.227s4.537,23.083,3,25.449a9.927,9.927,0,0,0-.866,3.12c-.88,5.237-1.208,14.64-1.208,14.64s3,4.689,1.847,8,1.082,8.764,1.082,8.764.693,21.529-.617,23.682S672.235,599.96,672.235,599.96Z" transform="translate(662.246 929.904)"/>
    <path id="Path_138" data-name="Path 138" class="cls-18" d="M685.4,303.734s-21.835,15.376-16.916,7.686c2.651-4.141,2.164-9.414,1.125-13.4a31.612,31.612,0,0,0-2.164-5.875s18.553-7.892,16.093-.819a13.252,13.252,0,0,0-.721,5.136A13.707,13.707,0,0,0,685.4,303.734Z" transform="translate(646.768 1068.748)"/>
    <path id="Path_139" data-name="Path 139" class="cls-18" d="M588.207,426.443s-9.226-2.665-10.763-.051.462,8.353,3.246,9.277,9.176-3.127,9.176-3.127Z" transform="translate(704.651 981.252)"/>
    <path id="Path_140" data-name="Path 140" class="cls-10" d="M614.066,416l-3.845,3.538s-6.691.613-8.613.151c0,0,1.771,11.841-.768,13.3l15.531-3.152Z" transform="translate(689.353 987.162)"/>
    <path id="Path_141" data-name="Path 141" class="cls-6" d="M614.066,416l-3.845,3.538s-6.691.613-8.613.151c0,0,1.771,11.841-.768,13.3l15.531-3.152Z" transform="translate(689.353 987.162)"/>
    <path id="Path_142" data-name="Path 142" class="cls-6" d="M459.717,253.823a11.542,11.542,0,0,1-11.542,11.542c-5.922-2.846-11.542-5.161-11.542-11.542a11.542,11.542,0,1,1,23.065,0Z" transform="translate(794.339 1098.516)"/>
    <path id="Path_143" data-name="Path 143" class="cls-13" d="M459.807,253.822a11.52,11.52,0,1,1-2.611-7.3A11.52,11.52,0,0,1,459.807,253.822Z" transform="translate(794.249 1098.207)"/>
    <path id="Path_144" data-name="Path 144" class="cls-6" d="M460.175,464.111a26.084,26.084,0,0,1-3.574,1.854s-5.843-.848-6.687.151-8.3,1.385-8.3,1.385-11.379-.537-13.071-2a6.926,6.926,0,0,0-1.728-1.024l.188-2.922s29.319-1.847,31.678.408A7.776,7.776,0,0,1,460.175,464.111Z" transform="translate(800.608 958.491)"/>
    <path id="Path_145" data-name="Path 145" class="cls-14" d="M449.948,364.47c-.231,1.306-5,3.3-5,3.3s-5.843-.844-6.687.155-8.3,1.385-8.3,1.385-11.379-.541-13.071-2-5.461-2.164-5.461-2.164-1.922-13.684-1.151-16.681-1.154-11.228-1.616-14.149,1.306-10.993,3.459-12.3,5.23-5.691,7.073-7c1.555-1.1,3.271-2.525,3.773-2.954l.148-.123a7.279,7.279,0,0,1,1.54-3.607c1.23-1.223,12.53,7.765,12.53,7.765s.079.693.848-.613c.173-.292,1.663,1.857,1.922,2.766,0,0,6.15,10.766,6.535,12.984s2,9.457,2.3,11.224c.079.454.209,2.049.361,4.184.029.418.054.862.087,1.324.227,3.542.472,8.065.62,11.484,0,.39.032.765.043,1.125A38.293,38.293,0,0,1,449.948,364.47Z" transform="translate(812.26 1056.066)"/>
    <path id="Path_146" data-name="Path 146" class="cls-6" d="M415,387.21s4.227,5.15,5.612,5.15S415,387.21,415,387.21Z" transform="translate(808.165 1005.568)"/>
    <path id="Path_147" data-name="Path 147" class="cls-6" d="M428.908,417.91s-6.921,7.535-6,8.92S428.908,417.91,428.908,417.91Z" transform="translate(803.162 985.941)"/>
    <path id="Path_148" data-name="Path 148" class="cls-6" d="M425.62,438.766s7.935-8.689,8.3-11.686Z" transform="translate(801.375 980.078)"/>
    <path id="Path_149" data-name="Path 149" class="cls-6" d="M453.33,444.479s9.15-4.844,9.919-8.689S453.33,444.479,453.33,444.479Z" transform="translate(783.659 974.978)"/>
    <path id="Path_150" data-name="Path 150" class="cls-6" d="M483.27,329.8,482,332.876l2.114,1,2.077,5.807s5.728,11.455,5.5,17.413a105.555,105.555,0,0,0,1.039,14.914l3.3-.613-1.558-17.525A25.281,25.281,0,0,0,492.46,346c-2.64-6.045-7.553-17.2-7.863-17.2-.422,0-.126.155-.126.155Z" transform="translate(765.33 1042.911)"/>
    <path id="Path_151" data-name="Path 151" class="cls-19" d="M484.12,328.949l-1.27,3.077,2.117,1,2.074,5.807s5.728,11.455,5.5,17.414a105.555,105.555,0,0,0,1.039,14.914l3.307-.613-1.562-17.525a25.184,25.184,0,0,0-2.009-7.866c-2.64-6.049-7.553-17.2-7.859-17.2-.426,0-.13.155-.13.155Z" transform="translate(764.787 1043.454)"/>
    <path id="Path_152" data-name="Path 152" class="cls-13" d="M576.62,437.026c-1.609-.123-5.468-2.074-7-2.885l-.649-.361.079-5.955a10.457,10.457,0,0,1,1.176-.6c2.049-.895,6.251-2.11,8.357,1.8C581.424,434.281,578.658,437.163,576.62,437.026Z" transform="translate(709.728 980.563)"/>
    <path id="Path_153" data-name="Path 153" class="cls-6" d="M457.086,246.456a1.706,1.706,0,0,1-.537.22c-1.338.292-2.86-.858-4.007-.119a2.9,2.9,0,0,0-.956,2.225q-.245,2.164-.491,4.3a5.306,5.306,0,0,1-.317,1.482,3.719,3.719,0,0,1-3.538,1.883,2.11,2.11,0,0,1-1.526-.5c-.249-.252-.382-.606-.656-.837-1.8-1.511-2.352,2.193-1.876,3.246.765,1.72,3.481,3.38,2.341,5.565a2.085,2.085,0,0,1-.837.84,11.542,11.542,0,1,1,12.4-18.3Z" transform="translate(794.36 1098.276)"/>
    <path id="Path_154" data-name="Path 154" class="cls-20" d="M438.171,245.848c.271.227.408.581.656.833a2.113,2.113,0,0,0,1.526.5,3.7,3.7,0,0,0,3.535-1.886,5.137,5.137,0,0,0,.321-1.479l.491-4.3a2.891,2.891,0,0,1,.956-2.225c1.147-.721,2.669.411,4.007.119a1.958,1.958,0,0,0,1.443-2.258,12.7,12.7,0,0,0-.952-1.89,12.346,12.346,0,0,1-.393-1.54c-.747-2.8-4.032-4.371-6.889-3.9-1.587.263-3.062,1.021-4.653,1.252-1.14.166-2.3.058-3.455.18a8.722,8.722,0,0,0-3.066.905,1.782,1.782,0,0,0-.649.491,2.71,2.71,0,0,0-.325.923c-.386,1.443-1.627,2.507-2.525,3.722a8.869,8.869,0,0,0-1.71,4.8,3.849,3.849,0,0,0,.123,1.316c.076.253.195.5.252.757a5.277,5.277,0,0,1-.426,2.366,4.732,4.732,0,0,0,.252,3.008c1.385,3.185,5.948,4.249,6.9,7.592a7.574,7.574,0,0,0,2.683.721,2.588,2.588,0,0,0,2.366-1.208c1.136-2.164-1.576-3.845-2.341-5.562C435.815,248.033,436.353,244.333,438.171,245.848Z" transform="translate(800.94 1107.519)"/>
    <path id="Path_155" data-name="Path 155" class="cls-6" d="M683.587,291.331a13.252,13.252,0,0,0-.721,5.136c-.555.473-1.161-.941-1.8-.577-1.76,1.017-3.794,3.437-5.973,3.437a11.964,11.964,0,0,1-5.435-1.3,31.612,31.612,0,0,0-2.164-5.875S686.047,284.258,683.587,291.331Z" transform="translate(646.742 1068.748)"/>
    <path id="Path_156" data-name="Path 156" class="cls-18" d="M679.252,262.5a12,12,0,1,1-12-12A12,12,0,0,1,679.252,262.5Z" transform="translate(654.561 1092.97)"/>
    <path id="Path_157" data-name="Path 157" class="cls-21" d="M667.84,326.336s-2.258,2.46-2.564,2.662-6.853,27.772-6.968,28.093-7.794,25.215-7.794,25.215l-12.3,6.049,1.028-30.448,9.017-25.11s2.976-3.383,3.9-4.613,12.4-8.613,12.4-8.613l1.962,4.043Z" transform="translate(665.461 1048.812)"/>
    <path id="Path_158" data-name="Path 158" class="cls-6" d="M690.373,325.323l-14.146,10.128L676,329.889c.923-1.23,12.4-8.609,12.4-8.609Z" transform="translate(641.301 1047.719)"/>
    <path id="Path_159" data-name="Path 159" class="cls-21" d="M691.236,323.613,677.09,333.741l-.22-5.558c.923-1.234,12.4-8.613,12.4-8.613Z" transform="translate(640.745 1048.812)"/>
    <path id="Path_160" data-name="Path 160" class="cls-10" d="M644.674,336.59l.472,2.474-3.163,3.214,2.525-5.652s-5.41,3.769-7.033,4.768-3.246,4.382-3.307,5.306-2.615,14.838-2.615,14.838-1.922,5.15-1.381,6.611-2.922,47.516-2.922,47.516a6.853,6.853,0,0,1,4.624-3.545L630.64,384.9s1.5-18.106,1.576-18.337,3.5-10.727,3.5-10.727Z" transform="translate(672.468 1037.931)"/>
    <path id="Path_161" data-name="Path 161" class="cls-6" d="M648.494,344.3l-.245,5.049s-3.423,10.8-4.573,12.57-4.653,12.3-4.653,12.3l-1.973,18.3-3.383,1.54L632,390.993l2.77-17.673s5.226-14.914,6-16.454l3.856-8.122Z" transform="translate(669.432 1033.001)"/>
    <path id="Path_162" data-name="Path 162" class="cls-22" d="M647.615,343.45l-.242,5.049s-3.423,10.8-4.577,12.57-4.649,12.3-4.649,12.3l-1.962,18.3-3.383,1.536-1.692-3.073,2.77-17.673s5.226-14.918,5.994-16.454l3.884-8.112Z" transform="translate(670.001 1033.545)"/>
    <path id="Path_163" data-name="Path 163" class="cls-18" d="M566.31,447.337l6.611,4.577s4.664-2.615,1.948-4.306a12.042,12.042,0,0,0-6-1.948C568,445.66,566.31,447.337,566.31,447.337Z" transform="translate(711.429 968.2)"/>
    <path id="Path_164" data-name="Path 164" class="cls-18" d="M579.15,425.772a1.017,1.017,0,0,0-.48.869c0,1.4.159,5.118,1.335,3.441,1.443-2.052,1.179-3.9,3.383-2.564a12.986,12.986,0,0,1,3.535,3.246l-.613-4.407S581.779,424.12,579.15,425.772Z" transform="translate(703.527 981.303)"/>
    <path id="Path_165" data-name="Path 165" class="cls-6" d="M673.754,530.969a9.929,9.929,0,0,0-.866,3.12,26.061,26.061,0,0,1-23.347-4.5,117.643,117.643,0,0,1-2.921-12.3,40.074,40.074,0,0,1,.036-7.538l24.1-4.227S675.294,528.585,673.754,530.969Z" transform="translate(660.186 929.93)"/>
    <path id="Path_166" data-name="Path 166" class="cls-10" d="M687.557,343.095a23.9,23.9,0,0,0-.382,6.074l-5.536,26.142s-2.691,20.144-3.152,22.834-1.23,14.532-1.23,14.532a26.042,26.042,0,0,1-27.772-2.766,117.886,117.886,0,0,1-2.922-12.3c-.772-4.566,1.5-22.86,2.575-30.986.321-2.406.537-3.921.537-3.921l4.036-14.993s4.959-12.649,6.806-16.339,9.262-11.978,9.262-11.978c.92-.584,2.391,1.479,3.484,3.358.826,1.421,1.443,2.741,1.443,2.741s9.226,4,10.608,6.132,1.154,6.535,1.309,6.766S688.173,341.1,687.557,343.095Z" transform="translate(660.222 1048.991)"/>
    <path id="Path_167" data-name="Path 167" class="cls-6" d="M671.212,334.336s.692,4.076-1.082,5.306c-1.713,1.19-14.467,26.268-15.26,27.833.321-2.409.537-3.924.537-3.924l4.036-14.99s4.963-12.649,6.806-16.342,9.266-11.978,9.266-11.978c.92-.584,2.388,1.479,3.481,3.358C677.347,327.022,673.91,333.492,671.212,334.336Z" transform="translate(654.81 1048.447)"/>
    <path id="Path_168" data-name="Path 168" class="cls-10" d="M670.349,333.486s.689,4.076-1.082,5.306S654.8,365.056,654,366.622c.321-2.406.537-3.921.537-3.921l4.036-14.993s4.959-12.649,6.806-16.339,9.262-11.978,9.262-11.978c.92-.584,2.391,1.479,3.484,3.358C676.485,326.168,673.044,332.642,670.349,333.486Z" transform="translate(655.367 1048.991)"/>
    <path id="Path_169" data-name="Path 169" class="cls-23" d="M618.95,412.647l-4.339,22.575v0l-.415,2.16v0l-.934,4.858-3.985-.844-1.857-.393-25.705-5.446-1.89-.4-4.314-.912.844-5.6.35-2.33,3.113-20.667Z" transform="translate(725.063 1006.659)"/>
    <path id="Path_170" data-name="Path 170" class="cls-18" d="M668.813,511.92s-10.225,3.69-8,8.072,16.53-3.383,16.53-3.383Z" transform="translate(651.212 925.838)"/>
    <path id="Path_171" data-name="Path 171" class="cls-6" d="M703.8,599.1c0,.307.386,4.231,1.922,5.612S703.8,599.1,703.8,599.1Z" transform="translate(623.528 870.102)"/>
    <path id="Path_172" data-name="Path 172" class="cls-6" d="M675.24,637.68s1.843,5.075,9.147,7.152S675.24,637.68,675.24,637.68Z" transform="translate(641.787 845.437)"/>
    <path id="Path_173" data-name="Path 173" class="cls-6" d="M683.389,262.551a11.993,11.993,0,0,1-6.012,10.4,6.384,6.384,0,0,1-1.8-1.5,2.33,2.33,0,0,1-.617-2.258c.252-.61.92-1,1.082-1.627a2.4,2.4,0,0,0-.058-1.161c-.133-.6-.26-1.19-.39-1.782-.112-.5-.31-1.1-.812-1.223s-.92.3-1.313.606a4.116,4.116,0,0,1-3.967.653c-1.158-.624-.833-2.712-1.021-3.841a.671.671,0,0,0-.252-.509,1.053,1.053,0,0,0-.523-.036,1.506,1.506,0,0,1-1.306-1.158,9.965,9.965,0,0,1-.209-1.857,2.072,2.072,0,0,0-.83-1.605,2.564,2.564,0,0,0-1.367-.224l-2.261.025a12,12,0,0,1,21.641,7.113Z" transform="translate(650.425 1092.914)"/>
    <path id="Path_174" data-name="Path 174" class="cls-22" d="M670.074,258.268c.393-.31.826-.721,1.313-.6s.7.721.808,1.219l.39,1.778a2.416,2.416,0,0,1,.061,1.165c-.184.635-.848,1.017-1.1,1.627a2.331,2.331,0,0,0,.617,2.254,6.492,6.492,0,0,0,3.711,2.218,2.727,2.727,0,0,0,1.158.025,3.426,3.426,0,0,0,1.9-1.728c2.384-3.715,4.436-7.787,4.855-12.18a7.813,7.813,0,0,0-.123-2.687,9.013,9.013,0,0,0-.822-1.966,15.868,15.868,0,0,0-2.319-3.509,13.172,13.172,0,0,0-6.232-3.495,21.106,21.106,0,0,0-8.047-.631c-.721.083-1.414.2-2.124.249a21.38,21.38,0,0,1-2.676-.043l-5.309-.317a2.062,2.062,0,0,0,.361,1.926,3.457,3.457,0,0,1,.779,1.861,3.829,3.829,0,0,1-.891,1.8,1.776,1.776,0,0,0-.285,1.886,2.018,2.018,0,0,0,1.8.592l2.676-.029a2.557,2.557,0,0,1,1.36.234,2.078,2.078,0,0,1,.83,1.605,10.608,10.608,0,0,0,.209,1.857,1.5,1.5,0,0,0,1.306,1.158.974.974,0,0,1,.523.04.664.664,0,0,1,.253.5c.188,1.129-.159,3.214,1.021,3.841A4.154,4.154,0,0,0,670.074,258.268Z" transform="translate(654.138 1098.647)"/>
    <path id="Path_175" data-name="Path 175" class="cls-6" d="M697.159,353.411a5.879,5.879,0,0,0-6.186,3.949c-1.443,4.108-3.848,11.52-3.246,14.449.848,4.151,1.847,11.073,1.847,11.073s4.382,2.525,2.164,5.071a14.363,14.363,0,0,0-2.846,6.153s-2.846,1.23-3.459,3.845-4.768,6.225-4.768,6.225l-6.225,6.229s10.3,10.46,12.378,10.993l6.38-7.459,7.535-9.994,6.536-6.853s1.536-3.607.768-10.46a50.057,50.057,0,0,0-3.769-13.378l.231-2.308S705.206,354.41,697.159,353.411Z" transform="translate(642.299 1027.198)"/>
    <path id="Path_176" data-name="Path 176" class="cls-10" d="M698.865,353.413a5.879,5.879,0,0,0-6.178,3.949c-1.443,4.108-3.848,11.52-3.246,14.449.844,4.151,1.843,11.073,1.843,11.073s4.382,2.525,2.164,5.071a14.333,14.333,0,0,0-2.842,6.153s-2.846,1.23-3.463,3.845-4.765,6.225-4.765,6.225l-6.229,6.229s10.3,10.46,12.378,10.993l6.38-7.459,7.516-9.994,6.536-6.853s1.54-3.607.768-10.46a50.277,50.277,0,0,0-3.766-13.378l.231-2.308S706.912,354.412,698.865,353.413Z" transform="translate(641.206 1027.196)"/>
    <path id="Path_177" data-name="Path 177" class="cls-6" d="M721.28,418.34s6.535,7.993,9.305,6.225S721.28,418.34,721.28,418.34Z" transform="translate(612.353 985.666)"/>
    <path id="Path_178" data-name="Path 178" class="cls-6" d="M728.1,401.28c.693.231,6.384,8.151,9.305,7.214S728.1,401.28,728.1,401.28Z" transform="translate(607.993 996.573)"/>
    <path id="Path_179" data-name="Path 179" class="cls-6" d="M732.58,439a4.281,4.281,0,0,0,5.075,3.921C742.344,442.3,732.58,439,732.58,439Z" transform="translate(605.129 972.457)"/>
    <path id="Path_180" data-name="Path 180" class="cls-6" d="M616.526,301.83l-2.536,5.652,3.167-3.214Z" transform="translate(700.462 1073.033)"/>
    <path id="Path_181" data-name="Path 181" class="cls-21" d="M616.526,300.98l-2.536,5.652,3.167-3.214Z" transform="translate(700.462 1073.577)"/>
    <path id="Path_182" data-name="Path 182" class="cls-24" d="M583.21,472.2l-1.89-.4-3.47-6.517.35-2.33Z" transform="translate(723.567 970.025)"/>
    <path id="Path_183" data-name="Path 183" class="cls-24" d="M671.172,487.65l-.415,2.16v0l-4.92,4.014-1.857-.393Z" transform="translate(668.502 954.234)"/>
    <path id="Path_184" data-name="Path 184" class="cls-6" d="M457.336,383.545c-.952.159-1.875.3-2.719.411-4.689.617-15.841-4.92-15.841-4.92s-13.608-11.379-17.529-22.142,4.689-12.378,4.689-12.378c3.246-1.847,10.3,3.3,11.3,4.151a6.42,6.42,0,0,1,1.767,4.382c-.079,1.385,2.308,3.152,2.308,3.152s4.076,7.073,5.075,7.841a4.012,4.012,0,0,1,1.536,2.77c.307,1.309,3,2.384,4.151,2.3s2.525.386,2.525,1c0,.494,1.129.739,2.056.819C456.932,374.878,457.2,380.043,457.336,383.545Z" transform="translate(804.826 1033.117)"/>
    <path id="Path_185" data-name="Path 185" class="cls-6" d="M458.386,380.24c-.721.115-1.414.22-2.063.307-4.689.617-15.837-4.92-15.837-4.92s-13.608-11.379-17.529-22.142,4.689-12.378,4.689-12.378c3.246-1.847,10.3,3.3,11.3,4.151a6.44,6.44,0,0,1,1.771,4.382c-.076,1.385,2.3,3.152,2.3,3.152s4.076,7.073,5.075,7.841a4.029,4.029,0,0,1,1.54,2.77c.31,1.309,3,2.38,4.151,2.3s2.525.386,2.525,1c0,.361.642.6,1.356.721.029.418.054.862.087,1.324C457.992,372.3,458.238,376.821,458.386,380.24Z" transform="translate(803.732 1035.297)"/>
    <path id="Path_186" data-name="Path 186" class="cls-6" d="M570.225,428.84l-.292,6.911h-.314l-.649-.361.079-5.955A10.457,10.457,0,0,1,570.225,428.84Z" transform="translate(709.728 978.953)"/>
    <path id="Path_187" data-name="Path 187" class="cls-14" d="M425.935,342.809s-8.609,1.616-4.689,12.378,17.529,22.146,17.529,22.146,11.149,5.533,15.841,4.92,11.837-2.229,12.761-2,7.152.231,7.152.231l.307-7.214-7.214-.386-3.69-.768s-1.309-1.082-2.078-.923-2.38-.923-2.38-.923a4.6,4.6,0,0,0-2.164-1c-.931,0-2.691-.231-2.691-.844s-1.385-1.082-2.525-1-3.863-1-4.18-2.323a4.014,4.014,0,0,0-1.536-2.766c-1-.768-5.075-7.845-5.075-7.845s-2.384-1.767-2.308-3.149a6.452,6.452,0,0,0-1.767-4.386C436.229,346.112,429.159,340.966,425.935,342.809Z" transform="translate(804.826 1034.208)"/>
    <path id="Path_188" data-name="Path 188" class="cls-6" d="M492.849,412.15s-3.307,3.307-2.463,3.921Z" transform="translate(760.057 989.623)"/>
    <path id="Path_189" data-name="Path 189" class="cls-6" d="M501.324,419.4s-4.306,3.307-3.152,3.538S501.324,419.4,501.324,419.4Z" transform="translate(755.117 984.988)"/>
    <path id="Path_190" data-name="Path 190" class="cls-6" d="M487,433c.617.31,9.764,5.771,13.226,5.691Z" transform="translate(762.133 976.293)"/>
    <path id="Path_191" data-name="Path 191" class="cls-6" d="M463.518,317.835s-1.616,5.306-2.233,5.306c-.483,0-8.6-6.572-11.985-9.334l.148-.123a7.259,7.259,0,0,1,1.536-3.607C452.214,308.855,463.518,317.835,463.518,317.835Z" transform="translate(786.236 1054.954)"/>
    <path id="Path_192" data-name="Path 192" class="cls-14" d="M462.658,316.125s-1.612,5.306-2.229,5.306c-.487,0-8.6-6.572-11.989-9.334l.148-.123a7.279,7.279,0,0,1,1.54-3.607C451.358,307.144,462.658,316.125,462.658,316.125Z" transform="translate(786.786 1056.047)"/>
    <g id="Group_21" data-name="Group 21" class="cls-25" transform="translate(1227.67 1337.226)">
      <path id="Path_193" data-name="Path 193" d="M427.49,282.54h0c1.082,2.471,4.061,3.668,5.789,5.637C432.251,285.757,429.246,284.571,427.49,282.54Z" transform="translate(-427.49 -264.741)"/>
      <path id="Path_194" data-name="Path 194" d="M449.659,294.625a2.592,2.592,0,0,1-2.366,1.208,6.9,6.9,0,0,1-2.373-.606,4.614,4.614,0,0,1,.613,1.306,7.538,7.538,0,0,0,2.683.721,2.567,2.567,0,0,0,2.366-1.208c.689-1.316-.029-2.442-.869-3.506A2.29,2.29,0,0,1,449.659,294.625Z" transform="translate(-438.633 -271.134)"/>
      <path id="Path_195" data-name="Path 195" d="M467.013,238.6a12.368,12.368,0,0,0-.952-1.89,11.8,11.8,0,0,1-.393-1.544,4.783,4.783,0,0,0-1.107-1.98,4.6,4.6,0,0,1,.184.545,12.4,12.4,0,0,0,.4,1.551,12.37,12.37,0,0,1,.952,1.89,1.958,1.958,0,0,1-1.443,2.258c-1.335.292-2.857-.862-4-.119a2.881,2.881,0,0,0-.959,2.222q-.242,2.164-.491,4.3a5.159,5.159,0,0,1-.317,1.479,3.716,3.716,0,0,1-3.538,1.886,2.124,2.124,0,0,1-1.522-.5,10.062,10.062,0,0,0-.66-.837c-1.8-1.515-2.352,2.189-1.876,3.246a6.535,6.535,0,0,0,.88,1.324c-.4-1.19.159-4.617,1.919-3.149a9.316,9.316,0,0,1,.656.837,2.139,2.139,0,0,0,1.526.5,3.716,3.716,0,0,0,3.538-1.886,5.159,5.159,0,0,0,.317-1.482q.245-2.164.491-4.3a2.89,2.89,0,0,1,.956-2.222c1.151-.743,2.673.411,4.007.115A1.955,1.955,0,0,0,467.013,238.6Z" transform="translate(-442.602 -233.19)"/>
    </g>
    <path id="Path_196" data-name="Path 196" class="cls-6" d="M677.646,266.937a2.788,2.788,0,0,1-1.158-.029,6.492,6.492,0,0,1-3.708-2.215,2.322,2.322,0,0,1-.617-2.258c.252-.61.916-.992,1.082-1.627a2.416,2.416,0,0,0-.061-1.165l-.39-1.778c-.112-.5-.307-1.1-.808-1.219s-.92.292-1.313.6a4.108,4.108,0,0,1-3.967.653c-1.154-.628-.833-2.712-1.021-3.841a.675.675,0,0,0-.252-.5,1.028,1.028,0,0,0-.527-.04,1.51,1.51,0,0,1-1.306-1.158,10.236,10.236,0,0,1-.206-1.857,2.081,2.081,0,0,0-.833-1.605,2.593,2.593,0,0,0-1.36-.234l-2.676.029c-.66,0-1.443-.043-1.8-.592a1.8,1.8,0,0,1,.285-1.886,3.733,3.733,0,0,0,.891-1.8,3.392,3.392,0,0,0-.779-1.861,3.336,3.336,0,0,1-.454-1.032l-.768-.047a2.076,2.076,0,0,0,.361,1.926,3.441,3.441,0,0,1,.779,1.857,3.829,3.829,0,0,1-.891,1.8,1.766,1.766,0,0,0-.281,1.886,2.016,2.016,0,0,0,1.8.6l2.676-.032a2.59,2.59,0,0,1,1.36.238,2.071,2.071,0,0,1,.833,1.6,9.965,9.965,0,0,0,.209,1.857,1.493,1.493,0,0,0,1.306,1.154,1.057,1.057,0,0,1,.523.04.678.678,0,0,1,.253.509c.188,1.125-.159,3.214,1.021,3.841a4.092,4.092,0,0,0,3.967-.653c.393-.31.83-.721,1.316-.606s.7.721.8,1.219l.393,1.782a2.413,2.413,0,0,1,.058,1.165c-.18.631-.848,1.017-1.1,1.623a2.328,2.328,0,0,0,.617,2.258,6.492,6.492,0,0,0,3.733,2.215,2.788,2.788,0,0,0,1.158.029,2.719,2.719,0,0,0,1.5-1.14A2,2,0,0,1,677.646,266.937Z" transform="translate(654.288 1098.743)"/>
    <ellipse id="Ellipse_20" data-name="Ellipse 20" class="cls-1" cx="8.718" cy="1.338" rx="8.718" ry="1.338" transform="translate(1157.749 1522.293)"/>
    <ellipse id="Ellipse_21" data-name="Ellipse 21" class="cls-1" cx="8.718" cy="1.338" rx="8.718" ry="1.338" transform="translate(1462.131 1487.503)"/>
    <ellipse id="Ellipse_22" data-name="Ellipse 22" class="cls-1" cx="25.247" cy="3.874" rx="25.247" ry="3.874" transform="translate(1356.727 1538.888)"/>
    <ellipse id="Ellipse_23" data-name="Ellipse 23" class="cls-1" cx="19.693" cy="3.022" rx="19.693" ry="3.022" transform="translate(1434.053 1523.329)"/>
    <ellipse id="Ellipse_24" data-name="Ellipse 24" class="cls-1" cx="33.395" cy="5.125" rx="33.395" ry="5.125" transform="translate(1417.108 1551.342)"/>
    <ellipse id="Ellipse_25" data-name="Ellipse 25" class="cls-1" cx="25.247" cy="3.874" rx="25.247" ry="3.874" transform="translate(1103.907 1557.102)"/>
    <path id="Path_197" data-name="Path 197" class="cls-23" d="M254.075,631.85s.988,1.291-.454,3.246-2.633,3.607-2.164,4.811c0,0,2.164-3.607,3.967-3.672S256.026,634.028,254.075,631.85Z" transform="translate(912.788 849.164)"/>
    <path id="Path_198" data-name="Path 198" class="cls-6" d="M254.188,631.85a1.442,1.442,0,0,1,.2.4c1.731,2.034,2.651,3.928.988,3.967-1.547.043-3.4,2.813-3.848,3.513a1.345,1.345,0,0,0,.05.159s2.164-3.607,3.967-3.672S256.139,634.028,254.188,631.85Z" transform="translate(912.675 849.164)"/>
    <path id="Path_199" data-name="Path 199" class="cls-26" d="M263.591,635.892c0,.454-.054.822-.115.822s-.115-.361-.115-.822.065-.238.126-.238S263.591,635.438,263.591,635.892Z" transform="translate(905.112 846.767)"/>
    <path id="Path_200" data-name="Path 200" class="cls-26" d="M264.362,637.364c-.4.216-.747.361-.775.292s.267-.274.667-.494.242-.058.271,0S264.762,637.144,264.362,637.364Z" transform="translate(904.968 845.84)"/>
    <path id="Path_201" data-name="Path 201" class="cls-23" d="M240.511,631.85s-.988,1.291.454,3.246,2.637,3.607,2.164,4.811c0,0-2.164-3.607-3.949-3.672S238.549,634.028,240.511,631.85Z" transform="translate(921.137 849.164)"/>
    <path id="Path_202" data-name="Path 202" class="cls-6" d="M240.5,631.85a1.59,1.59,0,0,0-.2.4c-1.731,2.034-2.651,3.928-.988,3.967,1.547.043,3.4,2.813,3.852,3.513a1.378,1.378,0,0,1-.054.159s-2.164-3.607-3.949-3.672S238.535,634.028,240.5,631.85Z" transform="translate(921.151 849.164)"/>
    <path id="Path_203" data-name="Path 203" class="cls-26" d="M239.35,635.892c0,.454.05.822.112.822s.115-.361.115-.822-.065-.238-.126-.238S239.35,635.438,239.35,635.892Z" transform="translate(920.462 846.767)"/>
    <path id="Path_204" data-name="Path 204" class="cls-26" d="M237.17,637.364c.4.216.747.361.779.292s-.271-.274-.671-.494-.242-.058-.271,0S236.77,637.144,237.17,637.364Z" transform="translate(922.011 845.84)"/>
    <ellipse id="Ellipse_26" data-name="Ellipse 26" class="cls-1" cx="10.326" cy="1.583" rx="10.326" ry="1.583" transform="translate(1153.929 1495.78)"/>
    <path id="Path_205" data-name="Path 205" class="cls-27" d="M247.559,648.282l-.051.4-.069.57-.029.238-.069.57-.032.238-.069.57-.79,6.492c-.069.577-1.014,1.028-2.164,1.028H240.2c-1.14,0-2.085-.451-2.164-1.028l-.79-6.492-.069-.57-.029-.238-.072-.57-.029-.238-.069-.57-.05-.4c-.04-.328.472-.6,1.118-.6h8.4C247.086,647.68,247.6,647.954,247.559,648.282Z" transform="translate(922.013 839.044)"/>
    <path id="Path_206" data-name="Path 206" class="cls-28" d="M193.492,614.76l-.069.57H183.029l-.069-.57Z" transform="translate(976.029 872.97)"/>
    <path id="Path_207" data-name="Path 207" class="cls-28" d="M193.567,617l-.069.57H183.3l-.072-.57Z" transform="translate(975.857 871.538)"/>
    <path id="Path_208" data-name="Path 208" class="cls-28" d="M193.649,619.24l-.072.57h-10l-.069-.57Z" transform="translate(975.678 870.106)"/>
    <path id="Path_209" data-name="Path 209" class="cls-23" d="M1082.46,618s-1.234,5.742,4.252,6.42l.339-.638S1082.8,619.782,1082.46,618Z" transform="translate(381.518 858.019)"/>
    <path id="Path_210" data-name="Path 210" class="cls-23" d="M1091.794,618.6l-1.277.271-.126.029s-3.4-2.763-3.362-8.93a15.236,15.236,0,0,0,1.627,2.572C1090,614.327,1091.538,616.707,1091.794,618.6Z" transform="translate(378.521 863.152)"/>
    <path id="Path_211" data-name="Path 211" class="cls-23" d="M1096.058,615.427a.8.8,0,0,1-.685.09c-3.275-.765-2.164-11.437-2.164-11.437.18.083.361,1.443,1.133,3.2C1095.657,610.352,1097.111,614.655,1096.058,615.427Z" transform="translate(374.687 866.918)"/>
    <path id="Path_212" data-name="Path 212" class="cls-23" d="M1111.616,618s.213,5.742-5.273,6.42l-.343-.649S1111.277,619.782,1111.616,618Z" transform="translate(366.393 858.019)"/>
    <path id="Path_213" data-name="Path 213" class="cls-23" d="M1106.962,610a10.619,10.619,0,0,1-4.379,8.93l-.13-.029-1.273-.271c.252-1.894,1.8-4.274,3.134-6.059A13.871,13.871,0,0,1,1106.962,610Z" transform="translate(369.474 863.133)"/>
    <path id="Path_214" data-name="Path 214" class="cls-23" d="M1101.053,614.878a1.992,1.992,0,0,1-.721.559h0a1.4,1.4,0,0,1-.271.09c-.8.188-1.082-.393-1.039-1.381a25.566,25.566,0,0,1,2.164-7.087,8.859,8.859,0,0,1,2.056-2.968S1103.192,612.4,1101.053,614.878Z" transform="translate(370.856 866.912)"/>
    <path id="Path_215" data-name="Path 215" class="cls-23" d="M1098.952,593.7s-3.657,12.984-.509,14.925S1099.76,594.847,1098.952,593.7Z" transform="translate(372.041 873.554)"/>
    <path id="Path_216" data-name="Path 216" class="cls-6" d="M1082.46,618s-1.234,5.742,4.252,6.42l.339-.638S1082.8,619.782,1082.46,618Z" transform="translate(381.518 858.019)"/>
    <path id="Path_217" data-name="Path 217" class="cls-6" d="M1091.794,618.6l-1.277.271-.126.029s-3.4-2.763-3.362-8.93a15.236,15.236,0,0,0,1.627,2.572C1090,614.327,1091.538,616.707,1091.794,618.6Z" transform="translate(378.521 863.152)"/>
    <path id="Path_218" data-name="Path 218" class="cls-6" d="M1096.058,615.427a.8.8,0,0,1-.685.09c-3.275-.765-2.164-11.437-2.164-11.437.18.083.361,1.443,1.133,3.2C1095.657,610.352,1097.111,614.655,1096.058,615.427Z" transform="translate(374.687 866.918)"/>
    <path id="Path_219" data-name="Path 219" class="cls-6" d="M1111.616,618s.213,5.742-5.273,6.42l-.343-.649S1111.277,619.782,1111.616,618Z" transform="translate(366.393 858.019)"/>
    <path id="Path_220" data-name="Path 220" class="cls-6" d="M1106.962,610a10.619,10.619,0,0,1-4.379,8.93l-.13-.029-1.273-.271c.252-1.894,1.8-4.274,3.134-6.059A13.871,13.871,0,0,1,1106.962,610Z" transform="translate(369.474 863.133)"/>
    <path id="Path_221" data-name="Path 221" class="cls-6" d="M1101.053,614.878a1.992,1.992,0,0,1-.721.559h0a1.4,1.4,0,0,1-.271.09c-.8.188-1.082-.393-1.039-1.381a25.566,25.566,0,0,1,2.164-7.087,8.859,8.859,0,0,1,2.056-2.968S1103.192,612.4,1101.053,614.878Z" transform="translate(370.856 866.912)"/>
    <path id="Path_222" data-name="Path 222" class="cls-6" d="M1098.952,593.7s-3.657,12.984-.509,14.925S1099.76,594.847,1098.952,593.7Z" transform="translate(372.041 873.554)"/>
    <path id="Path_223" data-name="Path 223" class="cls-23" d="M1082.615,618s-.721,5.742,4.761,6.42l.339-.638S1082.954,619.782,1082.615,618Z" transform="translate(381.363 858.019)"/>
    <path id="Path_224" data-name="Path 224" class="cls-23" d="M1092.284,618.62l-1.277.271-.126.029s-3.913-2.763-3.881-8.92c0,0,1,1.082,2.135,2.572C1090.495,614.346,1092.027,616.727,1092.284,618.62Z" transform="translate(378.54 863.133)"/>
    <path id="Path_225" data-name="Path 225" class="cls-6" d="M1096.088,623.159l-1.277.271c-1.208-1.06-1.688-3.83-1.861-6.33C1094.3,618.885,1095.832,621.266,1096.088,623.159Z" transform="translate(374.736 858.594)"/>
    <path id="Path_226" data-name="Path 226" class="cls-23" d="M1096.809,615.427a.808.808,0,0,1-.689.09c-3.275-.765-2.676-11.437-2.676-11.437a14.822,14.822,0,0,1,1.641,3.2C1096.409,610.352,1097.859,614.655,1096.809,615.427Z" transform="translate(374.447 866.918)"/>
    <path id="Path_227" data-name="Path 227" class="cls-23" d="M1112.53,618s.721,5.742-4.761,6.42l-.339-.638S1112.191,619.782,1112.53,618Z" transform="translate(365.478 858.019)"/>
    <path id="Path_228" data-name="Path 228" class="cls-23" d="M1107.863,610c.043,6.168-3.87,8.93-3.87,8.93l-.126-.029-1.277-.271c.252-1.894,1.8-4.274,3.138-6.059C1106.86,611.082,1107.863,610,1107.863,610Z" transform="translate(368.573 863.133)"/>
    <path id="Path_229" data-name="Path 229" class="cls-6" d="M1105.728,617.1c-.166,2.33-.592,4.894-1.627,6.092a1.827,1.827,0,0,1-.234.238l-1.277-.271C1102.843,621.266,1104.379,618.885,1105.728,617.1Z" transform="translate(368.573 858.594)"/>
    <path id="Path_230" data-name="Path 230" class="cls-23" d="M1102.464,614.878a1.951,1.951,0,0,1-.721.559h0a1.444,1.444,0,0,1-.267.09c-.808.188-1.082-.393-1.042-1.381a25.813,25.813,0,0,1,2.164-7.087,13.876,13.876,0,0,1,1.547-2.968S1104.6,612.4,1102.464,614.878Z" transform="translate(369.954 866.912)"/>
    <path id="Path_231" data-name="Path 231" class="cls-6" d="M1099.45,621.091a.865.865,0,0,1-.519-.166c-1.54-.959-1.573-4.559-1.2-7.985C1099.05,616.017,1100.5,620.319,1099.45,621.091Z" transform="translate(371.806 861.254)"/>
    <path id="Path_232" data-name="Path 232" class="cls-6" d="M1102.471,620.139c-.177.386-.415.588-.721.559h0a.971.971,0,0,1-.437-.166,2.33,2.33,0,0,1-.873-1.125,25.813,25.813,0,0,1,2.164-7.087C1102.958,615.483,1103.077,618.837,1102.471,620.139Z" transform="translate(369.947 861.65)"/>
    <path id="Path_233" data-name="Path 233" class="cls-23" d="M1099.642,593.7s-3.145,12.984,0,14.925S1100.45,594.847,1099.642,593.7Z" transform="translate(371.351 873.554)"/>
    <path id="Path_234" data-name="Path 234" class="cls-29" d="M1041.536,597.61h-13.1v2.168h2l.051.256.8,4.209h7.614l.8-4.209.047-.256h1.785Z" transform="translate(435.495 883.934)"/>
    <path id="Path_235" data-name="Path 235" class="cls-6" d="M1041.536,597.61h-13.1v2.168h2l.051.256.8,4.209h7.614l.8-4.209.047-.256h1.785Z" transform="translate(435.495 883.934)"/>
    <path id="Path_236" data-name="Path 236" class="cls-29" d="M1044.575,601.14l-.22,1.151-.8,4.209h-7.614l-.8-4.209-.22-1.151Z" transform="translate(431.352 881.677)"/>
    <path id="Path_237" data-name="Path 237" class="cls-6" d="M1044.575,601.14l-.22,1.151h-9.215l-.22-1.151Z" transform="translate(431.352 881.677)"/>
    <rect id="Rectangle_28" data-name="Rectangle 28" class="cls-29" width="13.096" height="2.168" transform="translate(1464.443 1481.544)"/>
    <path id="Path_238" data-name="Path 238" class="cls-23" d="M153.607,731.4a6.289,6.289,0,0,0-.822,1.551c-.051.133-.1.289-.151.436a1.572,1.572,0,0,0-.285-.1,3.969,3.969,0,0,0-1.288-.108c0-.169.022-.361.025-.53.054-1.9-.17-4.548-1.984-3.426-1.738,1.082-.5,2.885.624,4.04.1.1.195.195.289.285-1.024.721-1.219,2.427-1.389,4.2s-1.674,3.708-2.673,4.808c-.1.112-.191.213-.281.307a3.661,3.661,0,0,0-2.9-.747c-.04-.155-.087-.317-.133-.487-.808-2.918-2.485-7.971-4.624-9.078l.281-.361c.909-1.187,1.933-2.954.422-3.4s-1.648,1.529-1.565,3.015q.022.281.043.53a2.211,2.211,0,0,0-1.58.772l-.234-.278c-1.226-1.443-3.473-3.74-4.155-2.005-.635,1.616,1.345,3.715,2.738,4.93l.087.076c-.934,3.791,3.145,6.882,5.342,8.234l.285.173c-3.03,3.571-4.9,10.265-4.9,10.265l8.483,1.515s5.627-4.855,4.905-9.414h.058c5.623-1.125,6.9-7.12,6.023-10.68l.1-.04a6.365,6.365,0,0,0,2.6-1.969C158.52,731.727,155.23,729.26,153.607,731.4Z" transform="translate(989.667 787.233)"/>
    <path id="Path_239" data-name="Path 239" class="cls-6" d="M153.607,731.4a6.289,6.289,0,0,0-.822,1.551c-.051.133-.1.289-.151.436a1.572,1.572,0,0,0-.285-.1,3.969,3.969,0,0,0-1.288-.108c0-.169.022-.361.025-.53.054-1.9-.17-4.548-1.984-3.426-1.738,1.082-.5,2.885.624,4.04.1.1.195.195.289.285-1.024.721-1.219,2.427-1.389,4.2s-1.674,3.708-2.673,4.808c-.1.112-.191.213-.281.307a3.661,3.661,0,0,0-2.9-.747c-.04-.155-.087-.317-.133-.487-.808-2.918-2.485-7.971-4.624-9.078l.281-.361c.909-1.187,1.933-2.954.422-3.4s-1.648,1.529-1.565,3.015q.022.281.043.53a2.211,2.211,0,0,0-1.58.772l-.234-.278c-1.226-1.443-3.473-3.74-4.155-2.005-.635,1.616,1.345,3.715,2.738,4.93l.087.076c-.934,3.791,3.145,6.882,5.342,8.234l.285.173c-3.03,3.571-4.9,10.265-4.9,10.265l8.483,1.515s5.627-4.855,4.905-9.414h.058c5.623-1.125,6.9-7.12,6.023-10.68l.1-.04a6.365,6.365,0,0,0,2.6-1.969C158.52,731.727,155.23,729.26,153.607,731.4Z" transform="translate(989.667 787.233)"/>
    <path id="Path_240" data-name="Path 240" class="cls-23" d="M137.641,736.494l-.992,2.885s-.552-.39-1.248-1c-1.392-1.215-3.372-3.315-2.738-4.93.682-1.735,2.929.555,4.155,2.005C137.313,736.029,137.641,736.494,137.641,736.494Z" transform="translate(988.747 784.609)"/>
    <path id="Path_241" data-name="Path 241" class="cls-23" d="M150.422,732.2a13.759,13.759,0,0,1-.967,1.14,15.221,15.221,0,0,1-.177-1.529c-.083-1.486.076-3.459,1.565-3.015S151.331,731.016,150.422,732.2Z" transform="translate(978.058 787.224)"/>
    <path id="Path_242" data-name="Path 242" class="cls-23" d="M182.953,733.07c-.029.956-.123,1.72-.123,1.72a12.584,12.584,0,0,1-1.237-1.107c-1.122-1.165-2.362-2.961-.624-4.04C182.765,728.518,182.989,731.169,182.953,733.07Z" transform="translate(958.338 786.814)"/>
    <path id="Path_243" data-name="Path 243" class="cls-23" d="M195.966,737.2a6.366,6.366,0,0,1-2.6,1.969,7.787,7.787,0,0,1-.873.317l-1.169-1.641a11.6,11.6,0,0,1,.483-1.594,6.292,6.292,0,0,1,.822-1.551C194.241,732.557,197.538,735.024,195.966,737.2Z" transform="translate(951.169 783.936)"/>
    <path id="Path_244" data-name="Path 244" class="cls-6" d="M141.887,740.11c.494.577.822,1.024.822,1.024l-.992,2.885s-.552-.39-1.248-1a5.663,5.663,0,0,1,1.118-2.55C141.685,740.348,141.79,740.225,141.887,740.11Z" transform="translate(983.678 779.951)"/>
    <path id="Path_245" data-name="Path 245" class="cls-6" d="M150.453,737.659a13.738,13.738,0,0,1-.967,1.14,15.22,15.22,0,0,1-.177-1.529A1.994,1.994,0,0,1,150.453,737.659Z" transform="translate(978.026 781.767)"/>
    <path id="Path_246" data-name="Path 246" class="cls-23" d="M149.574,750.109l-2.467,1.082s-.537-.26-1.313-.743c-2.593-1.594-7.805-5.609-4.328-10.341s6.409,3.755,7.574,7.906C149.391,749.276,149.574,750.109,149.574,750.109Z" transform="translate(983.782 780.845)"/>
    <path id="Path_247" data-name="Path 247" class="cls-6" d="M184.18,740.233a2.027,2.027,0,0,1,1.36-.613c-.029.956-.123,1.72-.123,1.72A12.592,12.592,0,0,1,184.18,740.233Z" transform="translate(955.733 780.264)"/>
    <path id="Path_248" data-name="Path 248" class="cls-6" d="M193.381,743.378a7.788,7.788,0,0,1-.873.317l-1.169-1.641a11.6,11.6,0,0,1,.483-1.594A4.256,4.256,0,0,1,193.381,743.378Z" transform="translate(951.156 779.727)"/>
    <path id="Path_249" data-name="Path 249" class="cls-23" d="M171.208,754.462c-.133.029-.274.054-.415.076-8.27,1.255-2.727-3.206-2.727-3.206s.361-.361.876-.905c1-1.1,2.5-3.026,2.673-4.808.26-2.68.559-5.194,3.722-4.458C178.443,741.888,179.038,752.893,171.208,754.462Z" transform="translate(967.198 779.363)"/>
    <rect id="Rectangle_29" data-name="Rectangle 29" class="cls-30" width="15.801" height="4.155" transform="translate(1122.449 1554.415)"/>
    <rect id="Rectangle_30" data-name="Rectangle 30" class="cls-30" width="20.645" height="14.499" transform="translate(1119.939 1540.912)"/>
    <rect id="Rectangle_31" data-name="Rectangle 31" class="cls-6" width="15.801" height="4.155" transform="translate(1122.449 1554.415)"/>
    <rect id="Rectangle_32" data-name="Rectangle 32" class="cls-6" width="20.645" height="14.499" transform="translate(1119.939 1540.912)"/>
    <rect id="Rectangle_33" data-name="Rectangle 33" class="cls-30" width="15.801" height="4.155" transform="translate(1123.488 1554.415)"/>
    <path id="Path_250" data-name="Path 250" class="cls-6" d="M158.766,764.51c.361,1.241.534,2.092.534,2.092l-2.467,1.082s-.537-.26-1.313-.743A6.333,6.333,0,0,1,158.766,764.51Z" transform="translate(974.056 764.351)"/>
    <path id="Path_251" data-name="Path 251" class="cls-6" d="M171.208,771.116c-.133.029-.274.054-.415.076-8.27,1.255-2.727-3.206-2.727-3.206s.361-.361.876-.905A5.476,5.476,0,0,1,171.208,771.116Z" transform="translate(967.198 762.708)"/>
    <path id="Path_252" data-name="Path 252" class="cls-23" d="M142.72,778.126s4.631-16.591,11.127-11.473-2.644,12.984-2.644,12.984Z" transform="translate(982.24 763.608)"/>
    <circle id="Ellipse_27" data-name="Ellipse 27" class="cls-6" cx="0.519" cy="0.519" r="0.519" transform="translate(1126.777 1523.033)"/>
    <circle id="Ellipse_28" data-name="Ellipse 28" class="cls-6" cx="0.519" cy="0.519" r="0.519" transform="translate(1126.734 1525.457)"/>
    <circle id="Ellipse_29" data-name="Ellipse 29" class="cls-6" cx="0.519" cy="0.519" r="0.519" transform="translate(1141.8 1523.509)"/>
    <circle id="Ellipse_30" data-name="Ellipse 30" class="cls-6" cx="0.519" cy="0.519" r="0.519" transform="translate(1129.681 1535.934)"/>
    <circle id="Ellipse_31" data-name="Ellipse 31" class="cls-6" cx="0.519" cy="0.519" r="0.519" transform="translate(1140.718 1527.534)"/>
    <circle id="Ellipse_32" data-name="Ellipse 32" class="cls-6" cx="0.519" cy="0.519" r="0.519" transform="translate(1135.351 1532.905)"/>
    <circle id="Ellipse_33" data-name="Ellipse 33" class="cls-6" cx="0.519" cy="0.519" r="0.519" transform="translate(1128.552 1524.072)"/>
    <circle id="Ellipse_34" data-name="Ellipse 34" class="cls-6" cx="0.519" cy="0.519" r="0.519" transform="translate(1140.371 1525.067)"/>
    <circle id="Ellipse_35" data-name="Ellipse 35" class="cls-6" cx="0.519" cy="0.519" r="0.519" transform="translate(1138.597 1529.092)"/>
    <circle id="Ellipse_36" data-name="Ellipse 36" class="cls-6" cx="0.519" cy="0.519" r="0.519" transform="translate(1133.143 1535.545)"/>
    <circle id="Ellipse_37" data-name="Ellipse 37" class="cls-6" cx="0.519" cy="0.519" r="0.519" transform="translate(1132.018 1532.991)"/>
    <circle id="Ellipse_38" data-name="Ellipse 38" class="cls-6" cx="0.519" cy="0.519" r="0.519" transform="translate(1129.331 1527.231)"/>
    <rect id="Rectangle_34" data-name="Rectangle 34" class="cls-6" width="15.801" height="1.518" transform="translate(1123.488 1554.415)"/>
    <rect id="Rectangle_35" data-name="Rectangle 35" class="cls-30" width="20.645" height="14.499" transform="translate(1120.978 1540.912)"/>
    <circle id="Ellipse_39" data-name="Ellipse 39" class="cls-6" cx="0.519" cy="0.519" r="0.519" transform="translate(1133.836 1537.882)"/>
    <circle id="Ellipse_40" data-name="Ellipse 40" class="cls-6" cx="0.519" cy="0.519" r="0.519" transform="translate(1130.72 1538.531)"/>
    <circle id="Ellipse_41" data-name="Ellipse 41" class="cls-1" cx="3.773" cy="3.773" r="3.773" transform="translate(1107.261 1280.983)"/>
    <circle id="Ellipse_42" data-name="Ellipse 42" class="cls-1" cx="5.049" cy="5.049" r="5.049" transform="translate(1468.31 1398.401)"/>
    <circle id="Ellipse_43" data-name="Ellipse 43" class="cls-1" cx="3.686" cy="3.686" r="3.686" transform="translate(1479.408 1388.944)"/>
    <circle id="Ellipse_44" data-name="Ellipse 44" class="cls-1" cx="5.049" cy="5.049" r="5.049" transform="translate(1112.477 1266)"/>
    <circle id="Ellipse_45" data-name="Ellipse 45" class="cls-1" cx="5.049" cy="5.049" r="5.049" transform="translate(1093 1289.083)"/>
  </g>
</svg>
